G04 #@! TF.GenerationSoftware,KiCad,Pcbnew,5.1.5-52549c5~86~ubuntu18.04.1*
G04 #@! TF.CreationDate,2020-04-01T00:41:12+05:30*
G04 #@! TF.ProjectId,osvent_controller,6f737665-6e74-45f6-936f-6e74726f6c6c,rev?*
G04 #@! TF.SameCoordinates,Original*
G04 #@! TF.FileFunction,Soldermask,Bot*
G04 #@! TF.FilePolarity,Negative*
%FSLAX46Y46*%
G04 Gerber Fmt 4.6, Leading zero omitted, Abs format (unit mm)*
G04 Created by KiCad (PCBNEW 5.1.5-52549c5~86~ubuntu18.04.1) date 2020-04-01 00:41:12*
%MOMM*%
%LPD*%
G04 APERTURE LIST*
%ADD10C,0.100000*%
G04 APERTURE END LIST*
D10*
G36*
X166993000Y-96031000D02*
G01*
X165367000Y-96031000D01*
X165367000Y-91929000D01*
X166993000Y-91929000D01*
X166993000Y-96031000D01*
G37*
G36*
X144561000Y-95618500D02*
G01*
X142459000Y-95618500D01*
X142459000Y-93611500D01*
X144561000Y-93611500D01*
X144561000Y-95618500D01*
G37*
G36*
X163481000Y-94793000D02*
G01*
X159879000Y-94793000D01*
X159879000Y-93167000D01*
X163481000Y-93167000D01*
X163481000Y-94793000D01*
G37*
G36*
X55701564Y-91119389D02*
G01*
X55892833Y-91198615D01*
X55892835Y-91198616D01*
X56064973Y-91313635D01*
X56211365Y-91460027D01*
X56326385Y-91632167D01*
X56405611Y-91823436D01*
X56446000Y-92026484D01*
X56446000Y-92233516D01*
X56405611Y-92436564D01*
X56360281Y-92546000D01*
X56326384Y-92627835D01*
X56211365Y-92799973D01*
X56064973Y-92946365D01*
X55892835Y-93061384D01*
X55892834Y-93061385D01*
X55892833Y-93061385D01*
X55701564Y-93140611D01*
X55498516Y-93181000D01*
X55291484Y-93181000D01*
X55088436Y-93140611D01*
X54897167Y-93061385D01*
X54897166Y-93061385D01*
X54897165Y-93061384D01*
X54725027Y-92946365D01*
X54578635Y-92799973D01*
X54463616Y-92627835D01*
X54429719Y-92546000D01*
X54384389Y-92436564D01*
X54344000Y-92233516D01*
X54344000Y-92026484D01*
X54384389Y-91823436D01*
X54463615Y-91632167D01*
X54578635Y-91460027D01*
X54725027Y-91313635D01*
X54897165Y-91198616D01*
X54897167Y-91198615D01*
X55088436Y-91119389D01*
X55291484Y-91079000D01*
X55498516Y-91079000D01*
X55701564Y-91119389D01*
G37*
G36*
X49201564Y-91119389D02*
G01*
X49392833Y-91198615D01*
X49392835Y-91198616D01*
X49564973Y-91313635D01*
X49711365Y-91460027D01*
X49826385Y-91632167D01*
X49905611Y-91823436D01*
X49946000Y-92026484D01*
X49946000Y-92233516D01*
X49905611Y-92436564D01*
X49860281Y-92546000D01*
X49826384Y-92627835D01*
X49711365Y-92799973D01*
X49564973Y-92946365D01*
X49392835Y-93061384D01*
X49392834Y-93061385D01*
X49392833Y-93061385D01*
X49201564Y-93140611D01*
X48998516Y-93181000D01*
X48791484Y-93181000D01*
X48588436Y-93140611D01*
X48397167Y-93061385D01*
X48397166Y-93061385D01*
X48397165Y-93061384D01*
X48225027Y-92946365D01*
X48078635Y-92799973D01*
X47963616Y-92627835D01*
X47929719Y-92546000D01*
X47884389Y-92436564D01*
X47844000Y-92233516D01*
X47844000Y-92026484D01*
X47884389Y-91823436D01*
X47963615Y-91632167D01*
X48078635Y-91460027D01*
X48225027Y-91313635D01*
X48397165Y-91198616D01*
X48397167Y-91198615D01*
X48588436Y-91119389D01*
X48791484Y-91079000D01*
X48998516Y-91079000D01*
X49201564Y-91119389D01*
G37*
G36*
X69521564Y-91119389D02*
G01*
X69712833Y-91198615D01*
X69712835Y-91198616D01*
X69884973Y-91313635D01*
X70031365Y-91460027D01*
X70146385Y-91632167D01*
X70225611Y-91823436D01*
X70266000Y-92026484D01*
X70266000Y-92233516D01*
X70225611Y-92436564D01*
X70180281Y-92546000D01*
X70146384Y-92627835D01*
X70031365Y-92799973D01*
X69884973Y-92946365D01*
X69712835Y-93061384D01*
X69712834Y-93061385D01*
X69712833Y-93061385D01*
X69521564Y-93140611D01*
X69318516Y-93181000D01*
X69111484Y-93181000D01*
X68908436Y-93140611D01*
X68717167Y-93061385D01*
X68717166Y-93061385D01*
X68717165Y-93061384D01*
X68545027Y-92946365D01*
X68398635Y-92799973D01*
X68283616Y-92627835D01*
X68249719Y-92546000D01*
X68204389Y-92436564D01*
X68164000Y-92233516D01*
X68164000Y-92026484D01*
X68204389Y-91823436D01*
X68283615Y-91632167D01*
X68398635Y-91460027D01*
X68545027Y-91313635D01*
X68717165Y-91198616D01*
X68717167Y-91198615D01*
X68908436Y-91119389D01*
X69111484Y-91079000D01*
X69318516Y-91079000D01*
X69521564Y-91119389D01*
G37*
G36*
X34746564Y-91119389D02*
G01*
X34937833Y-91198615D01*
X34937835Y-91198616D01*
X35109973Y-91313635D01*
X35256365Y-91460027D01*
X35371385Y-91632167D01*
X35450611Y-91823436D01*
X35491000Y-92026484D01*
X35491000Y-92233516D01*
X35450611Y-92436564D01*
X35405281Y-92546000D01*
X35371384Y-92627835D01*
X35256365Y-92799973D01*
X35109973Y-92946365D01*
X34937835Y-93061384D01*
X34937834Y-93061385D01*
X34937833Y-93061385D01*
X34746564Y-93140611D01*
X34543516Y-93181000D01*
X34336484Y-93181000D01*
X34133436Y-93140611D01*
X33942167Y-93061385D01*
X33942166Y-93061385D01*
X33942165Y-93061384D01*
X33770027Y-92946365D01*
X33623635Y-92799973D01*
X33508616Y-92627835D01*
X33474719Y-92546000D01*
X33429389Y-92436564D01*
X33389000Y-92233516D01*
X33389000Y-92026484D01*
X33429389Y-91823436D01*
X33508615Y-91632167D01*
X33623635Y-91460027D01*
X33770027Y-91313635D01*
X33942165Y-91198616D01*
X33942167Y-91198615D01*
X34133436Y-91119389D01*
X34336484Y-91079000D01*
X34543516Y-91079000D01*
X34746564Y-91119389D01*
G37*
G36*
X76021564Y-91119389D02*
G01*
X76212833Y-91198615D01*
X76212835Y-91198616D01*
X76384973Y-91313635D01*
X76531365Y-91460027D01*
X76646385Y-91632167D01*
X76725611Y-91823436D01*
X76766000Y-92026484D01*
X76766000Y-92233516D01*
X76725611Y-92436564D01*
X76680281Y-92546000D01*
X76646384Y-92627835D01*
X76531365Y-92799973D01*
X76384973Y-92946365D01*
X76212835Y-93061384D01*
X76212834Y-93061385D01*
X76212833Y-93061385D01*
X76021564Y-93140611D01*
X75818516Y-93181000D01*
X75611484Y-93181000D01*
X75408436Y-93140611D01*
X75217167Y-93061385D01*
X75217166Y-93061385D01*
X75217165Y-93061384D01*
X75045027Y-92946365D01*
X74898635Y-92799973D01*
X74783616Y-92627835D01*
X74749719Y-92546000D01*
X74704389Y-92436564D01*
X74664000Y-92233516D01*
X74664000Y-92026484D01*
X74704389Y-91823436D01*
X74783615Y-91632167D01*
X74898635Y-91460027D01*
X75045027Y-91313635D01*
X75217165Y-91198616D01*
X75217167Y-91198615D01*
X75408436Y-91119389D01*
X75611484Y-91079000D01*
X75818516Y-91079000D01*
X76021564Y-91119389D01*
G37*
G36*
X28246564Y-91119389D02*
G01*
X28437833Y-91198615D01*
X28437835Y-91198616D01*
X28609973Y-91313635D01*
X28756365Y-91460027D01*
X28871385Y-91632167D01*
X28950611Y-91823436D01*
X28991000Y-92026484D01*
X28991000Y-92233516D01*
X28950611Y-92436564D01*
X28905281Y-92546000D01*
X28871384Y-92627835D01*
X28756365Y-92799973D01*
X28609973Y-92946365D01*
X28437835Y-93061384D01*
X28437834Y-93061385D01*
X28437833Y-93061385D01*
X28246564Y-93140611D01*
X28043516Y-93181000D01*
X27836484Y-93181000D01*
X27633436Y-93140611D01*
X27442167Y-93061385D01*
X27442166Y-93061385D01*
X27442165Y-93061384D01*
X27270027Y-92946365D01*
X27123635Y-92799973D01*
X27008616Y-92627835D01*
X26974719Y-92546000D01*
X26929389Y-92436564D01*
X26889000Y-92233516D01*
X26889000Y-92026484D01*
X26929389Y-91823436D01*
X27008615Y-91632167D01*
X27123635Y-91460027D01*
X27270027Y-91313635D01*
X27442165Y-91198616D01*
X27442167Y-91198615D01*
X27633436Y-91119389D01*
X27836484Y-91079000D01*
X28043516Y-91079000D01*
X28246564Y-91119389D01*
G37*
G36*
X143655936Y-91076340D02*
G01*
X143754220Y-91086020D01*
X143943381Y-91143401D01*
X144117712Y-91236583D01*
X144270515Y-91361985D01*
X144395917Y-91514788D01*
X144489099Y-91689119D01*
X144546480Y-91878280D01*
X144565855Y-92075000D01*
X144546480Y-92271720D01*
X144489099Y-92460881D01*
X144395917Y-92635212D01*
X144270515Y-92788015D01*
X144117712Y-92913417D01*
X143943381Y-93006599D01*
X143754220Y-93063980D01*
X143655936Y-93073660D01*
X143606795Y-93078500D01*
X143413205Y-93078500D01*
X143364064Y-93073660D01*
X143265780Y-93063980D01*
X143076619Y-93006599D01*
X142902288Y-92913417D01*
X142749485Y-92788015D01*
X142624083Y-92635212D01*
X142530901Y-92460881D01*
X142473520Y-92271720D01*
X142454145Y-92075000D01*
X142473520Y-91878280D01*
X142530901Y-91689119D01*
X142624083Y-91514788D01*
X142749485Y-91361985D01*
X142902288Y-91236583D01*
X143076619Y-91143401D01*
X143265780Y-91086020D01*
X143364064Y-91076340D01*
X143413205Y-91071500D01*
X143606795Y-91071500D01*
X143655936Y-91076340D01*
G37*
G36*
X91111564Y-90484389D02*
G01*
X91302833Y-90563615D01*
X91302835Y-90563616D01*
X91474973Y-90678635D01*
X91621365Y-90825027D01*
X91736385Y-90997167D01*
X91815611Y-91188436D01*
X91856000Y-91391484D01*
X91856000Y-91598516D01*
X91815611Y-91801564D01*
X91806551Y-91823436D01*
X91736384Y-91992835D01*
X91621365Y-92164973D01*
X91474973Y-92311365D01*
X91302835Y-92426384D01*
X91302834Y-92426385D01*
X91302833Y-92426385D01*
X91111564Y-92505611D01*
X90908516Y-92546000D01*
X90701484Y-92546000D01*
X90498436Y-92505611D01*
X90307167Y-92426385D01*
X90307166Y-92426385D01*
X90307165Y-92426384D01*
X90135027Y-92311365D01*
X89988635Y-92164973D01*
X89873616Y-91992835D01*
X89803449Y-91823436D01*
X89794389Y-91801564D01*
X89754000Y-91598516D01*
X89754000Y-91391484D01*
X89794389Y-91188436D01*
X89873615Y-90997167D01*
X89988635Y-90825027D01*
X90135027Y-90678635D01*
X90307165Y-90563616D01*
X90307167Y-90563615D01*
X90498436Y-90484389D01*
X90701484Y-90444000D01*
X90908516Y-90444000D01*
X91111564Y-90484389D01*
G37*
G36*
X97611564Y-90484389D02*
G01*
X97802833Y-90563615D01*
X97802835Y-90563616D01*
X97974973Y-90678635D01*
X98121365Y-90825027D01*
X98236385Y-90997167D01*
X98315611Y-91188436D01*
X98356000Y-91391484D01*
X98356000Y-91598516D01*
X98315611Y-91801564D01*
X98306551Y-91823436D01*
X98236384Y-91992835D01*
X98121365Y-92164973D01*
X97974973Y-92311365D01*
X97802835Y-92426384D01*
X97802834Y-92426385D01*
X97802833Y-92426385D01*
X97611564Y-92505611D01*
X97408516Y-92546000D01*
X97201484Y-92546000D01*
X96998436Y-92505611D01*
X96807167Y-92426385D01*
X96807166Y-92426385D01*
X96807165Y-92426384D01*
X96635027Y-92311365D01*
X96488635Y-92164973D01*
X96373616Y-91992835D01*
X96303449Y-91823436D01*
X96294389Y-91801564D01*
X96254000Y-91598516D01*
X96254000Y-91391484D01*
X96294389Y-91188436D01*
X96373615Y-90997167D01*
X96488635Y-90825027D01*
X96635027Y-90678635D01*
X96807165Y-90563616D01*
X96807167Y-90563615D01*
X96998436Y-90484389D01*
X97201484Y-90444000D01*
X97408516Y-90444000D01*
X97611564Y-90484389D01*
G37*
G36*
X143655936Y-88536340D02*
G01*
X143754220Y-88546020D01*
X143943381Y-88603401D01*
X144117712Y-88696583D01*
X144270515Y-88821985D01*
X144395917Y-88974788D01*
X144489099Y-89149119D01*
X144546480Y-89338280D01*
X144565855Y-89535000D01*
X144546480Y-89731720D01*
X144489099Y-89920881D01*
X144395917Y-90095212D01*
X144270515Y-90248015D01*
X144117712Y-90373417D01*
X143943381Y-90466599D01*
X143754220Y-90523980D01*
X143655936Y-90533660D01*
X143606795Y-90538500D01*
X143413205Y-90538500D01*
X143364064Y-90533660D01*
X143265780Y-90523980D01*
X143076619Y-90466599D01*
X142902288Y-90373417D01*
X142749485Y-90248015D01*
X142624083Y-90095212D01*
X142530901Y-89920881D01*
X142473520Y-89731720D01*
X142454145Y-89535000D01*
X142473520Y-89338280D01*
X142530901Y-89149119D01*
X142624083Y-88974788D01*
X142749485Y-88821985D01*
X142902288Y-88696583D01*
X143076619Y-88603401D01*
X143265780Y-88546020D01*
X143364064Y-88536340D01*
X143413205Y-88531500D01*
X143606795Y-88531500D01*
X143655936Y-88536340D01*
G37*
G36*
X111391000Y-89801000D02*
G01*
X109589000Y-89801000D01*
X109589000Y-87999000D01*
X111391000Y-87999000D01*
X111391000Y-89801000D01*
G37*
G36*
X136138228Y-88081703D02*
G01*
X136293100Y-88145853D01*
X136432481Y-88238985D01*
X136551015Y-88357519D01*
X136644147Y-88496900D01*
X136708297Y-88651772D01*
X136741000Y-88816184D01*
X136741000Y-88983816D01*
X136708297Y-89148228D01*
X136644147Y-89303100D01*
X136551015Y-89442481D01*
X136432481Y-89561015D01*
X136293100Y-89654147D01*
X136138228Y-89718297D01*
X135973816Y-89751000D01*
X135806184Y-89751000D01*
X135641772Y-89718297D01*
X135486900Y-89654147D01*
X135347519Y-89561015D01*
X135228985Y-89442481D01*
X135135853Y-89303100D01*
X135071703Y-89148228D01*
X135039000Y-88983816D01*
X135039000Y-88816184D01*
X135071703Y-88651772D01*
X135135853Y-88496900D01*
X135228985Y-88357519D01*
X135347519Y-88238985D01*
X135486900Y-88145853D01*
X135641772Y-88081703D01*
X135806184Y-88049000D01*
X135973816Y-88049000D01*
X136138228Y-88081703D01*
G37*
G36*
X120898228Y-88081703D02*
G01*
X121053100Y-88145853D01*
X121192481Y-88238985D01*
X121311015Y-88357519D01*
X121404147Y-88496900D01*
X121468297Y-88651772D01*
X121501000Y-88816184D01*
X121501000Y-88983816D01*
X121468297Y-89148228D01*
X121404147Y-89303100D01*
X121311015Y-89442481D01*
X121192481Y-89561015D01*
X121053100Y-89654147D01*
X120898228Y-89718297D01*
X120733816Y-89751000D01*
X120566184Y-89751000D01*
X120401772Y-89718297D01*
X120246900Y-89654147D01*
X120107519Y-89561015D01*
X119988985Y-89442481D01*
X119895853Y-89303100D01*
X119831703Y-89148228D01*
X119799000Y-88983816D01*
X119799000Y-88816184D01*
X119831703Y-88651772D01*
X119895853Y-88496900D01*
X119988985Y-88357519D01*
X120107519Y-88238985D01*
X120246900Y-88145853D01*
X120401772Y-88081703D01*
X120566184Y-88049000D01*
X120733816Y-88049000D01*
X120898228Y-88081703D01*
G37*
G36*
X76021564Y-86619389D02*
G01*
X76212833Y-86698615D01*
X76212835Y-86698616D01*
X76384973Y-86813635D01*
X76531365Y-86960027D01*
X76634345Y-87114147D01*
X76646385Y-87132167D01*
X76725611Y-87323436D01*
X76766000Y-87526484D01*
X76766000Y-87733516D01*
X76725611Y-87936564D01*
X76665492Y-88081705D01*
X76646384Y-88127835D01*
X76531365Y-88299973D01*
X76384973Y-88446365D01*
X76212835Y-88561384D01*
X76212834Y-88561385D01*
X76212833Y-88561385D01*
X76021564Y-88640611D01*
X75818516Y-88681000D01*
X75611484Y-88681000D01*
X75408436Y-88640611D01*
X75217167Y-88561385D01*
X75217166Y-88561385D01*
X75217165Y-88561384D01*
X75045027Y-88446365D01*
X74898635Y-88299973D01*
X74783616Y-88127835D01*
X74764508Y-88081705D01*
X74704389Y-87936564D01*
X74664000Y-87733516D01*
X74664000Y-87526484D01*
X74704389Y-87323436D01*
X74783615Y-87132167D01*
X74795656Y-87114147D01*
X74898635Y-86960027D01*
X75045027Y-86813635D01*
X75217165Y-86698616D01*
X75217167Y-86698615D01*
X75408436Y-86619389D01*
X75611484Y-86579000D01*
X75818516Y-86579000D01*
X76021564Y-86619389D01*
G37*
G36*
X69521564Y-86619389D02*
G01*
X69712833Y-86698615D01*
X69712835Y-86698616D01*
X69884973Y-86813635D01*
X70031365Y-86960027D01*
X70134345Y-87114147D01*
X70146385Y-87132167D01*
X70225611Y-87323436D01*
X70266000Y-87526484D01*
X70266000Y-87733516D01*
X70225611Y-87936564D01*
X70165492Y-88081705D01*
X70146384Y-88127835D01*
X70031365Y-88299973D01*
X69884973Y-88446365D01*
X69712835Y-88561384D01*
X69712834Y-88561385D01*
X69712833Y-88561385D01*
X69521564Y-88640611D01*
X69318516Y-88681000D01*
X69111484Y-88681000D01*
X68908436Y-88640611D01*
X68717167Y-88561385D01*
X68717166Y-88561385D01*
X68717165Y-88561384D01*
X68545027Y-88446365D01*
X68398635Y-88299973D01*
X68283616Y-88127835D01*
X68264508Y-88081705D01*
X68204389Y-87936564D01*
X68164000Y-87733516D01*
X68164000Y-87526484D01*
X68204389Y-87323436D01*
X68283615Y-87132167D01*
X68295656Y-87114147D01*
X68398635Y-86960027D01*
X68545027Y-86813635D01*
X68717165Y-86698616D01*
X68717167Y-86698615D01*
X68908436Y-86619389D01*
X69111484Y-86579000D01*
X69318516Y-86579000D01*
X69521564Y-86619389D01*
G37*
G36*
X55701564Y-86619389D02*
G01*
X55892833Y-86698615D01*
X55892835Y-86698616D01*
X56064973Y-86813635D01*
X56211365Y-86960027D01*
X56314345Y-87114147D01*
X56326385Y-87132167D01*
X56405611Y-87323436D01*
X56446000Y-87526484D01*
X56446000Y-87733516D01*
X56405611Y-87936564D01*
X56345492Y-88081705D01*
X56326384Y-88127835D01*
X56211365Y-88299973D01*
X56064973Y-88446365D01*
X55892835Y-88561384D01*
X55892834Y-88561385D01*
X55892833Y-88561385D01*
X55701564Y-88640611D01*
X55498516Y-88681000D01*
X55291484Y-88681000D01*
X55088436Y-88640611D01*
X54897167Y-88561385D01*
X54897166Y-88561385D01*
X54897165Y-88561384D01*
X54725027Y-88446365D01*
X54578635Y-88299973D01*
X54463616Y-88127835D01*
X54444508Y-88081705D01*
X54384389Y-87936564D01*
X54344000Y-87733516D01*
X54344000Y-87526484D01*
X54384389Y-87323436D01*
X54463615Y-87132167D01*
X54475656Y-87114147D01*
X54578635Y-86960027D01*
X54725027Y-86813635D01*
X54897165Y-86698616D01*
X54897167Y-86698615D01*
X55088436Y-86619389D01*
X55291484Y-86579000D01*
X55498516Y-86579000D01*
X55701564Y-86619389D01*
G37*
G36*
X34746564Y-86619389D02*
G01*
X34937833Y-86698615D01*
X34937835Y-86698616D01*
X35109973Y-86813635D01*
X35256365Y-86960027D01*
X35359345Y-87114147D01*
X35371385Y-87132167D01*
X35450611Y-87323436D01*
X35491000Y-87526484D01*
X35491000Y-87733516D01*
X35450611Y-87936564D01*
X35390492Y-88081705D01*
X35371384Y-88127835D01*
X35256365Y-88299973D01*
X35109973Y-88446365D01*
X34937835Y-88561384D01*
X34937834Y-88561385D01*
X34937833Y-88561385D01*
X34746564Y-88640611D01*
X34543516Y-88681000D01*
X34336484Y-88681000D01*
X34133436Y-88640611D01*
X33942167Y-88561385D01*
X33942166Y-88561385D01*
X33942165Y-88561384D01*
X33770027Y-88446365D01*
X33623635Y-88299973D01*
X33508616Y-88127835D01*
X33489508Y-88081705D01*
X33429389Y-87936564D01*
X33389000Y-87733516D01*
X33389000Y-87526484D01*
X33429389Y-87323436D01*
X33508615Y-87132167D01*
X33520656Y-87114147D01*
X33623635Y-86960027D01*
X33770027Y-86813635D01*
X33942165Y-86698616D01*
X33942167Y-86698615D01*
X34133436Y-86619389D01*
X34336484Y-86579000D01*
X34543516Y-86579000D01*
X34746564Y-86619389D01*
G37*
G36*
X49201564Y-86619389D02*
G01*
X49392833Y-86698615D01*
X49392835Y-86698616D01*
X49564973Y-86813635D01*
X49711365Y-86960027D01*
X49814345Y-87114147D01*
X49826385Y-87132167D01*
X49905611Y-87323436D01*
X49946000Y-87526484D01*
X49946000Y-87733516D01*
X49905611Y-87936564D01*
X49845492Y-88081705D01*
X49826384Y-88127835D01*
X49711365Y-88299973D01*
X49564973Y-88446365D01*
X49392835Y-88561384D01*
X49392834Y-88561385D01*
X49392833Y-88561385D01*
X49201564Y-88640611D01*
X48998516Y-88681000D01*
X48791484Y-88681000D01*
X48588436Y-88640611D01*
X48397167Y-88561385D01*
X48397166Y-88561385D01*
X48397165Y-88561384D01*
X48225027Y-88446365D01*
X48078635Y-88299973D01*
X47963616Y-88127835D01*
X47944508Y-88081705D01*
X47884389Y-87936564D01*
X47844000Y-87733516D01*
X47844000Y-87526484D01*
X47884389Y-87323436D01*
X47963615Y-87132167D01*
X47975656Y-87114147D01*
X48078635Y-86960027D01*
X48225027Y-86813635D01*
X48397165Y-86698616D01*
X48397167Y-86698615D01*
X48588436Y-86619389D01*
X48791484Y-86579000D01*
X48998516Y-86579000D01*
X49201564Y-86619389D01*
G37*
G36*
X28246564Y-86619389D02*
G01*
X28437833Y-86698615D01*
X28437835Y-86698616D01*
X28609973Y-86813635D01*
X28756365Y-86960027D01*
X28859345Y-87114147D01*
X28871385Y-87132167D01*
X28950611Y-87323436D01*
X28991000Y-87526484D01*
X28991000Y-87733516D01*
X28950611Y-87936564D01*
X28890492Y-88081705D01*
X28871384Y-88127835D01*
X28756365Y-88299973D01*
X28609973Y-88446365D01*
X28437835Y-88561384D01*
X28437834Y-88561385D01*
X28437833Y-88561385D01*
X28246564Y-88640611D01*
X28043516Y-88681000D01*
X27836484Y-88681000D01*
X27633436Y-88640611D01*
X27442167Y-88561385D01*
X27442166Y-88561385D01*
X27442165Y-88561384D01*
X27270027Y-88446365D01*
X27123635Y-88299973D01*
X27008616Y-88127835D01*
X26989508Y-88081705D01*
X26929389Y-87936564D01*
X26889000Y-87733516D01*
X26889000Y-87526484D01*
X26929389Y-87323436D01*
X27008615Y-87132167D01*
X27020656Y-87114147D01*
X27123635Y-86960027D01*
X27270027Y-86813635D01*
X27442165Y-86698616D01*
X27442167Y-86698615D01*
X27633436Y-86619389D01*
X27836484Y-86579000D01*
X28043516Y-86579000D01*
X28246564Y-86619389D01*
G37*
G36*
X97611564Y-85984389D02*
G01*
X97802833Y-86063615D01*
X97802835Y-86063616D01*
X97974973Y-86178635D01*
X98121365Y-86325027D01*
X98200737Y-86443815D01*
X98236385Y-86497167D01*
X98315611Y-86688436D01*
X98356000Y-86891484D01*
X98356000Y-87098516D01*
X98315611Y-87301564D01*
X98306551Y-87323436D01*
X98236384Y-87492835D01*
X98121365Y-87664973D01*
X97974973Y-87811365D01*
X97802835Y-87926384D01*
X97802834Y-87926385D01*
X97802833Y-87926385D01*
X97611564Y-88005611D01*
X97408516Y-88046000D01*
X97201484Y-88046000D01*
X96998436Y-88005611D01*
X96807167Y-87926385D01*
X96807166Y-87926385D01*
X96807165Y-87926384D01*
X96635027Y-87811365D01*
X96488635Y-87664973D01*
X96373616Y-87492835D01*
X96303449Y-87323436D01*
X96294389Y-87301564D01*
X96254000Y-87098516D01*
X96254000Y-86891484D01*
X96294389Y-86688436D01*
X96373615Y-86497167D01*
X96409264Y-86443815D01*
X96488635Y-86325027D01*
X96635027Y-86178635D01*
X96807165Y-86063616D01*
X96807167Y-86063615D01*
X96998436Y-85984389D01*
X97201484Y-85944000D01*
X97408516Y-85944000D01*
X97611564Y-85984389D01*
G37*
G36*
X91111564Y-85984389D02*
G01*
X91302833Y-86063615D01*
X91302835Y-86063616D01*
X91474973Y-86178635D01*
X91621365Y-86325027D01*
X91700737Y-86443815D01*
X91736385Y-86497167D01*
X91815611Y-86688436D01*
X91856000Y-86891484D01*
X91856000Y-87098516D01*
X91815611Y-87301564D01*
X91806551Y-87323436D01*
X91736384Y-87492835D01*
X91621365Y-87664973D01*
X91474973Y-87811365D01*
X91302835Y-87926384D01*
X91302834Y-87926385D01*
X91302833Y-87926385D01*
X91111564Y-88005611D01*
X90908516Y-88046000D01*
X90701484Y-88046000D01*
X90498436Y-88005611D01*
X90307167Y-87926385D01*
X90307166Y-87926385D01*
X90307165Y-87926384D01*
X90135027Y-87811365D01*
X89988635Y-87664973D01*
X89873616Y-87492835D01*
X89803449Y-87323436D01*
X89794389Y-87301564D01*
X89754000Y-87098516D01*
X89754000Y-86891484D01*
X89794389Y-86688436D01*
X89873615Y-86497167D01*
X89909264Y-86443815D01*
X89988635Y-86325027D01*
X90135027Y-86178635D01*
X90307165Y-86063616D01*
X90307167Y-86063615D01*
X90498436Y-85984389D01*
X90701484Y-85944000D01*
X90908516Y-85944000D01*
X91111564Y-85984389D01*
G37*
G36*
X159498512Y-85463927D02*
G01*
X159647812Y-85493624D01*
X159811784Y-85561544D01*
X159959354Y-85660147D01*
X160084853Y-85785646D01*
X160183456Y-85933216D01*
X160251376Y-86097188D01*
X160286000Y-86271259D01*
X160286000Y-86448741D01*
X160251376Y-86622812D01*
X160183456Y-86786784D01*
X160084853Y-86934354D01*
X159959354Y-87059853D01*
X159811784Y-87158456D01*
X159647812Y-87226376D01*
X159498512Y-87256073D01*
X159473742Y-87261000D01*
X159296258Y-87261000D01*
X159271488Y-87256073D01*
X159122188Y-87226376D01*
X158958216Y-87158456D01*
X158810646Y-87059853D01*
X158685147Y-86934354D01*
X158586544Y-86786784D01*
X158518624Y-86622812D01*
X158484000Y-86448741D01*
X158484000Y-86271259D01*
X158518624Y-86097188D01*
X158586544Y-85933216D01*
X158685147Y-85785646D01*
X158810646Y-85660147D01*
X158958216Y-85561544D01*
X159122188Y-85493624D01*
X159271488Y-85463927D01*
X159296258Y-85459000D01*
X159473742Y-85459000D01*
X159498512Y-85463927D01*
G37*
G36*
X110603512Y-85463927D02*
G01*
X110752812Y-85493624D01*
X110916784Y-85561544D01*
X111064354Y-85660147D01*
X111189853Y-85785646D01*
X111288456Y-85933216D01*
X111356376Y-86097188D01*
X111391000Y-86271259D01*
X111391000Y-86448741D01*
X111356376Y-86622812D01*
X111288456Y-86786784D01*
X111189853Y-86934354D01*
X111064354Y-87059853D01*
X110916784Y-87158456D01*
X110752812Y-87226376D01*
X110603512Y-87256073D01*
X110578742Y-87261000D01*
X110401258Y-87261000D01*
X110376488Y-87256073D01*
X110227188Y-87226376D01*
X110063216Y-87158456D01*
X109915646Y-87059853D01*
X109790147Y-86934354D01*
X109691544Y-86786784D01*
X109623624Y-86622812D01*
X109589000Y-86448741D01*
X109589000Y-86271259D01*
X109623624Y-86097188D01*
X109691544Y-85933216D01*
X109790147Y-85785646D01*
X109915646Y-85660147D01*
X110063216Y-85561544D01*
X110227188Y-85493624D01*
X110376488Y-85463927D01*
X110401258Y-85459000D01*
X110578742Y-85459000D01*
X110603512Y-85463927D01*
G37*
G36*
X120898228Y-85541703D02*
G01*
X121053100Y-85605853D01*
X121192481Y-85698985D01*
X121311015Y-85817519D01*
X121404147Y-85956900D01*
X121468297Y-86111772D01*
X121501000Y-86276184D01*
X121501000Y-86443816D01*
X121468297Y-86608228D01*
X121404147Y-86763100D01*
X121311015Y-86902481D01*
X121192481Y-87021015D01*
X121053100Y-87114147D01*
X120898228Y-87178297D01*
X120733816Y-87211000D01*
X120566184Y-87211000D01*
X120401772Y-87178297D01*
X120246900Y-87114147D01*
X120107519Y-87021015D01*
X119988985Y-86902481D01*
X119895853Y-86763100D01*
X119831703Y-86608228D01*
X119799000Y-86443816D01*
X119799000Y-86276184D01*
X119831703Y-86111772D01*
X119895853Y-85956900D01*
X119988985Y-85817519D01*
X120107519Y-85698985D01*
X120246900Y-85605853D01*
X120401772Y-85541703D01*
X120566184Y-85509000D01*
X120733816Y-85509000D01*
X120898228Y-85541703D01*
G37*
G36*
X136138228Y-85541703D02*
G01*
X136293100Y-85605853D01*
X136432481Y-85698985D01*
X136551015Y-85817519D01*
X136644147Y-85956900D01*
X136708297Y-86111772D01*
X136741000Y-86276184D01*
X136741000Y-86443816D01*
X136708297Y-86608228D01*
X136644147Y-86763100D01*
X136551015Y-86902481D01*
X136432481Y-87021015D01*
X136293100Y-87114147D01*
X136138228Y-87178297D01*
X135973816Y-87211000D01*
X135806184Y-87211000D01*
X135641772Y-87178297D01*
X135486900Y-87114147D01*
X135347519Y-87021015D01*
X135228985Y-86902481D01*
X135135853Y-86763100D01*
X135071703Y-86608228D01*
X135039000Y-86443816D01*
X135039000Y-86276184D01*
X135071703Y-86111772D01*
X135135853Y-85956900D01*
X135228985Y-85817519D01*
X135347519Y-85698985D01*
X135486900Y-85605853D01*
X135641772Y-85541703D01*
X135806184Y-85509000D01*
X135973816Y-85509000D01*
X136138228Y-85541703D01*
G37*
G36*
X159498512Y-82923927D02*
G01*
X159647812Y-82953624D01*
X159811784Y-83021544D01*
X159959354Y-83120147D01*
X160084853Y-83245646D01*
X160183456Y-83393216D01*
X160251376Y-83557188D01*
X160286000Y-83731259D01*
X160286000Y-83908741D01*
X160251376Y-84082812D01*
X160183456Y-84246784D01*
X160084853Y-84394354D01*
X159959354Y-84519853D01*
X159811784Y-84618456D01*
X159647812Y-84686376D01*
X159498512Y-84716073D01*
X159473742Y-84721000D01*
X159296258Y-84721000D01*
X159271488Y-84716073D01*
X159122188Y-84686376D01*
X158958216Y-84618456D01*
X158810646Y-84519853D01*
X158685147Y-84394354D01*
X158586544Y-84246784D01*
X158518624Y-84082812D01*
X158484000Y-83908741D01*
X158484000Y-83731259D01*
X158518624Y-83557188D01*
X158586544Y-83393216D01*
X158685147Y-83245646D01*
X158810646Y-83120147D01*
X158958216Y-83021544D01*
X159122188Y-82953624D01*
X159271488Y-82923927D01*
X159296258Y-82919000D01*
X159473742Y-82919000D01*
X159498512Y-82923927D01*
G37*
G36*
X110603512Y-82923927D02*
G01*
X110752812Y-82953624D01*
X110916784Y-83021544D01*
X111064354Y-83120147D01*
X111189853Y-83245646D01*
X111288456Y-83393216D01*
X111356376Y-83557188D01*
X111391000Y-83731259D01*
X111391000Y-83908741D01*
X111356376Y-84082812D01*
X111288456Y-84246784D01*
X111189853Y-84394354D01*
X111064354Y-84519853D01*
X110916784Y-84618456D01*
X110752812Y-84686376D01*
X110603512Y-84716073D01*
X110578742Y-84721000D01*
X110401258Y-84721000D01*
X110376488Y-84716073D01*
X110227188Y-84686376D01*
X110063216Y-84618456D01*
X109915646Y-84519853D01*
X109790147Y-84394354D01*
X109691544Y-84246784D01*
X109623624Y-84082812D01*
X109589000Y-83908741D01*
X109589000Y-83731259D01*
X109623624Y-83557188D01*
X109691544Y-83393216D01*
X109790147Y-83245646D01*
X109915646Y-83120147D01*
X110063216Y-83021544D01*
X110227188Y-82953624D01*
X110376488Y-82923927D01*
X110401258Y-82919000D01*
X110578742Y-82919000D01*
X110603512Y-82923927D01*
G37*
G36*
X120898228Y-83001703D02*
G01*
X121053100Y-83065853D01*
X121192481Y-83158985D01*
X121311015Y-83277519D01*
X121404147Y-83416900D01*
X121468297Y-83571772D01*
X121501000Y-83736184D01*
X121501000Y-83903816D01*
X121468297Y-84068228D01*
X121404147Y-84223100D01*
X121311015Y-84362481D01*
X121192481Y-84481015D01*
X121053100Y-84574147D01*
X120898228Y-84638297D01*
X120733816Y-84671000D01*
X120566184Y-84671000D01*
X120401772Y-84638297D01*
X120246900Y-84574147D01*
X120107519Y-84481015D01*
X119988985Y-84362481D01*
X119895853Y-84223100D01*
X119831703Y-84068228D01*
X119799000Y-83903816D01*
X119799000Y-83736184D01*
X119831703Y-83571772D01*
X119895853Y-83416900D01*
X119988985Y-83277519D01*
X120107519Y-83158985D01*
X120246900Y-83065853D01*
X120401772Y-83001703D01*
X120566184Y-82969000D01*
X120733816Y-82969000D01*
X120898228Y-83001703D01*
G37*
G36*
X136138228Y-83001703D02*
G01*
X136293100Y-83065853D01*
X136432481Y-83158985D01*
X136551015Y-83277519D01*
X136644147Y-83416900D01*
X136708297Y-83571772D01*
X136741000Y-83736184D01*
X136741000Y-83903816D01*
X136708297Y-84068228D01*
X136644147Y-84223100D01*
X136551015Y-84362481D01*
X136432481Y-84481015D01*
X136293100Y-84574147D01*
X136138228Y-84638297D01*
X135973816Y-84671000D01*
X135806184Y-84671000D01*
X135641772Y-84638297D01*
X135486900Y-84574147D01*
X135347519Y-84481015D01*
X135228985Y-84362481D01*
X135135853Y-84223100D01*
X135071703Y-84068228D01*
X135039000Y-83903816D01*
X135039000Y-83736184D01*
X135071703Y-83571772D01*
X135135853Y-83416900D01*
X135228985Y-83277519D01*
X135347519Y-83158985D01*
X135486900Y-83065853D01*
X135641772Y-83001703D01*
X135806184Y-82969000D01*
X135973816Y-82969000D01*
X136138228Y-83001703D01*
G37*
G36*
X159498512Y-80383927D02*
G01*
X159647812Y-80413624D01*
X159811784Y-80481544D01*
X159959354Y-80580147D01*
X160084853Y-80705646D01*
X160183456Y-80853216D01*
X160251376Y-81017188D01*
X160286000Y-81191259D01*
X160286000Y-81368741D01*
X160251376Y-81542812D01*
X160183456Y-81706784D01*
X160084853Y-81854354D01*
X159959354Y-81979853D01*
X159811784Y-82078456D01*
X159647812Y-82146376D01*
X159498512Y-82176073D01*
X159473742Y-82181000D01*
X159296258Y-82181000D01*
X159271488Y-82176073D01*
X159122188Y-82146376D01*
X158958216Y-82078456D01*
X158810646Y-81979853D01*
X158685147Y-81854354D01*
X158586544Y-81706784D01*
X158518624Y-81542812D01*
X158484000Y-81368741D01*
X158484000Y-81191259D01*
X158518624Y-81017188D01*
X158586544Y-80853216D01*
X158685147Y-80705646D01*
X158810646Y-80580147D01*
X158958216Y-80481544D01*
X159122188Y-80413624D01*
X159271488Y-80383927D01*
X159296258Y-80379000D01*
X159473742Y-80379000D01*
X159498512Y-80383927D01*
G37*
G36*
X110603512Y-80383927D02*
G01*
X110752812Y-80413624D01*
X110916784Y-80481544D01*
X111064354Y-80580147D01*
X111189853Y-80705646D01*
X111288456Y-80853216D01*
X111356376Y-81017188D01*
X111391000Y-81191259D01*
X111391000Y-81368741D01*
X111356376Y-81542812D01*
X111288456Y-81706784D01*
X111189853Y-81854354D01*
X111064354Y-81979853D01*
X110916784Y-82078456D01*
X110752812Y-82146376D01*
X110603512Y-82176073D01*
X110578742Y-82181000D01*
X110401258Y-82181000D01*
X110376488Y-82176073D01*
X110227188Y-82146376D01*
X110063216Y-82078456D01*
X109915646Y-81979853D01*
X109790147Y-81854354D01*
X109691544Y-81706784D01*
X109623624Y-81542812D01*
X109589000Y-81368741D01*
X109589000Y-81191259D01*
X109623624Y-81017188D01*
X109691544Y-80853216D01*
X109790147Y-80705646D01*
X109915646Y-80580147D01*
X110063216Y-80481544D01*
X110227188Y-80413624D01*
X110376488Y-80383927D01*
X110401258Y-80379000D01*
X110578742Y-80379000D01*
X110603512Y-80383927D01*
G37*
G36*
X136138228Y-80461703D02*
G01*
X136293100Y-80525853D01*
X136432481Y-80618985D01*
X136551015Y-80737519D01*
X136644147Y-80876900D01*
X136708297Y-81031772D01*
X136741000Y-81196184D01*
X136741000Y-81363816D01*
X136708297Y-81528228D01*
X136644147Y-81683100D01*
X136551015Y-81822481D01*
X136432481Y-81941015D01*
X136293100Y-82034147D01*
X136138228Y-82098297D01*
X135973816Y-82131000D01*
X135806184Y-82131000D01*
X135641772Y-82098297D01*
X135486900Y-82034147D01*
X135347519Y-81941015D01*
X135228985Y-81822481D01*
X135135853Y-81683100D01*
X135071703Y-81528228D01*
X135039000Y-81363816D01*
X135039000Y-81196184D01*
X135071703Y-81031772D01*
X135135853Y-80876900D01*
X135228985Y-80737519D01*
X135347519Y-80618985D01*
X135486900Y-80525853D01*
X135641772Y-80461703D01*
X135806184Y-80429000D01*
X135973816Y-80429000D01*
X136138228Y-80461703D01*
G37*
G36*
X120898228Y-80461703D02*
G01*
X121053100Y-80525853D01*
X121192481Y-80618985D01*
X121311015Y-80737519D01*
X121404147Y-80876900D01*
X121468297Y-81031772D01*
X121501000Y-81196184D01*
X121501000Y-81363816D01*
X121468297Y-81528228D01*
X121404147Y-81683100D01*
X121311015Y-81822481D01*
X121192481Y-81941015D01*
X121053100Y-82034147D01*
X120898228Y-82098297D01*
X120733816Y-82131000D01*
X120566184Y-82131000D01*
X120401772Y-82098297D01*
X120246900Y-82034147D01*
X120107519Y-81941015D01*
X119988985Y-81822481D01*
X119895853Y-81683100D01*
X119831703Y-81528228D01*
X119799000Y-81363816D01*
X119799000Y-81196184D01*
X119831703Y-81031772D01*
X119895853Y-80876900D01*
X119988985Y-80737519D01*
X120107519Y-80618985D01*
X120246900Y-80525853D01*
X120401772Y-80461703D01*
X120566184Y-80429000D01*
X120733816Y-80429000D01*
X120898228Y-80461703D01*
G37*
G36*
X100282065Y-78374502D02*
G01*
X100431890Y-78404304D01*
X100714154Y-78521221D01*
X100968185Y-78690959D01*
X101184221Y-78906995D01*
X101353959Y-79161026D01*
X101470876Y-79443290D01*
X101530480Y-79742940D01*
X101530480Y-80048460D01*
X101470876Y-80348110D01*
X101353959Y-80630374D01*
X101184221Y-80884405D01*
X100968185Y-81100441D01*
X100714154Y-81270179D01*
X100431890Y-81387096D01*
X100282065Y-81416898D01*
X100132241Y-81446700D01*
X99826719Y-81446700D01*
X99676895Y-81416898D01*
X99527070Y-81387096D01*
X99244806Y-81270179D01*
X98990775Y-81100441D01*
X98774739Y-80884405D01*
X98605001Y-80630374D01*
X98488084Y-80348110D01*
X98428480Y-80048460D01*
X98428480Y-79742940D01*
X98488084Y-79443290D01*
X98605001Y-79161026D01*
X98774739Y-78906995D01*
X98990775Y-78690959D01*
X99244806Y-78521221D01*
X99527070Y-78404304D01*
X99676895Y-78374502D01*
X99826719Y-78344700D01*
X100132241Y-78344700D01*
X100282065Y-78374502D01*
G37*
G36*
X25283485Y-78374502D02*
G01*
X25433310Y-78404304D01*
X25715574Y-78521221D01*
X25969605Y-78690959D01*
X26185641Y-78906995D01*
X26355379Y-79161026D01*
X26472296Y-79443290D01*
X26531900Y-79742940D01*
X26531900Y-80048460D01*
X26472296Y-80348110D01*
X26355379Y-80630374D01*
X26185641Y-80884405D01*
X25969605Y-81100441D01*
X25715574Y-81270179D01*
X25433310Y-81387096D01*
X25283485Y-81416898D01*
X25133661Y-81446700D01*
X24828139Y-81446700D01*
X24678315Y-81416898D01*
X24528490Y-81387096D01*
X24246226Y-81270179D01*
X23992195Y-81100441D01*
X23776159Y-80884405D01*
X23606421Y-80630374D01*
X23489504Y-80348110D01*
X23429900Y-80048460D01*
X23429900Y-79742940D01*
X23489504Y-79443290D01*
X23606421Y-79161026D01*
X23776159Y-78906995D01*
X23992195Y-78690959D01*
X24246226Y-78521221D01*
X24528490Y-78404304D01*
X24678315Y-78374502D01*
X24828139Y-78344700D01*
X25133661Y-78344700D01*
X25283485Y-78374502D01*
G37*
G36*
X159498512Y-77843927D02*
G01*
X159647812Y-77873624D01*
X159811784Y-77941544D01*
X159959354Y-78040147D01*
X160084853Y-78165646D01*
X160183456Y-78313216D01*
X160251376Y-78477188D01*
X160286000Y-78651259D01*
X160286000Y-78828741D01*
X160251376Y-79002812D01*
X160183456Y-79166784D01*
X160084853Y-79314354D01*
X159959354Y-79439853D01*
X159811784Y-79538456D01*
X159647812Y-79606376D01*
X159498512Y-79636073D01*
X159473742Y-79641000D01*
X159296258Y-79641000D01*
X159271488Y-79636073D01*
X159122188Y-79606376D01*
X158958216Y-79538456D01*
X158810646Y-79439853D01*
X158685147Y-79314354D01*
X158586544Y-79166784D01*
X158518624Y-79002812D01*
X158484000Y-78828741D01*
X158484000Y-78651259D01*
X158518624Y-78477188D01*
X158586544Y-78313216D01*
X158685147Y-78165646D01*
X158810646Y-78040147D01*
X158958216Y-77941544D01*
X159122188Y-77873624D01*
X159271488Y-77843927D01*
X159296258Y-77839000D01*
X159473742Y-77839000D01*
X159498512Y-77843927D01*
G37*
G36*
X110603512Y-77843927D02*
G01*
X110752812Y-77873624D01*
X110916784Y-77941544D01*
X111064354Y-78040147D01*
X111189853Y-78165646D01*
X111288456Y-78313216D01*
X111356376Y-78477188D01*
X111391000Y-78651259D01*
X111391000Y-78828741D01*
X111356376Y-79002812D01*
X111288456Y-79166784D01*
X111189853Y-79314354D01*
X111064354Y-79439853D01*
X110916784Y-79538456D01*
X110752812Y-79606376D01*
X110603512Y-79636073D01*
X110578742Y-79641000D01*
X110401258Y-79641000D01*
X110376488Y-79636073D01*
X110227188Y-79606376D01*
X110063216Y-79538456D01*
X109915646Y-79439853D01*
X109790147Y-79314354D01*
X109691544Y-79166784D01*
X109623624Y-79002812D01*
X109589000Y-78828741D01*
X109589000Y-78651259D01*
X109623624Y-78477188D01*
X109691544Y-78313216D01*
X109790147Y-78165646D01*
X109915646Y-78040147D01*
X110063216Y-77941544D01*
X110227188Y-77873624D01*
X110376488Y-77843927D01*
X110401258Y-77839000D01*
X110578742Y-77839000D01*
X110603512Y-77843927D01*
G37*
G36*
X136138228Y-77921703D02*
G01*
X136293100Y-77985853D01*
X136432481Y-78078985D01*
X136551015Y-78197519D01*
X136644147Y-78336900D01*
X136708297Y-78491772D01*
X136741000Y-78656184D01*
X136741000Y-78823816D01*
X136708297Y-78988228D01*
X136644147Y-79143100D01*
X136551015Y-79282481D01*
X136432481Y-79401015D01*
X136293100Y-79494147D01*
X136138228Y-79558297D01*
X135973816Y-79591000D01*
X135806184Y-79591000D01*
X135641772Y-79558297D01*
X135486900Y-79494147D01*
X135347519Y-79401015D01*
X135228985Y-79282481D01*
X135135853Y-79143100D01*
X135071703Y-78988228D01*
X135039000Y-78823816D01*
X135039000Y-78656184D01*
X135071703Y-78491772D01*
X135135853Y-78336900D01*
X135228985Y-78197519D01*
X135347519Y-78078985D01*
X135486900Y-77985853D01*
X135641772Y-77921703D01*
X135806184Y-77889000D01*
X135973816Y-77889000D01*
X136138228Y-77921703D01*
G37*
G36*
X120898228Y-77921703D02*
G01*
X121053100Y-77985853D01*
X121192481Y-78078985D01*
X121311015Y-78197519D01*
X121404147Y-78336900D01*
X121468297Y-78491772D01*
X121501000Y-78656184D01*
X121501000Y-78823816D01*
X121468297Y-78988228D01*
X121404147Y-79143100D01*
X121311015Y-79282481D01*
X121192481Y-79401015D01*
X121053100Y-79494147D01*
X120898228Y-79558297D01*
X120733816Y-79591000D01*
X120566184Y-79591000D01*
X120401772Y-79558297D01*
X120246900Y-79494147D01*
X120107519Y-79401015D01*
X119988985Y-79282481D01*
X119895853Y-79143100D01*
X119831703Y-78988228D01*
X119799000Y-78823816D01*
X119799000Y-78656184D01*
X119831703Y-78491772D01*
X119895853Y-78336900D01*
X119988985Y-78197519D01*
X120107519Y-78078985D01*
X120246900Y-77985853D01*
X120401772Y-77921703D01*
X120566184Y-77889000D01*
X120733816Y-77889000D01*
X120898228Y-77921703D01*
G37*
G36*
X110603512Y-75303927D02*
G01*
X110752812Y-75333624D01*
X110916784Y-75401544D01*
X111064354Y-75500147D01*
X111189853Y-75625646D01*
X111288456Y-75773216D01*
X111356376Y-75937188D01*
X111391000Y-76111259D01*
X111391000Y-76288741D01*
X111356376Y-76462812D01*
X111288456Y-76626784D01*
X111189853Y-76774354D01*
X111064354Y-76899853D01*
X110916784Y-76998456D01*
X110752812Y-77066376D01*
X110603512Y-77096073D01*
X110578742Y-77101000D01*
X110401258Y-77101000D01*
X110376488Y-77096073D01*
X110227188Y-77066376D01*
X110063216Y-76998456D01*
X109915646Y-76899853D01*
X109790147Y-76774354D01*
X109691544Y-76626784D01*
X109623624Y-76462812D01*
X109589000Y-76288741D01*
X109589000Y-76111259D01*
X109623624Y-75937188D01*
X109691544Y-75773216D01*
X109790147Y-75625646D01*
X109915646Y-75500147D01*
X110063216Y-75401544D01*
X110227188Y-75333624D01*
X110376488Y-75303927D01*
X110401258Y-75299000D01*
X110578742Y-75299000D01*
X110603512Y-75303927D01*
G37*
G36*
X160286000Y-77101000D02*
G01*
X158484000Y-77101000D01*
X158484000Y-75299000D01*
X160286000Y-75299000D01*
X160286000Y-77101000D01*
G37*
G36*
X136138228Y-75381703D02*
G01*
X136293100Y-75445853D01*
X136432481Y-75538985D01*
X136551015Y-75657519D01*
X136644147Y-75796900D01*
X136708297Y-75951772D01*
X136741000Y-76116184D01*
X136741000Y-76283816D01*
X136708297Y-76448228D01*
X136644147Y-76603100D01*
X136551015Y-76742481D01*
X136432481Y-76861015D01*
X136293100Y-76954147D01*
X136138228Y-77018297D01*
X135973816Y-77051000D01*
X135806184Y-77051000D01*
X135641772Y-77018297D01*
X135486900Y-76954147D01*
X135347519Y-76861015D01*
X135228985Y-76742481D01*
X135135853Y-76603100D01*
X135071703Y-76448228D01*
X135039000Y-76283816D01*
X135039000Y-76116184D01*
X135071703Y-75951772D01*
X135135853Y-75796900D01*
X135228985Y-75657519D01*
X135347519Y-75538985D01*
X135486900Y-75445853D01*
X135641772Y-75381703D01*
X135806184Y-75349000D01*
X135973816Y-75349000D01*
X136138228Y-75381703D01*
G37*
G36*
X120898228Y-75381703D02*
G01*
X121053100Y-75445853D01*
X121192481Y-75538985D01*
X121311015Y-75657519D01*
X121404147Y-75796900D01*
X121468297Y-75951772D01*
X121501000Y-76116184D01*
X121501000Y-76283816D01*
X121468297Y-76448228D01*
X121404147Y-76603100D01*
X121311015Y-76742481D01*
X121192481Y-76861015D01*
X121053100Y-76954147D01*
X120898228Y-77018297D01*
X120733816Y-77051000D01*
X120566184Y-77051000D01*
X120401772Y-77018297D01*
X120246900Y-76954147D01*
X120107519Y-76861015D01*
X119988985Y-76742481D01*
X119895853Y-76603100D01*
X119831703Y-76448228D01*
X119799000Y-76283816D01*
X119799000Y-76116184D01*
X119831703Y-75951772D01*
X119895853Y-75796900D01*
X119988985Y-75657519D01*
X120107519Y-75538985D01*
X120246900Y-75445853D01*
X120401772Y-75381703D01*
X120566184Y-75349000D01*
X120733816Y-75349000D01*
X120898228Y-75381703D01*
G37*
G36*
X110603512Y-72763927D02*
G01*
X110752812Y-72793624D01*
X110916784Y-72861544D01*
X111064354Y-72960147D01*
X111189853Y-73085646D01*
X111288456Y-73233216D01*
X111356376Y-73397188D01*
X111391000Y-73571259D01*
X111391000Y-73748741D01*
X111356376Y-73922812D01*
X111288456Y-74086784D01*
X111189853Y-74234354D01*
X111064354Y-74359853D01*
X110916784Y-74458456D01*
X110752812Y-74526376D01*
X110603512Y-74556073D01*
X110578742Y-74561000D01*
X110401258Y-74561000D01*
X110376488Y-74556073D01*
X110227188Y-74526376D01*
X110063216Y-74458456D01*
X109915646Y-74359853D01*
X109790147Y-74234354D01*
X109691544Y-74086784D01*
X109623624Y-73922812D01*
X109589000Y-73748741D01*
X109589000Y-73571259D01*
X109623624Y-73397188D01*
X109691544Y-73233216D01*
X109790147Y-73085646D01*
X109915646Y-72960147D01*
X110063216Y-72861544D01*
X110227188Y-72793624D01*
X110376488Y-72763927D01*
X110401258Y-72759000D01*
X110578742Y-72759000D01*
X110603512Y-72763927D01*
G37*
G36*
X136138228Y-72841703D02*
G01*
X136293100Y-72905853D01*
X136432481Y-72998985D01*
X136551015Y-73117519D01*
X136644147Y-73256900D01*
X136708297Y-73411772D01*
X136741000Y-73576184D01*
X136741000Y-73743816D01*
X136708297Y-73908228D01*
X136644147Y-74063100D01*
X136551015Y-74202481D01*
X136432481Y-74321015D01*
X136293100Y-74414147D01*
X136138228Y-74478297D01*
X135973816Y-74511000D01*
X135806184Y-74511000D01*
X135641772Y-74478297D01*
X135486900Y-74414147D01*
X135347519Y-74321015D01*
X135228985Y-74202481D01*
X135135853Y-74063100D01*
X135071703Y-73908228D01*
X135039000Y-73743816D01*
X135039000Y-73576184D01*
X135071703Y-73411772D01*
X135135853Y-73256900D01*
X135228985Y-73117519D01*
X135347519Y-72998985D01*
X135486900Y-72905853D01*
X135641772Y-72841703D01*
X135806184Y-72809000D01*
X135973816Y-72809000D01*
X136138228Y-72841703D01*
G37*
G36*
X120898228Y-72841703D02*
G01*
X121053100Y-72905853D01*
X121192481Y-72998985D01*
X121311015Y-73117519D01*
X121404147Y-73256900D01*
X121468297Y-73411772D01*
X121501000Y-73576184D01*
X121501000Y-73743816D01*
X121468297Y-73908228D01*
X121404147Y-74063100D01*
X121311015Y-74202481D01*
X121192481Y-74321015D01*
X121053100Y-74414147D01*
X120898228Y-74478297D01*
X120733816Y-74511000D01*
X120566184Y-74511000D01*
X120401772Y-74478297D01*
X120246900Y-74414147D01*
X120107519Y-74321015D01*
X119988985Y-74202481D01*
X119895853Y-74063100D01*
X119831703Y-73908228D01*
X119799000Y-73743816D01*
X119799000Y-73576184D01*
X119831703Y-73411772D01*
X119895853Y-73256900D01*
X119988985Y-73117519D01*
X120107519Y-72998985D01*
X120246900Y-72905853D01*
X120401772Y-72841703D01*
X120566184Y-72809000D01*
X120733816Y-72809000D01*
X120898228Y-72841703D01*
G37*
G36*
X159498512Y-70223927D02*
G01*
X159647812Y-70253624D01*
X159811784Y-70321544D01*
X159959354Y-70420147D01*
X160084853Y-70545646D01*
X160183456Y-70693216D01*
X160251376Y-70857188D01*
X160286000Y-71031259D01*
X160286000Y-71208741D01*
X160251376Y-71382812D01*
X160183456Y-71546784D01*
X160084853Y-71694354D01*
X159959354Y-71819853D01*
X159811784Y-71918456D01*
X159647812Y-71986376D01*
X159498512Y-72016073D01*
X159473742Y-72021000D01*
X159296258Y-72021000D01*
X159271488Y-72016073D01*
X159122188Y-71986376D01*
X158958216Y-71918456D01*
X158810646Y-71819853D01*
X158685147Y-71694354D01*
X158586544Y-71546784D01*
X158518624Y-71382812D01*
X158484000Y-71208741D01*
X158484000Y-71031259D01*
X158518624Y-70857188D01*
X158586544Y-70693216D01*
X158685147Y-70545646D01*
X158810646Y-70420147D01*
X158958216Y-70321544D01*
X159122188Y-70253624D01*
X159271488Y-70223927D01*
X159296258Y-70219000D01*
X159473742Y-70219000D01*
X159498512Y-70223927D01*
G37*
G36*
X110603512Y-70223927D02*
G01*
X110752812Y-70253624D01*
X110916784Y-70321544D01*
X111064354Y-70420147D01*
X111189853Y-70545646D01*
X111288456Y-70693216D01*
X111356376Y-70857188D01*
X111391000Y-71031259D01*
X111391000Y-71208741D01*
X111356376Y-71382812D01*
X111288456Y-71546784D01*
X111189853Y-71694354D01*
X111064354Y-71819853D01*
X110916784Y-71918456D01*
X110752812Y-71986376D01*
X110603512Y-72016073D01*
X110578742Y-72021000D01*
X110401258Y-72021000D01*
X110376488Y-72016073D01*
X110227188Y-71986376D01*
X110063216Y-71918456D01*
X109915646Y-71819853D01*
X109790147Y-71694354D01*
X109691544Y-71546784D01*
X109623624Y-71382812D01*
X109589000Y-71208741D01*
X109589000Y-71031259D01*
X109623624Y-70857188D01*
X109691544Y-70693216D01*
X109790147Y-70545646D01*
X109915646Y-70420147D01*
X110063216Y-70321544D01*
X110227188Y-70253624D01*
X110376488Y-70223927D01*
X110401258Y-70219000D01*
X110578742Y-70219000D01*
X110603512Y-70223927D01*
G37*
G36*
X120898228Y-70301703D02*
G01*
X121053100Y-70365853D01*
X121192481Y-70458985D01*
X121311015Y-70577519D01*
X121404147Y-70716900D01*
X121468297Y-70871772D01*
X121501000Y-71036184D01*
X121501000Y-71203816D01*
X121468297Y-71368228D01*
X121404147Y-71523100D01*
X121311015Y-71662481D01*
X121192481Y-71781015D01*
X121053100Y-71874147D01*
X120898228Y-71938297D01*
X120733816Y-71971000D01*
X120566184Y-71971000D01*
X120401772Y-71938297D01*
X120246900Y-71874147D01*
X120107519Y-71781015D01*
X119988985Y-71662481D01*
X119895853Y-71523100D01*
X119831703Y-71368228D01*
X119799000Y-71203816D01*
X119799000Y-71036184D01*
X119831703Y-70871772D01*
X119895853Y-70716900D01*
X119988985Y-70577519D01*
X120107519Y-70458985D01*
X120246900Y-70365853D01*
X120401772Y-70301703D01*
X120566184Y-70269000D01*
X120733816Y-70269000D01*
X120898228Y-70301703D01*
G37*
G36*
X136138228Y-70301703D02*
G01*
X136293100Y-70365853D01*
X136432481Y-70458985D01*
X136551015Y-70577519D01*
X136644147Y-70716900D01*
X136708297Y-70871772D01*
X136741000Y-71036184D01*
X136741000Y-71203816D01*
X136708297Y-71368228D01*
X136644147Y-71523100D01*
X136551015Y-71662481D01*
X136432481Y-71781015D01*
X136293100Y-71874147D01*
X136138228Y-71938297D01*
X135973816Y-71971000D01*
X135806184Y-71971000D01*
X135641772Y-71938297D01*
X135486900Y-71874147D01*
X135347519Y-71781015D01*
X135228985Y-71662481D01*
X135135853Y-71523100D01*
X135071703Y-71368228D01*
X135039000Y-71203816D01*
X135039000Y-71036184D01*
X135071703Y-70871772D01*
X135135853Y-70716900D01*
X135228985Y-70577519D01*
X135347519Y-70458985D01*
X135486900Y-70365853D01*
X135641772Y-70301703D01*
X135806184Y-70269000D01*
X135973816Y-70269000D01*
X136138228Y-70301703D01*
G37*
G36*
X159498512Y-67683927D02*
G01*
X159647812Y-67713624D01*
X159811784Y-67781544D01*
X159959354Y-67880147D01*
X160084853Y-68005646D01*
X160183456Y-68153216D01*
X160251376Y-68317188D01*
X160286000Y-68491259D01*
X160286000Y-68668741D01*
X160251376Y-68842812D01*
X160183456Y-69006784D01*
X160084853Y-69154354D01*
X159959354Y-69279853D01*
X159811784Y-69378456D01*
X159647812Y-69446376D01*
X159498512Y-69476073D01*
X159473742Y-69481000D01*
X159296258Y-69481000D01*
X159271488Y-69476073D01*
X159122188Y-69446376D01*
X158958216Y-69378456D01*
X158810646Y-69279853D01*
X158685147Y-69154354D01*
X158586544Y-69006784D01*
X158518624Y-68842812D01*
X158484000Y-68668741D01*
X158484000Y-68491259D01*
X158518624Y-68317188D01*
X158586544Y-68153216D01*
X158685147Y-68005646D01*
X158810646Y-67880147D01*
X158958216Y-67781544D01*
X159122188Y-67713624D01*
X159271488Y-67683927D01*
X159296258Y-67679000D01*
X159473742Y-67679000D01*
X159498512Y-67683927D01*
G37*
G36*
X110603512Y-67683927D02*
G01*
X110752812Y-67713624D01*
X110916784Y-67781544D01*
X111064354Y-67880147D01*
X111189853Y-68005646D01*
X111288456Y-68153216D01*
X111356376Y-68317188D01*
X111391000Y-68491259D01*
X111391000Y-68668741D01*
X111356376Y-68842812D01*
X111288456Y-69006784D01*
X111189853Y-69154354D01*
X111064354Y-69279853D01*
X110916784Y-69378456D01*
X110752812Y-69446376D01*
X110603512Y-69476073D01*
X110578742Y-69481000D01*
X110401258Y-69481000D01*
X110376488Y-69476073D01*
X110227188Y-69446376D01*
X110063216Y-69378456D01*
X109915646Y-69279853D01*
X109790147Y-69154354D01*
X109691544Y-69006784D01*
X109623624Y-68842812D01*
X109589000Y-68668741D01*
X109589000Y-68491259D01*
X109623624Y-68317188D01*
X109691544Y-68153216D01*
X109790147Y-68005646D01*
X109915646Y-67880147D01*
X110063216Y-67781544D01*
X110227188Y-67713624D01*
X110376488Y-67683927D01*
X110401258Y-67679000D01*
X110578742Y-67679000D01*
X110603512Y-67683927D01*
G37*
G36*
X120898228Y-67761703D02*
G01*
X121053100Y-67825853D01*
X121192481Y-67918985D01*
X121311015Y-68037519D01*
X121404147Y-68176900D01*
X121468297Y-68331772D01*
X121501000Y-68496184D01*
X121501000Y-68663816D01*
X121468297Y-68828228D01*
X121404147Y-68983100D01*
X121311015Y-69122481D01*
X121192481Y-69241015D01*
X121053100Y-69334147D01*
X120898228Y-69398297D01*
X120733816Y-69431000D01*
X120566184Y-69431000D01*
X120401772Y-69398297D01*
X120246900Y-69334147D01*
X120107519Y-69241015D01*
X119988985Y-69122481D01*
X119895853Y-68983100D01*
X119831703Y-68828228D01*
X119799000Y-68663816D01*
X119799000Y-68496184D01*
X119831703Y-68331772D01*
X119895853Y-68176900D01*
X119988985Y-68037519D01*
X120107519Y-67918985D01*
X120246900Y-67825853D01*
X120401772Y-67761703D01*
X120566184Y-67729000D01*
X120733816Y-67729000D01*
X120898228Y-67761703D01*
G37*
G36*
X136138228Y-67761703D02*
G01*
X136293100Y-67825853D01*
X136432481Y-67918985D01*
X136551015Y-68037519D01*
X136644147Y-68176900D01*
X136708297Y-68331772D01*
X136741000Y-68496184D01*
X136741000Y-68663816D01*
X136708297Y-68828228D01*
X136644147Y-68983100D01*
X136551015Y-69122481D01*
X136432481Y-69241015D01*
X136293100Y-69334147D01*
X136138228Y-69398297D01*
X135973816Y-69431000D01*
X135806184Y-69431000D01*
X135641772Y-69398297D01*
X135486900Y-69334147D01*
X135347519Y-69241015D01*
X135228985Y-69122481D01*
X135135853Y-68983100D01*
X135071703Y-68828228D01*
X135039000Y-68663816D01*
X135039000Y-68496184D01*
X135071703Y-68331772D01*
X135135853Y-68176900D01*
X135228985Y-68037519D01*
X135347519Y-67918985D01*
X135486900Y-67825853D01*
X135641772Y-67761703D01*
X135806184Y-67729000D01*
X135973816Y-67729000D01*
X136138228Y-67761703D01*
G37*
G36*
X110603512Y-65143927D02*
G01*
X110752812Y-65173624D01*
X110916784Y-65241544D01*
X111064354Y-65340147D01*
X111189853Y-65465646D01*
X111288456Y-65613216D01*
X111356376Y-65777188D01*
X111391000Y-65951259D01*
X111391000Y-66128741D01*
X111356376Y-66302812D01*
X111288456Y-66466784D01*
X111189853Y-66614354D01*
X111064354Y-66739853D01*
X110916784Y-66838456D01*
X110752812Y-66906376D01*
X110603512Y-66936073D01*
X110578742Y-66941000D01*
X110401258Y-66941000D01*
X110376488Y-66936073D01*
X110227188Y-66906376D01*
X110063216Y-66838456D01*
X109915646Y-66739853D01*
X109790147Y-66614354D01*
X109691544Y-66466784D01*
X109623624Y-66302812D01*
X109589000Y-66128741D01*
X109589000Y-65951259D01*
X109623624Y-65777188D01*
X109691544Y-65613216D01*
X109790147Y-65465646D01*
X109915646Y-65340147D01*
X110063216Y-65241544D01*
X110227188Y-65173624D01*
X110376488Y-65143927D01*
X110401258Y-65139000D01*
X110578742Y-65139000D01*
X110603512Y-65143927D01*
G37*
G36*
X159498512Y-65143927D02*
G01*
X159647812Y-65173624D01*
X159811784Y-65241544D01*
X159959354Y-65340147D01*
X160084853Y-65465646D01*
X160183456Y-65613216D01*
X160251376Y-65777188D01*
X160286000Y-65951259D01*
X160286000Y-66128741D01*
X160251376Y-66302812D01*
X160183456Y-66466784D01*
X160084853Y-66614354D01*
X159959354Y-66739853D01*
X159811784Y-66838456D01*
X159647812Y-66906376D01*
X159498512Y-66936073D01*
X159473742Y-66941000D01*
X159296258Y-66941000D01*
X159271488Y-66936073D01*
X159122188Y-66906376D01*
X158958216Y-66838456D01*
X158810646Y-66739853D01*
X158685147Y-66614354D01*
X158586544Y-66466784D01*
X158518624Y-66302812D01*
X158484000Y-66128741D01*
X158484000Y-65951259D01*
X158518624Y-65777188D01*
X158586544Y-65613216D01*
X158685147Y-65465646D01*
X158810646Y-65340147D01*
X158958216Y-65241544D01*
X159122188Y-65173624D01*
X159271488Y-65143927D01*
X159296258Y-65139000D01*
X159473742Y-65139000D01*
X159498512Y-65143927D01*
G37*
G36*
X136138228Y-65221703D02*
G01*
X136293100Y-65285853D01*
X136432481Y-65378985D01*
X136551015Y-65497519D01*
X136644147Y-65636900D01*
X136708297Y-65791772D01*
X136741000Y-65956184D01*
X136741000Y-66123816D01*
X136708297Y-66288228D01*
X136644147Y-66443100D01*
X136551015Y-66582481D01*
X136432481Y-66701015D01*
X136293100Y-66794147D01*
X136138228Y-66858297D01*
X135973816Y-66891000D01*
X135806184Y-66891000D01*
X135641772Y-66858297D01*
X135486900Y-66794147D01*
X135347519Y-66701015D01*
X135228985Y-66582481D01*
X135135853Y-66443100D01*
X135071703Y-66288228D01*
X135039000Y-66123816D01*
X135039000Y-65956184D01*
X135071703Y-65791772D01*
X135135853Y-65636900D01*
X135228985Y-65497519D01*
X135347519Y-65378985D01*
X135486900Y-65285853D01*
X135641772Y-65221703D01*
X135806184Y-65189000D01*
X135973816Y-65189000D01*
X136138228Y-65221703D01*
G37*
G36*
X120898228Y-65221703D02*
G01*
X121053100Y-65285853D01*
X121192481Y-65378985D01*
X121311015Y-65497519D01*
X121404147Y-65636900D01*
X121468297Y-65791772D01*
X121501000Y-65956184D01*
X121501000Y-66123816D01*
X121468297Y-66288228D01*
X121404147Y-66443100D01*
X121311015Y-66582481D01*
X121192481Y-66701015D01*
X121053100Y-66794147D01*
X120898228Y-66858297D01*
X120733816Y-66891000D01*
X120566184Y-66891000D01*
X120401772Y-66858297D01*
X120246900Y-66794147D01*
X120107519Y-66701015D01*
X119988985Y-66582481D01*
X119895853Y-66443100D01*
X119831703Y-66288228D01*
X119799000Y-66123816D01*
X119799000Y-65956184D01*
X119831703Y-65791772D01*
X119895853Y-65636900D01*
X119988985Y-65497519D01*
X120107519Y-65378985D01*
X120246900Y-65285853D01*
X120401772Y-65221703D01*
X120566184Y-65189000D01*
X120733816Y-65189000D01*
X120898228Y-65221703D01*
G37*
G36*
X159498512Y-62603927D02*
G01*
X159647812Y-62633624D01*
X159811784Y-62701544D01*
X159959354Y-62800147D01*
X160084853Y-62925646D01*
X160183456Y-63073216D01*
X160251376Y-63237188D01*
X160286000Y-63411259D01*
X160286000Y-63588741D01*
X160251376Y-63762812D01*
X160183456Y-63926784D01*
X160084853Y-64074354D01*
X159959354Y-64199853D01*
X159811784Y-64298456D01*
X159647812Y-64366376D01*
X159498512Y-64396073D01*
X159473742Y-64401000D01*
X159296258Y-64401000D01*
X159271488Y-64396073D01*
X159122188Y-64366376D01*
X158958216Y-64298456D01*
X158810646Y-64199853D01*
X158685147Y-64074354D01*
X158586544Y-63926784D01*
X158518624Y-63762812D01*
X158484000Y-63588741D01*
X158484000Y-63411259D01*
X158518624Y-63237188D01*
X158586544Y-63073216D01*
X158685147Y-62925646D01*
X158810646Y-62800147D01*
X158958216Y-62701544D01*
X159122188Y-62633624D01*
X159271488Y-62603927D01*
X159296258Y-62599000D01*
X159473742Y-62599000D01*
X159498512Y-62603927D01*
G37*
G36*
X110603512Y-62603927D02*
G01*
X110752812Y-62633624D01*
X110916784Y-62701544D01*
X111064354Y-62800147D01*
X111189853Y-62925646D01*
X111288456Y-63073216D01*
X111356376Y-63237188D01*
X111391000Y-63411259D01*
X111391000Y-63588741D01*
X111356376Y-63762812D01*
X111288456Y-63926784D01*
X111189853Y-64074354D01*
X111064354Y-64199853D01*
X110916784Y-64298456D01*
X110752812Y-64366376D01*
X110603512Y-64396073D01*
X110578742Y-64401000D01*
X110401258Y-64401000D01*
X110376488Y-64396073D01*
X110227188Y-64366376D01*
X110063216Y-64298456D01*
X109915646Y-64199853D01*
X109790147Y-64074354D01*
X109691544Y-63926784D01*
X109623624Y-63762812D01*
X109589000Y-63588741D01*
X109589000Y-63411259D01*
X109623624Y-63237188D01*
X109691544Y-63073216D01*
X109790147Y-62925646D01*
X109915646Y-62800147D01*
X110063216Y-62701544D01*
X110227188Y-62633624D01*
X110376488Y-62603927D01*
X110401258Y-62599000D01*
X110578742Y-62599000D01*
X110603512Y-62603927D01*
G37*
G36*
X136138228Y-62681703D02*
G01*
X136293100Y-62745853D01*
X136432481Y-62838985D01*
X136551015Y-62957519D01*
X136644147Y-63096900D01*
X136708297Y-63251772D01*
X136741000Y-63416184D01*
X136741000Y-63583816D01*
X136708297Y-63748228D01*
X136644147Y-63903100D01*
X136551015Y-64042481D01*
X136432481Y-64161015D01*
X136293100Y-64254147D01*
X136138228Y-64318297D01*
X135973816Y-64351000D01*
X135806184Y-64351000D01*
X135641772Y-64318297D01*
X135486900Y-64254147D01*
X135347519Y-64161015D01*
X135228985Y-64042481D01*
X135135853Y-63903100D01*
X135071703Y-63748228D01*
X135039000Y-63583816D01*
X135039000Y-63416184D01*
X135071703Y-63251772D01*
X135135853Y-63096900D01*
X135228985Y-62957519D01*
X135347519Y-62838985D01*
X135486900Y-62745853D01*
X135641772Y-62681703D01*
X135806184Y-62649000D01*
X135973816Y-62649000D01*
X136138228Y-62681703D01*
G37*
G36*
X120898228Y-62681703D02*
G01*
X121053100Y-62745853D01*
X121192481Y-62838985D01*
X121311015Y-62957519D01*
X121404147Y-63096900D01*
X121468297Y-63251772D01*
X121501000Y-63416184D01*
X121501000Y-63583816D01*
X121468297Y-63748228D01*
X121404147Y-63903100D01*
X121311015Y-64042481D01*
X121192481Y-64161015D01*
X121053100Y-64254147D01*
X120898228Y-64318297D01*
X120733816Y-64351000D01*
X120566184Y-64351000D01*
X120401772Y-64318297D01*
X120246900Y-64254147D01*
X120107519Y-64161015D01*
X119988985Y-64042481D01*
X119895853Y-63903100D01*
X119831703Y-63748228D01*
X119799000Y-63583816D01*
X119799000Y-63416184D01*
X119831703Y-63251772D01*
X119895853Y-63096900D01*
X119988985Y-62957519D01*
X120107519Y-62838985D01*
X120246900Y-62745853D01*
X120401772Y-62681703D01*
X120566184Y-62649000D01*
X120733816Y-62649000D01*
X120898228Y-62681703D01*
G37*
G36*
X110603512Y-60063927D02*
G01*
X110752812Y-60093624D01*
X110916784Y-60161544D01*
X111064354Y-60260147D01*
X111189853Y-60385646D01*
X111288456Y-60533216D01*
X111356376Y-60697188D01*
X111391000Y-60871259D01*
X111391000Y-61048741D01*
X111356376Y-61222812D01*
X111288456Y-61386784D01*
X111189853Y-61534354D01*
X111064354Y-61659853D01*
X110916784Y-61758456D01*
X110752812Y-61826376D01*
X110603512Y-61856073D01*
X110578742Y-61861000D01*
X110401258Y-61861000D01*
X110376488Y-61856073D01*
X110227188Y-61826376D01*
X110063216Y-61758456D01*
X109915646Y-61659853D01*
X109790147Y-61534354D01*
X109691544Y-61386784D01*
X109623624Y-61222812D01*
X109589000Y-61048741D01*
X109589000Y-60871259D01*
X109623624Y-60697188D01*
X109691544Y-60533216D01*
X109790147Y-60385646D01*
X109915646Y-60260147D01*
X110063216Y-60161544D01*
X110227188Y-60093624D01*
X110376488Y-60063927D01*
X110401258Y-60059000D01*
X110578742Y-60059000D01*
X110603512Y-60063927D01*
G37*
G36*
X160286000Y-61861000D02*
G01*
X158484000Y-61861000D01*
X158484000Y-60059000D01*
X160286000Y-60059000D01*
X160286000Y-61861000D01*
G37*
G36*
X120898228Y-60141703D02*
G01*
X121053100Y-60205853D01*
X121192481Y-60298985D01*
X121311015Y-60417519D01*
X121404147Y-60556900D01*
X121468297Y-60711772D01*
X121501000Y-60876184D01*
X121501000Y-61043816D01*
X121468297Y-61208228D01*
X121404147Y-61363100D01*
X121311015Y-61502481D01*
X121192481Y-61621015D01*
X121053100Y-61714147D01*
X120898228Y-61778297D01*
X120733816Y-61811000D01*
X120566184Y-61811000D01*
X120401772Y-61778297D01*
X120246900Y-61714147D01*
X120107519Y-61621015D01*
X119988985Y-61502481D01*
X119895853Y-61363100D01*
X119831703Y-61208228D01*
X119799000Y-61043816D01*
X119799000Y-60876184D01*
X119831703Y-60711772D01*
X119895853Y-60556900D01*
X119988985Y-60417519D01*
X120107519Y-60298985D01*
X120246900Y-60205853D01*
X120401772Y-60141703D01*
X120566184Y-60109000D01*
X120733816Y-60109000D01*
X120898228Y-60141703D01*
G37*
G36*
X136138228Y-60141703D02*
G01*
X136293100Y-60205853D01*
X136432481Y-60298985D01*
X136551015Y-60417519D01*
X136644147Y-60556900D01*
X136708297Y-60711772D01*
X136741000Y-60876184D01*
X136741000Y-61043816D01*
X136708297Y-61208228D01*
X136644147Y-61363100D01*
X136551015Y-61502481D01*
X136432481Y-61621015D01*
X136293100Y-61714147D01*
X136138228Y-61778297D01*
X135973816Y-61811000D01*
X135806184Y-61811000D01*
X135641772Y-61778297D01*
X135486900Y-61714147D01*
X135347519Y-61621015D01*
X135228985Y-61502481D01*
X135135853Y-61363100D01*
X135071703Y-61208228D01*
X135039000Y-61043816D01*
X135039000Y-60876184D01*
X135071703Y-60711772D01*
X135135853Y-60556900D01*
X135228985Y-60417519D01*
X135347519Y-60298985D01*
X135486900Y-60205853D01*
X135641772Y-60141703D01*
X135806184Y-60109000D01*
X135973816Y-60109000D01*
X136138228Y-60141703D01*
G37*
G36*
X145196000Y-59423500D02*
G01*
X143094000Y-59423500D01*
X143094000Y-57416500D01*
X145196000Y-57416500D01*
X145196000Y-59423500D01*
G37*
G36*
X110603512Y-57523927D02*
G01*
X110752812Y-57553624D01*
X110916784Y-57621544D01*
X111064354Y-57720147D01*
X111189853Y-57845646D01*
X111288456Y-57993216D01*
X111356376Y-58157188D01*
X111391000Y-58331259D01*
X111391000Y-58508741D01*
X111356376Y-58682812D01*
X111288456Y-58846784D01*
X111189853Y-58994354D01*
X111064354Y-59119853D01*
X110916784Y-59218456D01*
X110752812Y-59286376D01*
X110603512Y-59316073D01*
X110578742Y-59321000D01*
X110401258Y-59321000D01*
X110376488Y-59316073D01*
X110227188Y-59286376D01*
X110063216Y-59218456D01*
X109915646Y-59119853D01*
X109790147Y-58994354D01*
X109691544Y-58846784D01*
X109623624Y-58682812D01*
X109589000Y-58508741D01*
X109589000Y-58331259D01*
X109623624Y-58157188D01*
X109691544Y-57993216D01*
X109790147Y-57845646D01*
X109915646Y-57720147D01*
X110063216Y-57621544D01*
X110227188Y-57553624D01*
X110376488Y-57523927D01*
X110401258Y-57519000D01*
X110578742Y-57519000D01*
X110603512Y-57523927D01*
G37*
G36*
X136138228Y-57601703D02*
G01*
X136293100Y-57665853D01*
X136432481Y-57758985D01*
X136551015Y-57877519D01*
X136644147Y-58016900D01*
X136708297Y-58171772D01*
X136741000Y-58336184D01*
X136741000Y-58503816D01*
X136708297Y-58668228D01*
X136644147Y-58823100D01*
X136551015Y-58962481D01*
X136432481Y-59081015D01*
X136293100Y-59174147D01*
X136138228Y-59238297D01*
X135973816Y-59271000D01*
X135806184Y-59271000D01*
X135641772Y-59238297D01*
X135486900Y-59174147D01*
X135347519Y-59081015D01*
X135228985Y-58962481D01*
X135135853Y-58823100D01*
X135071703Y-58668228D01*
X135039000Y-58503816D01*
X135039000Y-58336184D01*
X135071703Y-58171772D01*
X135135853Y-58016900D01*
X135228985Y-57877519D01*
X135347519Y-57758985D01*
X135486900Y-57665853D01*
X135641772Y-57601703D01*
X135806184Y-57569000D01*
X135973816Y-57569000D01*
X136138228Y-57601703D01*
G37*
G36*
X120898228Y-57601703D02*
G01*
X121053100Y-57665853D01*
X121192481Y-57758985D01*
X121311015Y-57877519D01*
X121404147Y-58016900D01*
X121468297Y-58171772D01*
X121501000Y-58336184D01*
X121501000Y-58503816D01*
X121468297Y-58668228D01*
X121404147Y-58823100D01*
X121311015Y-58962481D01*
X121192481Y-59081015D01*
X121053100Y-59174147D01*
X120898228Y-59238297D01*
X120733816Y-59271000D01*
X120566184Y-59271000D01*
X120401772Y-59238297D01*
X120246900Y-59174147D01*
X120107519Y-59081015D01*
X119988985Y-58962481D01*
X119895853Y-58823100D01*
X119831703Y-58668228D01*
X119799000Y-58503816D01*
X119799000Y-58336184D01*
X119831703Y-58171772D01*
X119895853Y-58016900D01*
X119988985Y-57877519D01*
X120107519Y-57758985D01*
X120246900Y-57665853D01*
X120401772Y-57601703D01*
X120566184Y-57569000D01*
X120733816Y-57569000D01*
X120898228Y-57601703D01*
G37*
G36*
X144290936Y-54881340D02*
G01*
X144389220Y-54891020D01*
X144578381Y-54948401D01*
X144752712Y-55041583D01*
X144905515Y-55166985D01*
X145030917Y-55319788D01*
X145124099Y-55494119D01*
X145181480Y-55683280D01*
X145200855Y-55880000D01*
X145181480Y-56076720D01*
X145124099Y-56265881D01*
X145030917Y-56440212D01*
X144905515Y-56593015D01*
X144752712Y-56718417D01*
X144578381Y-56811599D01*
X144389220Y-56868980D01*
X144290936Y-56878660D01*
X144241795Y-56883500D01*
X144048205Y-56883500D01*
X143999064Y-56878660D01*
X143900780Y-56868980D01*
X143711619Y-56811599D01*
X143537288Y-56718417D01*
X143384485Y-56593015D01*
X143259083Y-56440212D01*
X143165901Y-56265881D01*
X143108520Y-56076720D01*
X143089145Y-55880000D01*
X143108520Y-55683280D01*
X143165901Y-55494119D01*
X143259083Y-55319788D01*
X143384485Y-55166985D01*
X143537288Y-55041583D01*
X143711619Y-54948401D01*
X143900780Y-54891020D01*
X143999064Y-54881340D01*
X144048205Y-54876500D01*
X144241795Y-54876500D01*
X144290936Y-54881340D01*
G37*
G36*
X110603512Y-54983927D02*
G01*
X110752812Y-55013624D01*
X110916784Y-55081544D01*
X111064354Y-55180147D01*
X111189853Y-55305646D01*
X111288456Y-55453216D01*
X111356376Y-55617188D01*
X111391000Y-55791259D01*
X111391000Y-55968741D01*
X111356376Y-56142812D01*
X111288456Y-56306784D01*
X111189853Y-56454354D01*
X111064354Y-56579853D01*
X110916784Y-56678456D01*
X110752812Y-56746376D01*
X110603512Y-56776073D01*
X110578742Y-56781000D01*
X110401258Y-56781000D01*
X110376488Y-56776073D01*
X110227188Y-56746376D01*
X110063216Y-56678456D01*
X109915646Y-56579853D01*
X109790147Y-56454354D01*
X109691544Y-56306784D01*
X109623624Y-56142812D01*
X109589000Y-55968741D01*
X109589000Y-55791259D01*
X109623624Y-55617188D01*
X109691544Y-55453216D01*
X109790147Y-55305646D01*
X109915646Y-55180147D01*
X110063216Y-55081544D01*
X110227188Y-55013624D01*
X110376488Y-54983927D01*
X110401258Y-54979000D01*
X110578742Y-54979000D01*
X110603512Y-54983927D01*
G37*
G36*
X120898228Y-55061703D02*
G01*
X121053100Y-55125853D01*
X121192481Y-55218985D01*
X121311015Y-55337519D01*
X121404147Y-55476900D01*
X121468297Y-55631772D01*
X121501000Y-55796184D01*
X121501000Y-55963816D01*
X121468297Y-56128228D01*
X121404147Y-56283100D01*
X121311015Y-56422481D01*
X121192481Y-56541015D01*
X121053100Y-56634147D01*
X120898228Y-56698297D01*
X120733816Y-56731000D01*
X120566184Y-56731000D01*
X120401772Y-56698297D01*
X120246900Y-56634147D01*
X120107519Y-56541015D01*
X119988985Y-56422481D01*
X119895853Y-56283100D01*
X119831703Y-56128228D01*
X119799000Y-55963816D01*
X119799000Y-55796184D01*
X119831703Y-55631772D01*
X119895853Y-55476900D01*
X119988985Y-55337519D01*
X120107519Y-55218985D01*
X120246900Y-55125853D01*
X120401772Y-55061703D01*
X120566184Y-55029000D01*
X120733816Y-55029000D01*
X120898228Y-55061703D01*
G37*
G36*
X136138228Y-55061703D02*
G01*
X136293100Y-55125853D01*
X136432481Y-55218985D01*
X136551015Y-55337519D01*
X136644147Y-55476900D01*
X136708297Y-55631772D01*
X136741000Y-55796184D01*
X136741000Y-55963816D01*
X136708297Y-56128228D01*
X136644147Y-56283100D01*
X136551015Y-56422481D01*
X136432481Y-56541015D01*
X136293100Y-56634147D01*
X136138228Y-56698297D01*
X135973816Y-56731000D01*
X135806184Y-56731000D01*
X135641772Y-56698297D01*
X135486900Y-56634147D01*
X135347519Y-56541015D01*
X135228985Y-56422481D01*
X135135853Y-56283100D01*
X135071703Y-56128228D01*
X135039000Y-55963816D01*
X135039000Y-55796184D01*
X135071703Y-55631772D01*
X135135853Y-55476900D01*
X135228985Y-55337519D01*
X135347519Y-55218985D01*
X135486900Y-55125853D01*
X135641772Y-55061703D01*
X135806184Y-55029000D01*
X135973816Y-55029000D01*
X136138228Y-55061703D01*
G37*
G36*
X168263000Y-54756000D02*
G01*
X166637000Y-54756000D01*
X166637000Y-50654000D01*
X168263000Y-50654000D01*
X168263000Y-54756000D01*
G37*
G36*
X144290936Y-52341340D02*
G01*
X144389220Y-52351020D01*
X144578381Y-52408401D01*
X144752712Y-52501583D01*
X144905515Y-52626985D01*
X145030917Y-52779788D01*
X145124099Y-52954119D01*
X145181480Y-53143280D01*
X145200855Y-53340000D01*
X145181480Y-53536720D01*
X145124099Y-53725881D01*
X145030917Y-53900212D01*
X144905515Y-54053015D01*
X144752712Y-54178417D01*
X144578381Y-54271599D01*
X144389220Y-54328980D01*
X144290936Y-54338660D01*
X144241795Y-54343500D01*
X144048205Y-54343500D01*
X143999064Y-54338660D01*
X143900780Y-54328980D01*
X143711619Y-54271599D01*
X143537288Y-54178417D01*
X143384485Y-54053015D01*
X143259083Y-53900212D01*
X143165901Y-53725881D01*
X143108520Y-53536720D01*
X143089145Y-53340000D01*
X143108520Y-53143280D01*
X143165901Y-52954119D01*
X143259083Y-52779788D01*
X143384485Y-52626985D01*
X143537288Y-52501583D01*
X143711619Y-52408401D01*
X143900780Y-52351020D01*
X143999064Y-52341340D01*
X144048205Y-52336500D01*
X144241795Y-52336500D01*
X144290936Y-52341340D01*
G37*
G36*
X121501000Y-54191000D02*
G01*
X119799000Y-54191000D01*
X119799000Y-52489000D01*
X121501000Y-52489000D01*
X121501000Y-54191000D01*
G37*
G36*
X136138228Y-52521703D02*
G01*
X136293100Y-52585853D01*
X136432481Y-52678985D01*
X136551015Y-52797519D01*
X136644147Y-52936900D01*
X136708297Y-53091772D01*
X136741000Y-53256184D01*
X136741000Y-53423816D01*
X136708297Y-53588228D01*
X136644147Y-53743100D01*
X136551015Y-53882481D01*
X136432481Y-54001015D01*
X136293100Y-54094147D01*
X136138228Y-54158297D01*
X135973816Y-54191000D01*
X135806184Y-54191000D01*
X135641772Y-54158297D01*
X135486900Y-54094147D01*
X135347519Y-54001015D01*
X135228985Y-53882481D01*
X135135853Y-53743100D01*
X135071703Y-53588228D01*
X135039000Y-53423816D01*
X135039000Y-53256184D01*
X135071703Y-53091772D01*
X135135853Y-52936900D01*
X135228985Y-52797519D01*
X135347519Y-52678985D01*
X135486900Y-52585853D01*
X135641772Y-52521703D01*
X135806184Y-52489000D01*
X135973816Y-52489000D01*
X136138228Y-52521703D01*
G37*
G36*
X164751000Y-53518000D02*
G01*
X161149000Y-53518000D01*
X161149000Y-51892000D01*
X164751000Y-51892000D01*
X164751000Y-53518000D01*
G37*
G36*
X25283485Y-47373802D02*
G01*
X25433310Y-47403604D01*
X25715574Y-47520521D01*
X25969605Y-47690259D01*
X26185641Y-47906295D01*
X26355379Y-48160326D01*
X26472296Y-48442590D01*
X26531900Y-48742240D01*
X26531900Y-49047760D01*
X26472296Y-49347410D01*
X26355379Y-49629674D01*
X26185641Y-49883705D01*
X25969605Y-50099741D01*
X25715574Y-50269479D01*
X25433310Y-50386396D01*
X25283485Y-50416198D01*
X25133661Y-50446000D01*
X24828139Y-50446000D01*
X24678315Y-50416198D01*
X24528490Y-50386396D01*
X24246226Y-50269479D01*
X23992195Y-50099741D01*
X23776159Y-49883705D01*
X23606421Y-49629674D01*
X23489504Y-49347410D01*
X23429900Y-49047760D01*
X23429900Y-48742240D01*
X23489504Y-48442590D01*
X23606421Y-48160326D01*
X23776159Y-47906295D01*
X23992195Y-47690259D01*
X24246226Y-47520521D01*
X24528490Y-47403604D01*
X24678315Y-47373802D01*
X24828139Y-47344000D01*
X25133661Y-47344000D01*
X25283485Y-47373802D01*
G37*
G36*
X100282585Y-47373802D02*
G01*
X100432410Y-47403604D01*
X100714674Y-47520521D01*
X100968705Y-47690259D01*
X101184741Y-47906295D01*
X101354479Y-48160326D01*
X101471396Y-48442590D01*
X101531000Y-48742240D01*
X101531000Y-49047760D01*
X101471396Y-49347410D01*
X101354479Y-49629674D01*
X101184741Y-49883705D01*
X100968705Y-50099741D01*
X100714674Y-50269479D01*
X100432410Y-50386396D01*
X100282585Y-50416198D01*
X100132761Y-50446000D01*
X99827239Y-50446000D01*
X99677415Y-50416198D01*
X99527590Y-50386396D01*
X99245326Y-50269479D01*
X98991295Y-50099741D01*
X98775259Y-49883705D01*
X98605521Y-49629674D01*
X98488604Y-49347410D01*
X98429000Y-49047760D01*
X98429000Y-48742240D01*
X98488604Y-48442590D01*
X98605521Y-48160326D01*
X98775259Y-47906295D01*
X98991295Y-47690259D01*
X99245326Y-47520521D01*
X99527590Y-47403604D01*
X99677415Y-47373802D01*
X99827239Y-47344000D01*
X100132761Y-47344000D01*
X100282585Y-47373802D01*
G37*
G36*
X43366424Y-47557760D02*
G01*
X43366427Y-47557761D01*
X43366428Y-47557761D01*
X43545692Y-47612140D01*
X43545695Y-47612142D01*
X43545696Y-47612142D01*
X43710903Y-47700446D01*
X43855712Y-47819288D01*
X43974554Y-47964097D01*
X44062858Y-48129303D01*
X44062860Y-48129307D01*
X44117239Y-48308571D01*
X44117240Y-48308575D01*
X44131000Y-48448282D01*
X44131000Y-49341717D01*
X44117240Y-49481426D01*
X44062859Y-49660695D01*
X43974554Y-49825903D01*
X43855712Y-49970712D01*
X43710903Y-50089554D01*
X43545697Y-50177858D01*
X43545693Y-50177860D01*
X43366429Y-50232239D01*
X43366428Y-50232239D01*
X43366425Y-50232240D01*
X43180000Y-50250601D01*
X42993576Y-50232240D01*
X42993573Y-50232239D01*
X42993572Y-50232239D01*
X42814308Y-50177860D01*
X42814304Y-50177858D01*
X42649098Y-50089554D01*
X42504289Y-49970712D01*
X42385447Y-49825903D01*
X42297140Y-49660692D01*
X42242760Y-49481430D01*
X42229000Y-49341718D01*
X42229000Y-48448283D01*
X42242760Y-48308576D01*
X42242761Y-48308572D01*
X42297140Y-48129308D01*
X42297143Y-48129303D01*
X42385446Y-47964097D01*
X42504288Y-47819288D01*
X42649097Y-47700446D01*
X42814303Y-47612142D01*
X42814304Y-47612142D01*
X42814307Y-47612140D01*
X42993571Y-47557761D01*
X42993572Y-47557761D01*
X42993575Y-47557760D01*
X43180000Y-47539399D01*
X43366424Y-47557760D01*
G37*
G36*
X45906424Y-47557760D02*
G01*
X45906427Y-47557761D01*
X45906428Y-47557761D01*
X46085692Y-47612140D01*
X46085695Y-47612142D01*
X46085696Y-47612142D01*
X46250903Y-47700446D01*
X46395712Y-47819288D01*
X46514554Y-47964097D01*
X46602858Y-48129303D01*
X46602860Y-48129307D01*
X46657239Y-48308571D01*
X46657240Y-48308575D01*
X46671000Y-48448282D01*
X46671000Y-49341717D01*
X46657240Y-49481426D01*
X46602859Y-49660695D01*
X46514554Y-49825903D01*
X46395712Y-49970712D01*
X46250903Y-50089554D01*
X46085697Y-50177858D01*
X46085693Y-50177860D01*
X45906429Y-50232239D01*
X45906428Y-50232239D01*
X45906425Y-50232240D01*
X45720000Y-50250601D01*
X45533576Y-50232240D01*
X45533573Y-50232239D01*
X45533572Y-50232239D01*
X45354308Y-50177860D01*
X45354304Y-50177858D01*
X45189098Y-50089554D01*
X45044289Y-49970712D01*
X44925447Y-49825903D01*
X44837140Y-49660692D01*
X44782760Y-49481430D01*
X44769000Y-49341718D01*
X44769000Y-48448283D01*
X44782760Y-48308576D01*
X44782761Y-48308572D01*
X44837140Y-48129308D01*
X44837143Y-48129303D01*
X44925446Y-47964097D01*
X45044288Y-47819288D01*
X45189097Y-47700446D01*
X45354303Y-47612142D01*
X45354304Y-47612142D01*
X45354307Y-47612140D01*
X45533571Y-47557761D01*
X45533572Y-47557761D01*
X45533575Y-47557760D01*
X45720000Y-47539399D01*
X45906424Y-47557760D01*
G37*
G36*
X48446424Y-47557760D02*
G01*
X48446427Y-47557761D01*
X48446428Y-47557761D01*
X48625692Y-47612140D01*
X48625695Y-47612142D01*
X48625696Y-47612142D01*
X48790903Y-47700446D01*
X48935712Y-47819288D01*
X49054554Y-47964097D01*
X49142858Y-48129303D01*
X49142860Y-48129307D01*
X49197239Y-48308571D01*
X49197240Y-48308575D01*
X49211000Y-48448282D01*
X49211000Y-49341717D01*
X49197240Y-49481426D01*
X49142859Y-49660695D01*
X49054554Y-49825903D01*
X48935712Y-49970712D01*
X48790903Y-50089554D01*
X48625697Y-50177858D01*
X48625693Y-50177860D01*
X48446429Y-50232239D01*
X48446428Y-50232239D01*
X48446425Y-50232240D01*
X48260000Y-50250601D01*
X48073576Y-50232240D01*
X48073573Y-50232239D01*
X48073572Y-50232239D01*
X47894308Y-50177860D01*
X47894304Y-50177858D01*
X47729098Y-50089554D01*
X47584289Y-49970712D01*
X47465447Y-49825903D01*
X47377140Y-49660692D01*
X47322760Y-49481430D01*
X47309000Y-49341718D01*
X47309000Y-48448283D01*
X47322760Y-48308576D01*
X47322761Y-48308572D01*
X47377140Y-48129308D01*
X47377143Y-48129303D01*
X47465446Y-47964097D01*
X47584288Y-47819288D01*
X47729097Y-47700446D01*
X47894303Y-47612142D01*
X47894304Y-47612142D01*
X47894307Y-47612140D01*
X48073571Y-47557761D01*
X48073572Y-47557761D01*
X48073575Y-47557760D01*
X48260000Y-47539399D01*
X48446424Y-47557760D01*
G37*
G36*
X50986424Y-47557760D02*
G01*
X50986427Y-47557761D01*
X50986428Y-47557761D01*
X51165692Y-47612140D01*
X51165695Y-47612142D01*
X51165696Y-47612142D01*
X51330903Y-47700446D01*
X51475712Y-47819288D01*
X51594554Y-47964097D01*
X51682858Y-48129303D01*
X51682860Y-48129307D01*
X51737239Y-48308571D01*
X51737240Y-48308575D01*
X51751000Y-48448282D01*
X51751000Y-49341717D01*
X51737240Y-49481426D01*
X51682859Y-49660695D01*
X51594554Y-49825903D01*
X51475712Y-49970712D01*
X51330903Y-50089554D01*
X51165697Y-50177858D01*
X51165693Y-50177860D01*
X50986429Y-50232239D01*
X50986428Y-50232239D01*
X50986425Y-50232240D01*
X50800000Y-50250601D01*
X50613576Y-50232240D01*
X50613573Y-50232239D01*
X50613572Y-50232239D01*
X50434308Y-50177860D01*
X50434304Y-50177858D01*
X50269098Y-50089554D01*
X50124289Y-49970712D01*
X50005447Y-49825903D01*
X49917140Y-49660692D01*
X49862760Y-49481430D01*
X49849000Y-49341718D01*
X49849000Y-48448283D01*
X49862760Y-48308576D01*
X49862761Y-48308572D01*
X49917140Y-48129308D01*
X49917143Y-48129303D01*
X50005446Y-47964097D01*
X50124288Y-47819288D01*
X50269097Y-47700446D01*
X50434303Y-47612142D01*
X50434304Y-47612142D01*
X50434307Y-47612140D01*
X50613571Y-47557761D01*
X50613572Y-47557761D01*
X50613575Y-47557760D01*
X50800000Y-47539399D01*
X50986424Y-47557760D01*
G37*
G36*
X53526424Y-47557760D02*
G01*
X53526427Y-47557761D01*
X53526428Y-47557761D01*
X53705692Y-47612140D01*
X53705695Y-47612142D01*
X53705696Y-47612142D01*
X53870903Y-47700446D01*
X54015712Y-47819288D01*
X54134554Y-47964097D01*
X54222858Y-48129303D01*
X54222860Y-48129307D01*
X54277239Y-48308571D01*
X54277240Y-48308575D01*
X54291000Y-48448282D01*
X54291000Y-49341717D01*
X54277240Y-49481426D01*
X54222859Y-49660695D01*
X54134554Y-49825903D01*
X54015712Y-49970712D01*
X53870903Y-50089554D01*
X53705697Y-50177858D01*
X53705693Y-50177860D01*
X53526429Y-50232239D01*
X53526428Y-50232239D01*
X53526425Y-50232240D01*
X53340000Y-50250601D01*
X53153576Y-50232240D01*
X53153573Y-50232239D01*
X53153572Y-50232239D01*
X52974308Y-50177860D01*
X52974304Y-50177858D01*
X52809098Y-50089554D01*
X52664289Y-49970712D01*
X52545447Y-49825903D01*
X52457140Y-49660692D01*
X52402760Y-49481430D01*
X52389000Y-49341718D01*
X52389000Y-48448283D01*
X52402760Y-48308576D01*
X52402761Y-48308572D01*
X52457140Y-48129308D01*
X52457143Y-48129303D01*
X52545446Y-47964097D01*
X52664288Y-47819288D01*
X52809097Y-47700446D01*
X52974303Y-47612142D01*
X52974304Y-47612142D01*
X52974307Y-47612140D01*
X53153571Y-47557761D01*
X53153572Y-47557761D01*
X53153575Y-47557760D01*
X53340000Y-47539399D01*
X53526424Y-47557760D01*
G37*
G36*
X56066424Y-47557760D02*
G01*
X56066427Y-47557761D01*
X56066428Y-47557761D01*
X56245692Y-47612140D01*
X56245695Y-47612142D01*
X56245696Y-47612142D01*
X56410903Y-47700446D01*
X56555712Y-47819288D01*
X56674554Y-47964097D01*
X56762858Y-48129303D01*
X56762860Y-48129307D01*
X56817239Y-48308571D01*
X56817240Y-48308575D01*
X56831000Y-48448282D01*
X56831000Y-49341717D01*
X56817240Y-49481426D01*
X56762859Y-49660695D01*
X56674554Y-49825903D01*
X56555712Y-49970712D01*
X56410903Y-50089554D01*
X56245697Y-50177858D01*
X56245693Y-50177860D01*
X56066429Y-50232239D01*
X56066428Y-50232239D01*
X56066425Y-50232240D01*
X55880000Y-50250601D01*
X55693576Y-50232240D01*
X55693573Y-50232239D01*
X55693572Y-50232239D01*
X55514308Y-50177860D01*
X55514304Y-50177858D01*
X55349098Y-50089554D01*
X55204289Y-49970712D01*
X55085447Y-49825903D01*
X54997140Y-49660692D01*
X54942760Y-49481430D01*
X54929000Y-49341718D01*
X54929000Y-48448283D01*
X54942760Y-48308576D01*
X54942761Y-48308572D01*
X54997140Y-48129308D01*
X54997143Y-48129303D01*
X55085446Y-47964097D01*
X55204288Y-47819288D01*
X55349097Y-47700446D01*
X55514303Y-47612142D01*
X55514304Y-47612142D01*
X55514307Y-47612140D01*
X55693571Y-47557761D01*
X55693572Y-47557761D01*
X55693575Y-47557760D01*
X55880000Y-47539399D01*
X56066424Y-47557760D01*
G37*
G36*
X58606424Y-47557760D02*
G01*
X58606427Y-47557761D01*
X58606428Y-47557761D01*
X58785692Y-47612140D01*
X58785695Y-47612142D01*
X58785696Y-47612142D01*
X58950903Y-47700446D01*
X59095712Y-47819288D01*
X59214554Y-47964097D01*
X59302858Y-48129303D01*
X59302860Y-48129307D01*
X59357239Y-48308571D01*
X59357240Y-48308575D01*
X59371000Y-48448282D01*
X59371000Y-49341717D01*
X59357240Y-49481426D01*
X59302859Y-49660695D01*
X59214554Y-49825903D01*
X59095712Y-49970712D01*
X58950903Y-50089554D01*
X58785697Y-50177858D01*
X58785693Y-50177860D01*
X58606429Y-50232239D01*
X58606428Y-50232239D01*
X58606425Y-50232240D01*
X58420000Y-50250601D01*
X58233576Y-50232240D01*
X58233573Y-50232239D01*
X58233572Y-50232239D01*
X58054308Y-50177860D01*
X58054304Y-50177858D01*
X57889098Y-50089554D01*
X57744289Y-49970712D01*
X57625447Y-49825903D01*
X57537140Y-49660692D01*
X57482760Y-49481430D01*
X57469000Y-49341718D01*
X57469000Y-48448283D01*
X57482760Y-48308576D01*
X57482761Y-48308572D01*
X57537140Y-48129308D01*
X57537143Y-48129303D01*
X57625446Y-47964097D01*
X57744288Y-47819288D01*
X57889097Y-47700446D01*
X58054303Y-47612142D01*
X58054304Y-47612142D01*
X58054307Y-47612140D01*
X58233571Y-47557761D01*
X58233572Y-47557761D01*
X58233575Y-47557760D01*
X58420000Y-47539399D01*
X58606424Y-47557760D01*
G37*
G36*
X61146424Y-47557760D02*
G01*
X61146427Y-47557761D01*
X61146428Y-47557761D01*
X61325692Y-47612140D01*
X61325695Y-47612142D01*
X61325696Y-47612142D01*
X61490903Y-47700446D01*
X61635712Y-47819288D01*
X61754554Y-47964097D01*
X61842858Y-48129303D01*
X61842860Y-48129307D01*
X61897239Y-48308571D01*
X61897240Y-48308575D01*
X61911000Y-48448282D01*
X61911000Y-49341717D01*
X61897240Y-49481426D01*
X61842859Y-49660695D01*
X61754554Y-49825903D01*
X61635712Y-49970712D01*
X61490903Y-50089554D01*
X61325697Y-50177858D01*
X61325693Y-50177860D01*
X61146429Y-50232239D01*
X61146428Y-50232239D01*
X61146425Y-50232240D01*
X60960000Y-50250601D01*
X60773576Y-50232240D01*
X60773573Y-50232239D01*
X60773572Y-50232239D01*
X60594308Y-50177860D01*
X60594304Y-50177858D01*
X60429098Y-50089554D01*
X60284289Y-49970712D01*
X60165447Y-49825903D01*
X60077140Y-49660692D01*
X60022760Y-49481430D01*
X60009000Y-49341718D01*
X60009000Y-48448283D01*
X60022760Y-48308576D01*
X60022761Y-48308572D01*
X60077140Y-48129308D01*
X60077143Y-48129303D01*
X60165446Y-47964097D01*
X60284288Y-47819288D01*
X60429097Y-47700446D01*
X60594303Y-47612142D01*
X60594304Y-47612142D01*
X60594307Y-47612140D01*
X60773571Y-47557761D01*
X60773572Y-47557761D01*
X60773575Y-47557760D01*
X60960000Y-47539399D01*
X61146424Y-47557760D01*
G37*
G36*
X63686424Y-47557760D02*
G01*
X63686427Y-47557761D01*
X63686428Y-47557761D01*
X63865692Y-47612140D01*
X63865695Y-47612142D01*
X63865696Y-47612142D01*
X64030903Y-47700446D01*
X64175712Y-47819288D01*
X64294554Y-47964097D01*
X64382858Y-48129303D01*
X64382860Y-48129307D01*
X64437239Y-48308571D01*
X64437240Y-48308575D01*
X64451000Y-48448282D01*
X64451000Y-49341717D01*
X64437240Y-49481426D01*
X64382859Y-49660695D01*
X64294554Y-49825903D01*
X64175712Y-49970712D01*
X64030903Y-50089554D01*
X63865697Y-50177858D01*
X63865693Y-50177860D01*
X63686429Y-50232239D01*
X63686428Y-50232239D01*
X63686425Y-50232240D01*
X63500000Y-50250601D01*
X63313576Y-50232240D01*
X63313573Y-50232239D01*
X63313572Y-50232239D01*
X63134308Y-50177860D01*
X63134304Y-50177858D01*
X62969098Y-50089554D01*
X62824289Y-49970712D01*
X62705447Y-49825903D01*
X62617140Y-49660692D01*
X62562760Y-49481430D01*
X62549000Y-49341718D01*
X62549000Y-48448283D01*
X62562760Y-48308576D01*
X62562761Y-48308572D01*
X62617140Y-48129308D01*
X62617143Y-48129303D01*
X62705446Y-47964097D01*
X62824288Y-47819288D01*
X62969097Y-47700446D01*
X63134303Y-47612142D01*
X63134304Y-47612142D01*
X63134307Y-47612140D01*
X63313571Y-47557761D01*
X63313572Y-47557761D01*
X63313575Y-47557760D01*
X63500000Y-47539399D01*
X63686424Y-47557760D01*
G37*
G36*
X66226424Y-47557760D02*
G01*
X66226427Y-47557761D01*
X66226428Y-47557761D01*
X66405692Y-47612140D01*
X66405695Y-47612142D01*
X66405696Y-47612142D01*
X66570903Y-47700446D01*
X66715712Y-47819288D01*
X66834554Y-47964097D01*
X66922858Y-48129303D01*
X66922860Y-48129307D01*
X66977239Y-48308571D01*
X66977240Y-48308575D01*
X66991000Y-48448282D01*
X66991000Y-49341717D01*
X66977240Y-49481426D01*
X66922859Y-49660695D01*
X66834554Y-49825903D01*
X66715712Y-49970712D01*
X66570903Y-50089554D01*
X66405697Y-50177858D01*
X66405693Y-50177860D01*
X66226429Y-50232239D01*
X66226428Y-50232239D01*
X66226425Y-50232240D01*
X66040000Y-50250601D01*
X65853576Y-50232240D01*
X65853573Y-50232239D01*
X65853572Y-50232239D01*
X65674308Y-50177860D01*
X65674304Y-50177858D01*
X65509098Y-50089554D01*
X65364289Y-49970712D01*
X65245447Y-49825903D01*
X65157140Y-49660692D01*
X65102760Y-49481430D01*
X65089000Y-49341718D01*
X65089000Y-48448283D01*
X65102760Y-48308576D01*
X65102761Y-48308572D01*
X65157140Y-48129308D01*
X65157143Y-48129303D01*
X65245446Y-47964097D01*
X65364288Y-47819288D01*
X65509097Y-47700446D01*
X65674303Y-47612142D01*
X65674304Y-47612142D01*
X65674307Y-47612140D01*
X65853571Y-47557761D01*
X65853572Y-47557761D01*
X65853575Y-47557760D01*
X66040000Y-47539399D01*
X66226424Y-47557760D01*
G37*
G36*
X68766424Y-47557760D02*
G01*
X68766427Y-47557761D01*
X68766428Y-47557761D01*
X68945692Y-47612140D01*
X68945695Y-47612142D01*
X68945696Y-47612142D01*
X69110903Y-47700446D01*
X69255712Y-47819288D01*
X69374554Y-47964097D01*
X69462858Y-48129303D01*
X69462860Y-48129307D01*
X69517239Y-48308571D01*
X69517240Y-48308575D01*
X69531000Y-48448282D01*
X69531000Y-49341717D01*
X69517240Y-49481426D01*
X69462859Y-49660695D01*
X69374554Y-49825903D01*
X69255712Y-49970712D01*
X69110903Y-50089554D01*
X68945697Y-50177858D01*
X68945693Y-50177860D01*
X68766429Y-50232239D01*
X68766428Y-50232239D01*
X68766425Y-50232240D01*
X68580000Y-50250601D01*
X68393576Y-50232240D01*
X68393573Y-50232239D01*
X68393572Y-50232239D01*
X68214308Y-50177860D01*
X68214304Y-50177858D01*
X68049098Y-50089554D01*
X67904289Y-49970712D01*
X67785447Y-49825903D01*
X67697140Y-49660692D01*
X67642760Y-49481430D01*
X67629000Y-49341718D01*
X67629000Y-48448283D01*
X67642760Y-48308576D01*
X67642761Y-48308572D01*
X67697140Y-48129308D01*
X67697143Y-48129303D01*
X67785446Y-47964097D01*
X67904288Y-47819288D01*
X68049097Y-47700446D01*
X68214303Y-47612142D01*
X68214304Y-47612142D01*
X68214307Y-47612140D01*
X68393571Y-47557761D01*
X68393572Y-47557761D01*
X68393575Y-47557760D01*
X68580000Y-47539399D01*
X68766424Y-47557760D01*
G37*
G36*
X40826424Y-47557760D02*
G01*
X40826427Y-47557761D01*
X40826428Y-47557761D01*
X41005692Y-47612140D01*
X41005695Y-47612142D01*
X41005696Y-47612142D01*
X41170903Y-47700446D01*
X41315712Y-47819288D01*
X41434554Y-47964097D01*
X41522858Y-48129303D01*
X41522860Y-48129307D01*
X41577239Y-48308571D01*
X41577240Y-48308575D01*
X41591000Y-48448282D01*
X41591000Y-49341717D01*
X41577240Y-49481426D01*
X41522859Y-49660695D01*
X41434554Y-49825903D01*
X41315712Y-49970712D01*
X41170903Y-50089554D01*
X41005697Y-50177858D01*
X41005693Y-50177860D01*
X40826429Y-50232239D01*
X40826428Y-50232239D01*
X40826425Y-50232240D01*
X40640000Y-50250601D01*
X40453576Y-50232240D01*
X40453573Y-50232239D01*
X40453572Y-50232239D01*
X40274308Y-50177860D01*
X40274304Y-50177858D01*
X40109098Y-50089554D01*
X39964289Y-49970712D01*
X39845447Y-49825903D01*
X39757140Y-49660692D01*
X39702760Y-49481430D01*
X39689000Y-49341718D01*
X39689000Y-48448283D01*
X39702760Y-48308576D01*
X39702761Y-48308572D01*
X39757140Y-48129308D01*
X39757143Y-48129303D01*
X39845446Y-47964097D01*
X39964288Y-47819288D01*
X40109097Y-47700446D01*
X40274303Y-47612142D01*
X40274304Y-47612142D01*
X40274307Y-47612140D01*
X40453571Y-47557761D01*
X40453572Y-47557761D01*
X40453575Y-47557760D01*
X40640000Y-47539399D01*
X40826424Y-47557760D01*
G37*
G36*
X38286424Y-47557760D02*
G01*
X38286427Y-47557761D01*
X38286428Y-47557761D01*
X38465692Y-47612140D01*
X38465695Y-47612142D01*
X38465696Y-47612142D01*
X38630903Y-47700446D01*
X38775712Y-47819288D01*
X38894554Y-47964097D01*
X38982858Y-48129303D01*
X38982860Y-48129307D01*
X39037239Y-48308571D01*
X39037240Y-48308575D01*
X39051000Y-48448282D01*
X39051000Y-49341717D01*
X39037240Y-49481426D01*
X38982859Y-49660695D01*
X38894554Y-49825903D01*
X38775712Y-49970712D01*
X38630903Y-50089554D01*
X38465697Y-50177858D01*
X38465693Y-50177860D01*
X38286429Y-50232239D01*
X38286428Y-50232239D01*
X38286425Y-50232240D01*
X38100000Y-50250601D01*
X37913576Y-50232240D01*
X37913573Y-50232239D01*
X37913572Y-50232239D01*
X37734308Y-50177860D01*
X37734304Y-50177858D01*
X37569098Y-50089554D01*
X37424289Y-49970712D01*
X37305447Y-49825903D01*
X37217140Y-49660692D01*
X37162760Y-49481430D01*
X37149000Y-49341718D01*
X37149000Y-48448283D01*
X37162760Y-48308576D01*
X37162761Y-48308572D01*
X37217140Y-48129308D01*
X37217143Y-48129303D01*
X37305446Y-47964097D01*
X37424288Y-47819288D01*
X37569097Y-47700446D01*
X37734303Y-47612142D01*
X37734304Y-47612142D01*
X37734307Y-47612140D01*
X37913571Y-47557761D01*
X37913572Y-47557761D01*
X37913575Y-47557760D01*
X38100000Y-47539399D01*
X38286424Y-47557760D01*
G37*
G36*
X35746424Y-47557760D02*
G01*
X35746427Y-47557761D01*
X35746428Y-47557761D01*
X35925692Y-47612140D01*
X35925695Y-47612142D01*
X35925696Y-47612142D01*
X36090903Y-47700446D01*
X36235712Y-47819288D01*
X36354554Y-47964097D01*
X36442858Y-48129303D01*
X36442860Y-48129307D01*
X36497239Y-48308571D01*
X36497240Y-48308575D01*
X36511000Y-48448282D01*
X36511000Y-49341717D01*
X36497240Y-49481426D01*
X36442859Y-49660695D01*
X36354554Y-49825903D01*
X36235712Y-49970712D01*
X36090903Y-50089554D01*
X35925697Y-50177858D01*
X35925693Y-50177860D01*
X35746429Y-50232239D01*
X35746428Y-50232239D01*
X35746425Y-50232240D01*
X35560000Y-50250601D01*
X35373576Y-50232240D01*
X35373573Y-50232239D01*
X35373572Y-50232239D01*
X35194308Y-50177860D01*
X35194304Y-50177858D01*
X35029098Y-50089554D01*
X34884289Y-49970712D01*
X34765447Y-49825903D01*
X34677140Y-49660692D01*
X34622760Y-49481430D01*
X34609000Y-49341718D01*
X34609000Y-48448283D01*
X34622760Y-48308576D01*
X34622761Y-48308572D01*
X34677140Y-48129308D01*
X34677143Y-48129303D01*
X34765446Y-47964097D01*
X34884288Y-47819288D01*
X35029097Y-47700446D01*
X35194303Y-47612142D01*
X35194304Y-47612142D01*
X35194307Y-47612140D01*
X35373571Y-47557761D01*
X35373572Y-47557761D01*
X35373575Y-47557760D01*
X35560000Y-47539399D01*
X35746424Y-47557760D01*
G37*
G36*
X33206424Y-47557760D02*
G01*
X33206427Y-47557761D01*
X33206428Y-47557761D01*
X33385692Y-47612140D01*
X33385695Y-47612142D01*
X33385696Y-47612142D01*
X33550903Y-47700446D01*
X33695712Y-47819288D01*
X33814554Y-47964097D01*
X33902858Y-48129303D01*
X33902860Y-48129307D01*
X33957239Y-48308571D01*
X33957240Y-48308575D01*
X33971000Y-48448282D01*
X33971000Y-49341717D01*
X33957240Y-49481426D01*
X33902859Y-49660695D01*
X33814554Y-49825903D01*
X33695712Y-49970712D01*
X33550903Y-50089554D01*
X33385697Y-50177858D01*
X33385693Y-50177860D01*
X33206429Y-50232239D01*
X33206428Y-50232239D01*
X33206425Y-50232240D01*
X33020000Y-50250601D01*
X32833576Y-50232240D01*
X32833573Y-50232239D01*
X32833572Y-50232239D01*
X32654308Y-50177860D01*
X32654304Y-50177858D01*
X32489098Y-50089554D01*
X32344289Y-49970712D01*
X32225447Y-49825903D01*
X32137140Y-49660692D01*
X32082760Y-49481430D01*
X32069000Y-49341718D01*
X32069000Y-48448283D01*
X32082760Y-48308576D01*
X32082761Y-48308572D01*
X32137140Y-48129308D01*
X32137143Y-48129303D01*
X32225446Y-47964097D01*
X32344288Y-47819288D01*
X32489097Y-47700446D01*
X32654303Y-47612142D01*
X32654304Y-47612142D01*
X32654307Y-47612140D01*
X32833571Y-47557761D01*
X32833572Y-47557761D01*
X32833575Y-47557760D01*
X33020000Y-47539399D01*
X33206424Y-47557760D01*
G37*
G36*
X31431000Y-50246000D02*
G01*
X29529000Y-50246000D01*
X29529000Y-47544000D01*
X31431000Y-47544000D01*
X31431000Y-50246000D01*
G37*
G36*
X124708228Y-43631703D02*
G01*
X124863100Y-43695853D01*
X125002481Y-43788985D01*
X125121015Y-43907519D01*
X125214147Y-44046900D01*
X125278297Y-44201772D01*
X125311000Y-44366184D01*
X125311000Y-44533816D01*
X125278297Y-44698228D01*
X125214147Y-44853100D01*
X125121015Y-44992481D01*
X125002481Y-45111015D01*
X124863100Y-45204147D01*
X124708228Y-45268297D01*
X124543816Y-45301000D01*
X124376184Y-45301000D01*
X124211772Y-45268297D01*
X124056900Y-45204147D01*
X123917519Y-45111015D01*
X123798985Y-44992481D01*
X123705853Y-44853100D01*
X123641703Y-44698228D01*
X123609000Y-44533816D01*
X123609000Y-44366184D01*
X123641703Y-44201772D01*
X123705853Y-44046900D01*
X123798985Y-43907519D01*
X123917519Y-43788985D01*
X124056900Y-43695853D01*
X124211772Y-43631703D01*
X124376184Y-43599000D01*
X124543816Y-43599000D01*
X124708228Y-43631703D01*
G37*
G36*
X138011000Y-45301000D02*
G01*
X136309000Y-45301000D01*
X136309000Y-43599000D01*
X138011000Y-43599000D01*
X138011000Y-45301000D01*
G37*
G36*
X105576822Y-41941313D02*
G01*
X105737241Y-41989976D01*
X105885077Y-42068995D01*
X105993807Y-42158228D01*
X106014659Y-42175341D01*
X106121004Y-42304922D01*
X106121005Y-42304924D01*
X106200024Y-42452758D01*
X106248687Y-42613177D01*
X106261000Y-42738196D01*
X106261000Y-43621803D01*
X106248687Y-43746822D01*
X106200024Y-43907242D01*
X106199875Y-43907520D01*
X106121004Y-44055078D01*
X106014659Y-44184659D01*
X105885078Y-44291004D01*
X105885076Y-44291005D01*
X105737242Y-44370024D01*
X105576823Y-44418687D01*
X105410000Y-44435117D01*
X105243178Y-44418687D01*
X105082759Y-44370024D01*
X104934925Y-44291005D01*
X104934923Y-44291004D01*
X104805342Y-44184659D01*
X104698997Y-44055078D01*
X104620126Y-43907520D01*
X104619977Y-43907242D01*
X104571314Y-43746823D01*
X104559000Y-43621803D01*
X104559000Y-42738197D01*
X104571313Y-42613178D01*
X104619976Y-42452759D01*
X104698995Y-42304923D01*
X104805341Y-42175341D01*
X104846727Y-42141376D01*
X104934922Y-42068996D01*
X104950094Y-42060886D01*
X105082758Y-41989976D01*
X105243177Y-41941313D01*
X105410000Y-41924883D01*
X105576822Y-41941313D01*
G37*
G36*
X103036822Y-41941313D02*
G01*
X103197241Y-41989976D01*
X103345077Y-42068995D01*
X103453807Y-42158228D01*
X103474659Y-42175341D01*
X103581004Y-42304922D01*
X103581005Y-42304924D01*
X103660024Y-42452758D01*
X103708687Y-42613177D01*
X103721000Y-42738196D01*
X103721000Y-43621803D01*
X103708687Y-43746822D01*
X103660024Y-43907242D01*
X103659875Y-43907520D01*
X103581004Y-44055078D01*
X103474659Y-44184659D01*
X103345078Y-44291004D01*
X103345076Y-44291005D01*
X103197242Y-44370024D01*
X103036823Y-44418687D01*
X102870000Y-44435117D01*
X102703178Y-44418687D01*
X102542759Y-44370024D01*
X102394925Y-44291005D01*
X102394923Y-44291004D01*
X102265342Y-44184659D01*
X102158997Y-44055078D01*
X102080126Y-43907520D01*
X102079977Y-43907242D01*
X102031314Y-43746823D01*
X102019000Y-43621803D01*
X102019000Y-42738197D01*
X102031313Y-42613178D01*
X102079976Y-42452759D01*
X102158995Y-42304923D01*
X102265341Y-42175341D01*
X102306727Y-42141376D01*
X102394922Y-42068996D01*
X102410094Y-42060886D01*
X102542758Y-41989976D01*
X102703177Y-41941313D01*
X102870000Y-41924883D01*
X103036822Y-41941313D01*
G37*
G36*
X100496822Y-41941313D02*
G01*
X100657241Y-41989976D01*
X100805077Y-42068995D01*
X100913807Y-42158228D01*
X100934659Y-42175341D01*
X101041004Y-42304922D01*
X101041005Y-42304924D01*
X101120024Y-42452758D01*
X101168687Y-42613177D01*
X101181000Y-42738196D01*
X101181000Y-43621803D01*
X101168687Y-43746822D01*
X101120024Y-43907242D01*
X101119875Y-43907520D01*
X101041004Y-44055078D01*
X100934659Y-44184659D01*
X100805078Y-44291004D01*
X100805076Y-44291005D01*
X100657242Y-44370024D01*
X100496823Y-44418687D01*
X100330000Y-44435117D01*
X100163178Y-44418687D01*
X100002759Y-44370024D01*
X99854925Y-44291005D01*
X99854923Y-44291004D01*
X99725342Y-44184659D01*
X99618997Y-44055078D01*
X99540126Y-43907520D01*
X99539977Y-43907242D01*
X99491314Y-43746823D01*
X99479000Y-43621803D01*
X99479000Y-42738197D01*
X99491313Y-42613178D01*
X99539976Y-42452759D01*
X99618995Y-42304923D01*
X99725341Y-42175341D01*
X99766727Y-42141376D01*
X99854922Y-42068996D01*
X99870094Y-42060886D01*
X100002758Y-41989976D01*
X100163177Y-41941313D01*
X100330000Y-41924883D01*
X100496822Y-41941313D01*
G37*
G36*
X98641000Y-44431000D02*
G01*
X96939000Y-44431000D01*
X96939000Y-41929000D01*
X98641000Y-41929000D01*
X98641000Y-44431000D01*
G37*
G36*
X137408228Y-41091703D02*
G01*
X137563100Y-41155853D01*
X137702481Y-41248985D01*
X137821015Y-41367519D01*
X137914147Y-41506900D01*
X137978297Y-41661772D01*
X138011000Y-41826184D01*
X138011000Y-41993816D01*
X137978297Y-42158228D01*
X137914147Y-42313100D01*
X137821015Y-42452481D01*
X137702481Y-42571015D01*
X137563100Y-42664147D01*
X137408228Y-42728297D01*
X137243816Y-42761000D01*
X137076184Y-42761000D01*
X136911772Y-42728297D01*
X136756900Y-42664147D01*
X136617519Y-42571015D01*
X136498985Y-42452481D01*
X136405853Y-42313100D01*
X136341703Y-42158228D01*
X136309000Y-41993816D01*
X136309000Y-41826184D01*
X136341703Y-41661772D01*
X136405853Y-41506900D01*
X136498985Y-41367519D01*
X136617519Y-41248985D01*
X136756900Y-41155853D01*
X136911772Y-41091703D01*
X137076184Y-41059000D01*
X137243816Y-41059000D01*
X137408228Y-41091703D01*
G37*
G36*
X124708228Y-41091703D02*
G01*
X124863100Y-41155853D01*
X125002481Y-41248985D01*
X125121015Y-41367519D01*
X125214147Y-41506900D01*
X125278297Y-41661772D01*
X125311000Y-41826184D01*
X125311000Y-41993816D01*
X125278297Y-42158228D01*
X125214147Y-42313100D01*
X125121015Y-42452481D01*
X125002481Y-42571015D01*
X124863100Y-42664147D01*
X124708228Y-42728297D01*
X124543816Y-42761000D01*
X124376184Y-42761000D01*
X124211772Y-42728297D01*
X124056900Y-42664147D01*
X123917519Y-42571015D01*
X123798985Y-42452481D01*
X123705853Y-42313100D01*
X123641703Y-42158228D01*
X123609000Y-41993816D01*
X123609000Y-41826184D01*
X123641703Y-41661772D01*
X123705853Y-41506900D01*
X123798985Y-41367519D01*
X123917519Y-41248985D01*
X124056900Y-41155853D01*
X124211772Y-41091703D01*
X124376184Y-41059000D01*
X124543816Y-41059000D01*
X124708228Y-41091703D01*
G37*
G36*
X160133512Y-40378927D02*
G01*
X160282812Y-40408624D01*
X160446784Y-40476544D01*
X160594354Y-40575147D01*
X160719853Y-40700646D01*
X160818456Y-40848216D01*
X160886376Y-41012188D01*
X160921000Y-41186259D01*
X160921000Y-41363741D01*
X160886376Y-41537812D01*
X160818456Y-41701784D01*
X160719853Y-41849354D01*
X160594354Y-41974853D01*
X160446784Y-42073456D01*
X160282812Y-42141376D01*
X160133512Y-42171073D01*
X160108742Y-42176000D01*
X159931258Y-42176000D01*
X159906488Y-42171073D01*
X159757188Y-42141376D01*
X159593216Y-42073456D01*
X159445646Y-41974853D01*
X159320147Y-41849354D01*
X159221544Y-41701784D01*
X159153624Y-41537812D01*
X159119000Y-41363741D01*
X159119000Y-41186259D01*
X159153624Y-41012188D01*
X159221544Y-40848216D01*
X159320147Y-40700646D01*
X159445646Y-40575147D01*
X159593216Y-40476544D01*
X159757188Y-40408624D01*
X159906488Y-40378927D01*
X159931258Y-40374000D01*
X160108742Y-40374000D01*
X160133512Y-40378927D01*
G37*
G36*
X72638228Y-39781703D02*
G01*
X72793100Y-39845853D01*
X72932481Y-39938985D01*
X73051015Y-40057519D01*
X73144147Y-40196900D01*
X73208297Y-40351772D01*
X73241000Y-40516184D01*
X73241000Y-40683816D01*
X73208297Y-40848228D01*
X73144147Y-41003100D01*
X73051015Y-41142481D01*
X72932481Y-41261015D01*
X72793100Y-41354147D01*
X72638228Y-41418297D01*
X72473816Y-41451000D01*
X72306184Y-41451000D01*
X72141772Y-41418297D01*
X71986900Y-41354147D01*
X71847519Y-41261015D01*
X71728985Y-41142481D01*
X71635853Y-41003100D01*
X71571703Y-40848228D01*
X71539000Y-40683816D01*
X71539000Y-40516184D01*
X71571703Y-40351772D01*
X71635853Y-40196900D01*
X71728985Y-40057519D01*
X71847519Y-39938985D01*
X71986900Y-39845853D01*
X72141772Y-39781703D01*
X72306184Y-39749000D01*
X72473816Y-39749000D01*
X72638228Y-39781703D01*
G37*
G36*
X56128228Y-39781703D02*
G01*
X56283100Y-39845853D01*
X56422481Y-39938985D01*
X56541015Y-40057519D01*
X56634147Y-40196900D01*
X56698297Y-40351772D01*
X56731000Y-40516184D01*
X56731000Y-40683816D01*
X56698297Y-40848228D01*
X56634147Y-41003100D01*
X56541015Y-41142481D01*
X56422481Y-41261015D01*
X56283100Y-41354147D01*
X56128228Y-41418297D01*
X55963816Y-41451000D01*
X55796184Y-41451000D01*
X55631772Y-41418297D01*
X55476900Y-41354147D01*
X55337519Y-41261015D01*
X55218985Y-41142481D01*
X55125853Y-41003100D01*
X55061703Y-40848228D01*
X55029000Y-40683816D01*
X55029000Y-40516184D01*
X55061703Y-40351772D01*
X55125853Y-40196900D01*
X55218985Y-40057519D01*
X55337519Y-39938985D01*
X55476900Y-39845853D01*
X55631772Y-39781703D01*
X55796184Y-39749000D01*
X55963816Y-39749000D01*
X56128228Y-39781703D01*
G37*
G36*
X63748228Y-39781703D02*
G01*
X63903100Y-39845853D01*
X64042481Y-39938985D01*
X64161015Y-40057519D01*
X64254147Y-40196900D01*
X64318297Y-40351772D01*
X64351000Y-40516184D01*
X64351000Y-40683816D01*
X64318297Y-40848228D01*
X64254147Y-41003100D01*
X64161015Y-41142481D01*
X64042481Y-41261015D01*
X63903100Y-41354147D01*
X63748228Y-41418297D01*
X63583816Y-41451000D01*
X63416184Y-41451000D01*
X63251772Y-41418297D01*
X63096900Y-41354147D01*
X62957519Y-41261015D01*
X62838985Y-41142481D01*
X62745853Y-41003100D01*
X62681703Y-40848228D01*
X62649000Y-40683816D01*
X62649000Y-40516184D01*
X62681703Y-40351772D01*
X62745853Y-40196900D01*
X62838985Y-40057519D01*
X62957519Y-39938985D01*
X63096900Y-39845853D01*
X63251772Y-39781703D01*
X63416184Y-39749000D01*
X63583816Y-39749000D01*
X63748228Y-39781703D01*
G37*
G36*
X124708228Y-38551703D02*
G01*
X124863100Y-38615853D01*
X125002481Y-38708985D01*
X125121015Y-38827519D01*
X125214147Y-38966900D01*
X125278297Y-39121772D01*
X125311000Y-39286184D01*
X125311000Y-39453816D01*
X125278297Y-39618228D01*
X125214147Y-39773100D01*
X125121015Y-39912481D01*
X125002481Y-40031015D01*
X124863100Y-40124147D01*
X124708228Y-40188297D01*
X124543816Y-40221000D01*
X124376184Y-40221000D01*
X124211772Y-40188297D01*
X124056900Y-40124147D01*
X123917519Y-40031015D01*
X123798985Y-39912481D01*
X123705853Y-39773100D01*
X123641703Y-39618228D01*
X123609000Y-39453816D01*
X123609000Y-39286184D01*
X123641703Y-39121772D01*
X123705853Y-38966900D01*
X123798985Y-38827519D01*
X123917519Y-38708985D01*
X124056900Y-38615853D01*
X124211772Y-38551703D01*
X124376184Y-38519000D01*
X124543816Y-38519000D01*
X124708228Y-38551703D01*
G37*
G36*
X137408228Y-38551703D02*
G01*
X137563100Y-38615853D01*
X137702481Y-38708985D01*
X137821015Y-38827519D01*
X137914147Y-38966900D01*
X137978297Y-39121772D01*
X138011000Y-39286184D01*
X138011000Y-39453816D01*
X137978297Y-39618228D01*
X137914147Y-39773100D01*
X137821015Y-39912481D01*
X137702481Y-40031015D01*
X137563100Y-40124147D01*
X137408228Y-40188297D01*
X137243816Y-40221000D01*
X137076184Y-40221000D01*
X136911772Y-40188297D01*
X136756900Y-40124147D01*
X136617519Y-40031015D01*
X136498985Y-39912481D01*
X136405853Y-39773100D01*
X136341703Y-39618228D01*
X136309000Y-39453816D01*
X136309000Y-39286184D01*
X136341703Y-39121772D01*
X136405853Y-38966900D01*
X136498985Y-38827519D01*
X136617519Y-38708985D01*
X136756900Y-38615853D01*
X136911772Y-38551703D01*
X137076184Y-38519000D01*
X137243816Y-38519000D01*
X137408228Y-38551703D01*
G37*
G36*
X92958228Y-38511703D02*
G01*
X93113100Y-38575853D01*
X93252481Y-38668985D01*
X93371015Y-38787519D01*
X93464147Y-38926900D01*
X93528297Y-39081772D01*
X93561000Y-39246184D01*
X93561000Y-39413816D01*
X93528297Y-39578228D01*
X93464147Y-39733100D01*
X93371015Y-39872481D01*
X93252481Y-39991015D01*
X93113100Y-40084147D01*
X92958228Y-40148297D01*
X92793816Y-40181000D01*
X92626184Y-40181000D01*
X92461772Y-40148297D01*
X92306900Y-40084147D01*
X92167519Y-39991015D01*
X92048985Y-39872481D01*
X91955853Y-39733100D01*
X91891703Y-39578228D01*
X91859000Y-39413816D01*
X91859000Y-39246184D01*
X91891703Y-39081772D01*
X91955853Y-38926900D01*
X92048985Y-38787519D01*
X92167519Y-38668985D01*
X92306900Y-38575853D01*
X92461772Y-38511703D01*
X92626184Y-38479000D01*
X92793816Y-38479000D01*
X92958228Y-38511703D01*
G37*
G36*
X160133512Y-37838927D02*
G01*
X160282812Y-37868624D01*
X160446784Y-37936544D01*
X160594354Y-38035147D01*
X160719853Y-38160646D01*
X160818456Y-38308216D01*
X160886376Y-38472188D01*
X160921000Y-38646259D01*
X160921000Y-38823741D01*
X160886376Y-38997812D01*
X160818456Y-39161784D01*
X160719853Y-39309354D01*
X160594354Y-39434853D01*
X160446784Y-39533456D01*
X160282812Y-39601376D01*
X160133512Y-39631073D01*
X160108742Y-39636000D01*
X159931258Y-39636000D01*
X159906488Y-39631073D01*
X159757188Y-39601376D01*
X159593216Y-39533456D01*
X159445646Y-39434853D01*
X159320147Y-39309354D01*
X159221544Y-39161784D01*
X159153624Y-38997812D01*
X159119000Y-38823741D01*
X159119000Y-38646259D01*
X159153624Y-38472188D01*
X159221544Y-38308216D01*
X159320147Y-38160646D01*
X159445646Y-38035147D01*
X159593216Y-37936544D01*
X159757188Y-37868624D01*
X159906488Y-37838927D01*
X159931258Y-37834000D01*
X160108742Y-37834000D01*
X160133512Y-37838927D01*
G37*
G36*
X56731000Y-38951000D02*
G01*
X55029000Y-38951000D01*
X55029000Y-37249000D01*
X56731000Y-37249000D01*
X56731000Y-38951000D01*
G37*
G36*
X64351000Y-38951000D02*
G01*
X62649000Y-38951000D01*
X62649000Y-37249000D01*
X64351000Y-37249000D01*
X64351000Y-38951000D01*
G37*
G36*
X73241000Y-38951000D02*
G01*
X71539000Y-38951000D01*
X71539000Y-37249000D01*
X73241000Y-37249000D01*
X73241000Y-38951000D01*
G37*
G36*
X44575589Y-37338876D02*
G01*
X44674893Y-37358629D01*
X44815206Y-37416748D01*
X44941484Y-37501125D01*
X45048875Y-37608516D01*
X45133252Y-37734794D01*
X45191371Y-37875107D01*
X45221000Y-38024063D01*
X45221000Y-38175937D01*
X45191371Y-38324893D01*
X45133252Y-38465206D01*
X45048875Y-38591484D01*
X44941484Y-38698875D01*
X44815206Y-38783252D01*
X44674893Y-38841371D01*
X44575589Y-38861124D01*
X44525938Y-38871000D01*
X44374062Y-38871000D01*
X44324411Y-38861124D01*
X44225107Y-38841371D01*
X44084794Y-38783252D01*
X43958516Y-38698875D01*
X43851125Y-38591484D01*
X43766748Y-38465206D01*
X43708629Y-38324893D01*
X43679000Y-38175937D01*
X43679000Y-38024063D01*
X43708629Y-37875107D01*
X43766748Y-37734794D01*
X43851125Y-37608516D01*
X43958516Y-37501125D01*
X44084794Y-37416748D01*
X44225107Y-37358629D01*
X44324411Y-37338876D01*
X44374062Y-37329000D01*
X44525938Y-37329000D01*
X44575589Y-37338876D01*
G37*
G36*
X137408228Y-36011703D02*
G01*
X137563100Y-36075853D01*
X137702481Y-36168985D01*
X137821015Y-36287519D01*
X137914147Y-36426900D01*
X137978297Y-36581772D01*
X138011000Y-36746184D01*
X138011000Y-36913816D01*
X137978297Y-37078228D01*
X137914147Y-37233100D01*
X137821015Y-37372481D01*
X137702481Y-37491015D01*
X137563100Y-37584147D01*
X137408228Y-37648297D01*
X137243816Y-37681000D01*
X137076184Y-37681000D01*
X136911772Y-37648297D01*
X136756900Y-37584147D01*
X136617519Y-37491015D01*
X136498985Y-37372481D01*
X136405853Y-37233100D01*
X136341703Y-37078228D01*
X136309000Y-36913816D01*
X136309000Y-36746184D01*
X136341703Y-36581772D01*
X136405853Y-36426900D01*
X136498985Y-36287519D01*
X136617519Y-36168985D01*
X136756900Y-36075853D01*
X136911772Y-36011703D01*
X137076184Y-35979000D01*
X137243816Y-35979000D01*
X137408228Y-36011703D01*
G37*
G36*
X93561000Y-37681000D02*
G01*
X91859000Y-37681000D01*
X91859000Y-35979000D01*
X93561000Y-35979000D01*
X93561000Y-37681000D01*
G37*
G36*
X124708228Y-36011703D02*
G01*
X124863100Y-36075853D01*
X125002481Y-36168985D01*
X125121015Y-36287519D01*
X125214147Y-36426900D01*
X125278297Y-36581772D01*
X125311000Y-36746184D01*
X125311000Y-36913816D01*
X125278297Y-37078228D01*
X125214147Y-37233100D01*
X125121015Y-37372481D01*
X125002481Y-37491015D01*
X124863100Y-37584147D01*
X124708228Y-37648297D01*
X124543816Y-37681000D01*
X124376184Y-37681000D01*
X124211772Y-37648297D01*
X124056900Y-37584147D01*
X123917519Y-37491015D01*
X123798985Y-37372481D01*
X123705853Y-37233100D01*
X123641703Y-37078228D01*
X123609000Y-36913816D01*
X123609000Y-36746184D01*
X123641703Y-36581772D01*
X123705853Y-36426900D01*
X123798985Y-36287519D01*
X123917519Y-36168985D01*
X124056900Y-36075853D01*
X124211772Y-36011703D01*
X124376184Y-35979000D01*
X124543816Y-35979000D01*
X124708228Y-36011703D01*
G37*
G36*
X160124769Y-35297188D02*
G01*
X160282812Y-35328624D01*
X160446784Y-35396544D01*
X160594354Y-35495147D01*
X160719853Y-35620646D01*
X160818456Y-35768216D01*
X160886376Y-35932188D01*
X160921000Y-36106259D01*
X160921000Y-36283741D01*
X160886376Y-36457812D01*
X160818456Y-36621784D01*
X160719853Y-36769354D01*
X160594354Y-36894853D01*
X160446784Y-36993456D01*
X160282812Y-37061376D01*
X160133512Y-37091073D01*
X160108742Y-37096000D01*
X159931258Y-37096000D01*
X159906488Y-37091073D01*
X159757188Y-37061376D01*
X159593216Y-36993456D01*
X159445646Y-36894853D01*
X159320147Y-36769354D01*
X159221544Y-36621784D01*
X159153624Y-36457812D01*
X159119000Y-36283741D01*
X159119000Y-36106259D01*
X159153624Y-35932188D01*
X159221544Y-35768216D01*
X159320147Y-35620646D01*
X159445646Y-35495147D01*
X159593216Y-35396544D01*
X159757188Y-35328624D01*
X159915231Y-35297188D01*
X159931258Y-35294000D01*
X160108742Y-35294000D01*
X160124769Y-35297188D01*
G37*
G36*
X105576822Y-34321313D02*
G01*
X105737241Y-34369976D01*
X105885077Y-34448995D01*
X105993807Y-34538228D01*
X106014659Y-34555341D01*
X106121004Y-34684922D01*
X106121005Y-34684924D01*
X106200024Y-34832758D01*
X106248687Y-34993177D01*
X106261000Y-35118196D01*
X106261000Y-36001803D01*
X106248687Y-36126822D01*
X106200024Y-36287242D01*
X106161959Y-36358456D01*
X106121004Y-36435078D01*
X106014659Y-36564659D01*
X105885078Y-36671004D01*
X105885076Y-36671005D01*
X105737242Y-36750024D01*
X105576823Y-36798687D01*
X105410000Y-36815117D01*
X105243178Y-36798687D01*
X105082759Y-36750024D01*
X104934925Y-36671005D01*
X104934923Y-36671004D01*
X104805342Y-36564659D01*
X104698997Y-36435078D01*
X104658042Y-36358456D01*
X104619977Y-36287242D01*
X104571314Y-36126823D01*
X104559000Y-36001803D01*
X104559000Y-35118197D01*
X104571313Y-34993178D01*
X104619976Y-34832759D01*
X104698995Y-34684923D01*
X104805341Y-34555341D01*
X104826193Y-34538228D01*
X104934922Y-34448996D01*
X104982253Y-34423697D01*
X105082758Y-34369976D01*
X105243177Y-34321313D01*
X105410000Y-34304883D01*
X105576822Y-34321313D01*
G37*
G36*
X103036822Y-34321313D02*
G01*
X103197241Y-34369976D01*
X103345077Y-34448995D01*
X103453807Y-34538228D01*
X103474659Y-34555341D01*
X103581004Y-34684922D01*
X103581005Y-34684924D01*
X103660024Y-34832758D01*
X103708687Y-34993177D01*
X103721000Y-35118196D01*
X103721000Y-36001803D01*
X103708687Y-36126822D01*
X103660024Y-36287242D01*
X103621959Y-36358456D01*
X103581004Y-36435078D01*
X103474659Y-36564659D01*
X103345078Y-36671004D01*
X103345076Y-36671005D01*
X103197242Y-36750024D01*
X103036823Y-36798687D01*
X102870000Y-36815117D01*
X102703178Y-36798687D01*
X102542759Y-36750024D01*
X102394925Y-36671005D01*
X102394923Y-36671004D01*
X102265342Y-36564659D01*
X102158997Y-36435078D01*
X102118042Y-36358456D01*
X102079977Y-36287242D01*
X102031314Y-36126823D01*
X102019000Y-36001803D01*
X102019000Y-35118197D01*
X102031313Y-34993178D01*
X102079976Y-34832759D01*
X102158995Y-34684923D01*
X102265341Y-34555341D01*
X102286193Y-34538228D01*
X102394922Y-34448996D01*
X102442253Y-34423697D01*
X102542758Y-34369976D01*
X102703177Y-34321313D01*
X102870000Y-34304883D01*
X103036822Y-34321313D01*
G37*
G36*
X100496822Y-34321313D02*
G01*
X100657241Y-34369976D01*
X100805077Y-34448995D01*
X100913807Y-34538228D01*
X100934659Y-34555341D01*
X101041004Y-34684922D01*
X101041005Y-34684924D01*
X101120024Y-34832758D01*
X101168687Y-34993177D01*
X101181000Y-35118196D01*
X101181000Y-36001803D01*
X101168687Y-36126822D01*
X101120024Y-36287242D01*
X101081959Y-36358456D01*
X101041004Y-36435078D01*
X100934659Y-36564659D01*
X100805078Y-36671004D01*
X100805076Y-36671005D01*
X100657242Y-36750024D01*
X100496823Y-36798687D01*
X100330000Y-36815117D01*
X100163178Y-36798687D01*
X100002759Y-36750024D01*
X99854925Y-36671005D01*
X99854923Y-36671004D01*
X99725342Y-36564659D01*
X99618997Y-36435078D01*
X99578042Y-36358456D01*
X99539977Y-36287242D01*
X99491314Y-36126823D01*
X99479000Y-36001803D01*
X99479000Y-35118197D01*
X99491313Y-34993178D01*
X99539976Y-34832759D01*
X99618995Y-34684923D01*
X99725341Y-34555341D01*
X99746193Y-34538228D01*
X99854922Y-34448996D01*
X99902253Y-34423697D01*
X100002758Y-34369976D01*
X100163177Y-34321313D01*
X100330000Y-34304883D01*
X100496822Y-34321313D01*
G37*
G36*
X97956822Y-34321313D02*
G01*
X98117241Y-34369976D01*
X98265077Y-34448995D01*
X98373807Y-34538228D01*
X98394659Y-34555341D01*
X98501004Y-34684922D01*
X98501005Y-34684924D01*
X98580024Y-34832758D01*
X98628687Y-34993177D01*
X98641000Y-35118196D01*
X98641000Y-36001803D01*
X98628687Y-36126822D01*
X98580024Y-36287242D01*
X98541959Y-36358456D01*
X98501004Y-36435078D01*
X98394659Y-36564659D01*
X98265078Y-36671004D01*
X98265076Y-36671005D01*
X98117242Y-36750024D01*
X97956823Y-36798687D01*
X97790000Y-36815117D01*
X97623178Y-36798687D01*
X97462759Y-36750024D01*
X97314925Y-36671005D01*
X97314923Y-36671004D01*
X97185342Y-36564659D01*
X97078997Y-36435078D01*
X97038042Y-36358456D01*
X96999977Y-36287242D01*
X96951314Y-36126823D01*
X96939000Y-36001803D01*
X96939000Y-35118197D01*
X96951313Y-34993178D01*
X96999976Y-34832759D01*
X97078995Y-34684923D01*
X97185341Y-34555341D01*
X97206193Y-34538228D01*
X97314922Y-34448996D01*
X97362253Y-34423697D01*
X97462758Y-34369976D01*
X97623177Y-34321313D01*
X97790000Y-34304883D01*
X97956822Y-34321313D01*
G37*
G36*
X86626000Y-36461000D02*
G01*
X84824000Y-36461000D01*
X84824000Y-34659000D01*
X86626000Y-34659000D01*
X86626000Y-36461000D01*
G37*
G36*
X88378512Y-34663927D02*
G01*
X88527812Y-34693624D01*
X88691784Y-34761544D01*
X88839354Y-34860147D01*
X88964853Y-34985646D01*
X89063456Y-35133216D01*
X89131376Y-35297188D01*
X89166000Y-35471259D01*
X89166000Y-35648741D01*
X89131376Y-35822812D01*
X89063456Y-35986784D01*
X88964853Y-36134354D01*
X88839354Y-36259853D01*
X88691784Y-36358456D01*
X88527812Y-36426376D01*
X88378512Y-36456073D01*
X88353742Y-36461000D01*
X88176258Y-36461000D01*
X88151488Y-36456073D01*
X88002188Y-36426376D01*
X87838216Y-36358456D01*
X87690646Y-36259853D01*
X87565147Y-36134354D01*
X87466544Y-35986784D01*
X87398624Y-35822812D01*
X87364000Y-35648741D01*
X87364000Y-35471259D01*
X87398624Y-35297188D01*
X87466544Y-35133216D01*
X87565147Y-34985646D01*
X87690646Y-34860147D01*
X87838216Y-34761544D01*
X88002188Y-34693624D01*
X88151488Y-34663927D01*
X88176258Y-34659000D01*
X88353742Y-34659000D01*
X88378512Y-34663927D01*
G37*
G36*
X113155589Y-34798876D02*
G01*
X113254893Y-34818629D01*
X113395206Y-34876748D01*
X113521484Y-34961125D01*
X113628875Y-35068516D01*
X113713252Y-35194794D01*
X113771371Y-35335107D01*
X113801000Y-35484063D01*
X113801000Y-35635937D01*
X113771371Y-35784893D01*
X113713252Y-35925206D01*
X113628875Y-36051484D01*
X113521484Y-36158875D01*
X113395206Y-36243252D01*
X113254893Y-36301371D01*
X113155589Y-36321124D01*
X113105938Y-36331000D01*
X112954062Y-36331000D01*
X112904411Y-36321124D01*
X112805107Y-36301371D01*
X112664794Y-36243252D01*
X112538516Y-36158875D01*
X112431125Y-36051484D01*
X112346748Y-35925206D01*
X112288629Y-35784893D01*
X112259000Y-35635937D01*
X112259000Y-35484063D01*
X112288629Y-35335107D01*
X112346748Y-35194794D01*
X112431125Y-35068516D01*
X112538516Y-34961125D01*
X112664794Y-34876748D01*
X112805107Y-34818629D01*
X112904411Y-34798876D01*
X112954062Y-34789000D01*
X113105938Y-34789000D01*
X113155589Y-34798876D01*
G37*
G36*
X47115589Y-34798876D02*
G01*
X47214893Y-34818629D01*
X47355206Y-34876748D01*
X47481484Y-34961125D01*
X47588875Y-35068516D01*
X47673252Y-35194794D01*
X47731371Y-35335107D01*
X47761000Y-35484063D01*
X47761000Y-35635937D01*
X47731371Y-35784893D01*
X47673252Y-35925206D01*
X47588875Y-36051484D01*
X47481484Y-36158875D01*
X47355206Y-36243252D01*
X47214893Y-36301371D01*
X47115589Y-36321124D01*
X47065938Y-36331000D01*
X46914062Y-36331000D01*
X46864411Y-36321124D01*
X46765107Y-36301371D01*
X46624794Y-36243252D01*
X46498516Y-36158875D01*
X46391125Y-36051484D01*
X46306748Y-35925206D01*
X46248629Y-35784893D01*
X46219000Y-35635937D01*
X46219000Y-35484063D01*
X46248629Y-35335107D01*
X46306748Y-35194794D01*
X46391125Y-35068516D01*
X46498516Y-34961125D01*
X46624794Y-34876748D01*
X46765107Y-34818629D01*
X46864411Y-34798876D01*
X46914062Y-34789000D01*
X47065938Y-34789000D01*
X47115589Y-34798876D01*
G37*
G36*
X42035589Y-34798876D02*
G01*
X42134893Y-34818629D01*
X42275206Y-34876748D01*
X42401484Y-34961125D01*
X42508875Y-35068516D01*
X42593252Y-35194794D01*
X42651371Y-35335107D01*
X42681000Y-35484063D01*
X42681000Y-35635937D01*
X42651371Y-35784893D01*
X42593252Y-35925206D01*
X42508875Y-36051484D01*
X42401484Y-36158875D01*
X42275206Y-36243252D01*
X42134893Y-36301371D01*
X42035589Y-36321124D01*
X41985938Y-36331000D01*
X41834062Y-36331000D01*
X41784411Y-36321124D01*
X41685107Y-36301371D01*
X41544794Y-36243252D01*
X41418516Y-36158875D01*
X41311125Y-36051484D01*
X41226748Y-35925206D01*
X41168629Y-35784893D01*
X41139000Y-35635937D01*
X41139000Y-35484063D01*
X41168629Y-35335107D01*
X41226748Y-35194794D01*
X41311125Y-35068516D01*
X41418516Y-34961125D01*
X41544794Y-34876748D01*
X41685107Y-34818629D01*
X41784411Y-34798876D01*
X41834062Y-34789000D01*
X41985938Y-34789000D01*
X42035589Y-34798876D01*
G37*
G36*
X124708228Y-33471703D02*
G01*
X124863100Y-33535853D01*
X125002481Y-33628985D01*
X125121015Y-33747519D01*
X125214147Y-33886900D01*
X125278297Y-34041772D01*
X125311000Y-34206184D01*
X125311000Y-34373816D01*
X125278297Y-34538228D01*
X125214147Y-34693100D01*
X125121015Y-34832481D01*
X125002481Y-34951015D01*
X124863100Y-35044147D01*
X124708228Y-35108297D01*
X124543816Y-35141000D01*
X124376184Y-35141000D01*
X124211772Y-35108297D01*
X124056900Y-35044147D01*
X123917519Y-34951015D01*
X123798985Y-34832481D01*
X123705853Y-34693100D01*
X123641703Y-34538228D01*
X123609000Y-34373816D01*
X123609000Y-34206184D01*
X123641703Y-34041772D01*
X123705853Y-33886900D01*
X123798985Y-33747519D01*
X123917519Y-33628985D01*
X124056900Y-33535853D01*
X124211772Y-33471703D01*
X124376184Y-33439000D01*
X124543816Y-33439000D01*
X124708228Y-33471703D01*
G37*
G36*
X137408228Y-33471703D02*
G01*
X137563100Y-33535853D01*
X137702481Y-33628985D01*
X137821015Y-33747519D01*
X137914147Y-33886900D01*
X137978297Y-34041772D01*
X138011000Y-34206184D01*
X138011000Y-34373816D01*
X137978297Y-34538228D01*
X137914147Y-34693100D01*
X137821015Y-34832481D01*
X137702481Y-34951015D01*
X137563100Y-35044147D01*
X137408228Y-35108297D01*
X137243816Y-35141000D01*
X137076184Y-35141000D01*
X136911772Y-35108297D01*
X136756900Y-35044147D01*
X136617519Y-34951015D01*
X136498985Y-34832481D01*
X136405853Y-34693100D01*
X136341703Y-34538228D01*
X136309000Y-34373816D01*
X136309000Y-34206184D01*
X136341703Y-34041772D01*
X136405853Y-33886900D01*
X136498985Y-33747519D01*
X136617519Y-33628985D01*
X136756900Y-33535853D01*
X136911772Y-33471703D01*
X137076184Y-33439000D01*
X137243816Y-33439000D01*
X137408228Y-33471703D01*
G37*
G36*
X160921000Y-34556000D02*
G01*
X159119000Y-34556000D01*
X159119000Y-32754000D01*
X160921000Y-32754000D01*
X160921000Y-34556000D01*
G37*
G36*
X32066366Y-30855695D02*
G01*
X32223460Y-30903349D01*
X32368231Y-30980731D01*
X32495128Y-31084872D01*
X32599269Y-31211769D01*
X32676651Y-31356540D01*
X32724305Y-31513634D01*
X32741000Y-31683140D01*
X32741000Y-33596860D01*
X32724305Y-33766366D01*
X32676651Y-33923460D01*
X32599269Y-34068231D01*
X32495128Y-34195128D01*
X32368231Y-34299269D01*
X32223460Y-34376651D01*
X32066366Y-34424305D01*
X31896860Y-34441000D01*
X29983140Y-34441000D01*
X29813634Y-34424305D01*
X29656540Y-34376651D01*
X29511769Y-34299269D01*
X29384872Y-34195128D01*
X29280731Y-34068231D01*
X29203349Y-33923460D01*
X29155695Y-33766366D01*
X29139000Y-33596860D01*
X29139000Y-31683140D01*
X29155695Y-31513634D01*
X29203349Y-31356540D01*
X29280731Y-31211769D01*
X29384872Y-31084872D01*
X29511769Y-30980731D01*
X29656540Y-30903349D01*
X29813634Y-30855695D01*
X29983140Y-30839000D01*
X31896860Y-30839000D01*
X32066366Y-30855695D01*
G37*
G36*
X68776719Y-31983520D02*
G01*
X68965880Y-32040901D01*
X68965883Y-32040902D01*
X69058333Y-32090318D01*
X69140212Y-32134083D01*
X69293015Y-32259485D01*
X69418417Y-32412288D01*
X69511599Y-32586619D01*
X69568980Y-32775780D01*
X69583500Y-32923206D01*
X69583500Y-33116793D01*
X69568980Y-33264219D01*
X69532280Y-33385204D01*
X69511598Y-33453383D01*
X69465033Y-33540500D01*
X69418417Y-33627712D01*
X69293015Y-33780515D01*
X69140212Y-33905917D01*
X68965881Y-33999099D01*
X68776720Y-34056480D01*
X68580000Y-34075855D01*
X68383281Y-34056480D01*
X68194120Y-33999099D01*
X68019788Y-33905917D01*
X67866985Y-33780515D01*
X67741583Y-33627712D01*
X67648401Y-33453381D01*
X67591020Y-33264220D01*
X67576500Y-33116794D01*
X67576500Y-32923207D01*
X67591020Y-32775781D01*
X67648401Y-32586620D01*
X67648402Y-32586617D01*
X67736860Y-32421125D01*
X67741583Y-32412288D01*
X67866985Y-32259485D01*
X68019788Y-32134083D01*
X68194119Y-32040901D01*
X68383280Y-31983520D01*
X68580000Y-31964145D01*
X68776719Y-31983520D01*
G37*
G36*
X66236719Y-31983520D02*
G01*
X66425880Y-32040901D01*
X66425883Y-32040902D01*
X66518333Y-32090318D01*
X66600212Y-32134083D01*
X66753015Y-32259485D01*
X66878417Y-32412288D01*
X66971599Y-32586619D01*
X67028980Y-32775780D01*
X67043500Y-32923206D01*
X67043500Y-33116793D01*
X67028980Y-33264219D01*
X66992280Y-33385204D01*
X66971598Y-33453383D01*
X66925033Y-33540500D01*
X66878417Y-33627712D01*
X66753015Y-33780515D01*
X66600212Y-33905917D01*
X66425881Y-33999099D01*
X66236720Y-34056480D01*
X66040000Y-34075855D01*
X65843281Y-34056480D01*
X65654120Y-33999099D01*
X65479788Y-33905917D01*
X65326985Y-33780515D01*
X65201583Y-33627712D01*
X65108401Y-33453381D01*
X65051020Y-33264220D01*
X65036500Y-33116794D01*
X65036500Y-32923207D01*
X65051020Y-32775781D01*
X65108401Y-32586620D01*
X65108402Y-32586617D01*
X65196860Y-32421125D01*
X65201583Y-32412288D01*
X65326985Y-32259485D01*
X65479788Y-32134083D01*
X65654119Y-32040901D01*
X65843280Y-31983520D01*
X66040000Y-31964145D01*
X66236719Y-31983520D01*
G37*
G36*
X64503500Y-34071000D02*
G01*
X62496500Y-34071000D01*
X62496500Y-31969000D01*
X64503500Y-31969000D01*
X64503500Y-34071000D01*
G37*
G36*
X110615589Y-32258876D02*
G01*
X110714893Y-32278629D01*
X110855206Y-32336748D01*
X110981484Y-32421125D01*
X111088875Y-32528516D01*
X111173252Y-32654794D01*
X111231371Y-32795107D01*
X111261000Y-32944063D01*
X111261000Y-33095937D01*
X111231371Y-33244893D01*
X111173252Y-33385206D01*
X111088875Y-33511484D01*
X110981484Y-33618875D01*
X110855206Y-33703252D01*
X110714893Y-33761371D01*
X110618649Y-33780515D01*
X110565938Y-33791000D01*
X110414062Y-33791000D01*
X110361351Y-33780515D01*
X110265107Y-33761371D01*
X110124794Y-33703252D01*
X109998516Y-33618875D01*
X109891125Y-33511484D01*
X109806748Y-33385206D01*
X109748629Y-33244893D01*
X109719000Y-33095937D01*
X109719000Y-32944063D01*
X109748629Y-32795107D01*
X109806748Y-32654794D01*
X109891125Y-32528516D01*
X109998516Y-32421125D01*
X110124794Y-32336748D01*
X110265107Y-32278629D01*
X110364411Y-32258876D01*
X110414062Y-32249000D01*
X110565938Y-32249000D01*
X110615589Y-32258876D01*
G37*
G36*
X115695589Y-32258876D02*
G01*
X115794893Y-32278629D01*
X115935206Y-32336748D01*
X116061484Y-32421125D01*
X116168875Y-32528516D01*
X116253252Y-32654794D01*
X116311371Y-32795107D01*
X116341000Y-32944063D01*
X116341000Y-33095937D01*
X116311371Y-33244893D01*
X116253252Y-33385206D01*
X116168875Y-33511484D01*
X116061484Y-33618875D01*
X115935206Y-33703252D01*
X115794893Y-33761371D01*
X115698649Y-33780515D01*
X115645938Y-33791000D01*
X115494062Y-33791000D01*
X115441351Y-33780515D01*
X115345107Y-33761371D01*
X115204794Y-33703252D01*
X115078516Y-33618875D01*
X114971125Y-33511484D01*
X114886748Y-33385206D01*
X114828629Y-33244893D01*
X114799000Y-33095937D01*
X114799000Y-32944063D01*
X114828629Y-32795107D01*
X114886748Y-32654794D01*
X114971125Y-32528516D01*
X115078516Y-32421125D01*
X115204794Y-32336748D01*
X115345107Y-32278629D01*
X115444411Y-32258876D01*
X115494062Y-32249000D01*
X115645938Y-32249000D01*
X115695589Y-32258876D01*
G37*
G36*
X124708228Y-30931703D02*
G01*
X124863100Y-30995853D01*
X125002481Y-31088985D01*
X125121015Y-31207519D01*
X125214147Y-31346900D01*
X125278297Y-31501772D01*
X125311000Y-31666184D01*
X125311000Y-31833816D01*
X125278297Y-31998228D01*
X125214147Y-32153100D01*
X125121015Y-32292481D01*
X125002481Y-32411015D01*
X124863100Y-32504147D01*
X124708228Y-32568297D01*
X124543816Y-32601000D01*
X124376184Y-32601000D01*
X124211772Y-32568297D01*
X124056900Y-32504147D01*
X123917519Y-32411015D01*
X123798985Y-32292481D01*
X123705853Y-32153100D01*
X123641703Y-31998228D01*
X123609000Y-31833816D01*
X123609000Y-31666184D01*
X123641703Y-31501772D01*
X123705853Y-31346900D01*
X123798985Y-31207519D01*
X123917519Y-31088985D01*
X124056900Y-30995853D01*
X124211772Y-30931703D01*
X124376184Y-30899000D01*
X124543816Y-30899000D01*
X124708228Y-30931703D01*
G37*
G36*
X98641000Y-32601000D02*
G01*
X96939000Y-32601000D01*
X96939000Y-30899000D01*
X98641000Y-30899000D01*
X98641000Y-32601000D01*
G37*
G36*
X137408228Y-30931703D02*
G01*
X137563100Y-30995853D01*
X137702481Y-31088985D01*
X137821015Y-31207519D01*
X137914147Y-31346900D01*
X137978297Y-31501772D01*
X138011000Y-31666184D01*
X138011000Y-31833816D01*
X137978297Y-31998228D01*
X137914147Y-32153100D01*
X137821015Y-32292481D01*
X137702481Y-32411015D01*
X137563100Y-32504147D01*
X137408228Y-32568297D01*
X137243816Y-32601000D01*
X137076184Y-32601000D01*
X136911772Y-32568297D01*
X136756900Y-32504147D01*
X136617519Y-32411015D01*
X136498985Y-32292481D01*
X136405853Y-32153100D01*
X136341703Y-31998228D01*
X136309000Y-31833816D01*
X136309000Y-31666184D01*
X136341703Y-31501772D01*
X136405853Y-31346900D01*
X136498985Y-31207519D01*
X136617519Y-31088985D01*
X136756900Y-30995853D01*
X136911772Y-30931703D01*
X137076184Y-30899000D01*
X137243816Y-30899000D01*
X137408228Y-30931703D01*
G37*
G36*
X104991000Y-32601000D02*
G01*
X103289000Y-32601000D01*
X103289000Y-30899000D01*
X104991000Y-30899000D01*
X104991000Y-32601000D01*
G37*
G36*
X104388228Y-28431703D02*
G01*
X104543100Y-28495853D01*
X104682481Y-28588985D01*
X104801015Y-28707519D01*
X104894147Y-28846900D01*
X104958297Y-29001772D01*
X104991000Y-29166184D01*
X104991000Y-29333816D01*
X104958297Y-29498228D01*
X104894147Y-29653100D01*
X104801015Y-29792481D01*
X104682481Y-29911015D01*
X104543100Y-30004147D01*
X104388228Y-30068297D01*
X104223816Y-30101000D01*
X104056184Y-30101000D01*
X103891772Y-30068297D01*
X103736900Y-30004147D01*
X103597519Y-29911015D01*
X103478985Y-29792481D01*
X103385853Y-29653100D01*
X103321703Y-29498228D01*
X103289000Y-29333816D01*
X103289000Y-29166184D01*
X103321703Y-29001772D01*
X103385853Y-28846900D01*
X103478985Y-28707519D01*
X103597519Y-28588985D01*
X103736900Y-28495853D01*
X103891772Y-28431703D01*
X104056184Y-28399000D01*
X104223816Y-28399000D01*
X104388228Y-28431703D01*
G37*
G36*
X98038228Y-28431703D02*
G01*
X98193100Y-28495853D01*
X98332481Y-28588985D01*
X98451015Y-28707519D01*
X98544147Y-28846900D01*
X98608297Y-29001772D01*
X98641000Y-29166184D01*
X98641000Y-29333816D01*
X98608297Y-29498228D01*
X98544147Y-29653100D01*
X98451015Y-29792481D01*
X98332481Y-29911015D01*
X98193100Y-30004147D01*
X98038228Y-30068297D01*
X97873816Y-30101000D01*
X97706184Y-30101000D01*
X97541772Y-30068297D01*
X97386900Y-30004147D01*
X97247519Y-29911015D01*
X97128985Y-29792481D01*
X97035853Y-29653100D01*
X96971703Y-29498228D01*
X96939000Y-29333816D01*
X96939000Y-29166184D01*
X96971703Y-29001772D01*
X97035853Y-28846900D01*
X97128985Y-28707519D01*
X97247519Y-28588985D01*
X97386900Y-28495853D01*
X97541772Y-28431703D01*
X97706184Y-28399000D01*
X97873816Y-28399000D01*
X98038228Y-28431703D01*
G37*
G36*
X137408228Y-28391703D02*
G01*
X137563100Y-28455853D01*
X137702481Y-28548985D01*
X137821015Y-28667519D01*
X137914147Y-28806900D01*
X137978297Y-28961772D01*
X138011000Y-29126184D01*
X138011000Y-29293816D01*
X137978297Y-29458228D01*
X137914147Y-29613100D01*
X137821015Y-29752481D01*
X137702481Y-29871015D01*
X137563100Y-29964147D01*
X137408228Y-30028297D01*
X137243816Y-30061000D01*
X137076184Y-30061000D01*
X136911772Y-30028297D01*
X136756900Y-29964147D01*
X136617519Y-29871015D01*
X136498985Y-29752481D01*
X136405853Y-29613100D01*
X136341703Y-29458228D01*
X136309000Y-29293816D01*
X136309000Y-29126184D01*
X136341703Y-28961772D01*
X136405853Y-28806900D01*
X136498985Y-28667519D01*
X136617519Y-28548985D01*
X136756900Y-28455853D01*
X136911772Y-28391703D01*
X137076184Y-28359000D01*
X137243816Y-28359000D01*
X137408228Y-28391703D01*
G37*
G36*
X124708228Y-28391703D02*
G01*
X124863100Y-28455853D01*
X125002481Y-28548985D01*
X125121015Y-28667519D01*
X125214147Y-28806900D01*
X125278297Y-28961772D01*
X125311000Y-29126184D01*
X125311000Y-29293816D01*
X125278297Y-29458228D01*
X125214147Y-29613100D01*
X125121015Y-29752481D01*
X125002481Y-29871015D01*
X124863100Y-29964147D01*
X124708228Y-30028297D01*
X124543816Y-30061000D01*
X124376184Y-30061000D01*
X124211772Y-30028297D01*
X124056900Y-29964147D01*
X123917519Y-29871015D01*
X123798985Y-29752481D01*
X123705853Y-29613100D01*
X123641703Y-29458228D01*
X123609000Y-29293816D01*
X123609000Y-29126184D01*
X123641703Y-28961772D01*
X123705853Y-28806900D01*
X123798985Y-28667519D01*
X123917519Y-28548985D01*
X124056900Y-28455853D01*
X124211772Y-28391703D01*
X124376184Y-28359000D01*
X124543816Y-28359000D01*
X124708228Y-28391703D01*
G37*
G36*
X35741000Y-29741000D02*
G01*
X32139000Y-29741000D01*
X32139000Y-26139000D01*
X35741000Y-26139000D01*
X35741000Y-29741000D01*
G37*
G36*
X28916979Y-26153293D02*
G01*
X29050625Y-26193834D01*
X29173784Y-26259664D01*
X29281740Y-26348260D01*
X29370336Y-26456216D01*
X29436166Y-26579375D01*
X29476707Y-26713021D01*
X29491000Y-26858140D01*
X29491000Y-29021860D01*
X29476707Y-29166979D01*
X29436166Y-29300625D01*
X29370336Y-29423784D01*
X29281740Y-29531740D01*
X29173784Y-29620336D01*
X29050625Y-29686166D01*
X28916979Y-29726707D01*
X28771860Y-29741000D01*
X27108140Y-29741000D01*
X26963021Y-29726707D01*
X26829375Y-29686166D01*
X26706216Y-29620336D01*
X26598260Y-29531740D01*
X26509664Y-29423784D01*
X26443834Y-29300625D01*
X26403293Y-29166979D01*
X26389000Y-29021860D01*
X26389000Y-26858140D01*
X26403293Y-26713021D01*
X26443834Y-26579375D01*
X26509664Y-26456216D01*
X26598260Y-26348260D01*
X26706216Y-26259664D01*
X26829375Y-26193834D01*
X26963021Y-26153293D01*
X27108140Y-26139000D01*
X28771860Y-26139000D01*
X28916979Y-26153293D01*
G37*
G36*
X144361000Y-29426000D02*
G01*
X142659000Y-29426000D01*
X142659000Y-27724000D01*
X144361000Y-27724000D01*
X144361000Y-29426000D01*
G37*
G36*
X137408228Y-25851703D02*
G01*
X137563100Y-25915853D01*
X137702481Y-26008985D01*
X137821015Y-26127519D01*
X137914147Y-26266900D01*
X137978297Y-26421772D01*
X138011000Y-26586184D01*
X138011000Y-26753816D01*
X137978297Y-26918228D01*
X137914147Y-27073100D01*
X137821015Y-27212481D01*
X137702481Y-27331015D01*
X137563100Y-27424147D01*
X137408228Y-27488297D01*
X137243816Y-27521000D01*
X137076184Y-27521000D01*
X136911772Y-27488297D01*
X136756900Y-27424147D01*
X136617519Y-27331015D01*
X136498985Y-27212481D01*
X136405853Y-27073100D01*
X136341703Y-26918228D01*
X136309000Y-26753816D01*
X136309000Y-26586184D01*
X136341703Y-26421772D01*
X136405853Y-26266900D01*
X136498985Y-26127519D01*
X136617519Y-26008985D01*
X136756900Y-25915853D01*
X136911772Y-25851703D01*
X137076184Y-25819000D01*
X137243816Y-25819000D01*
X137408228Y-25851703D01*
G37*
G36*
X124708228Y-25851703D02*
G01*
X124863100Y-25915853D01*
X125002481Y-26008985D01*
X125121015Y-26127519D01*
X125214147Y-26266900D01*
X125278297Y-26421772D01*
X125311000Y-26586184D01*
X125311000Y-26753816D01*
X125278297Y-26918228D01*
X125214147Y-27073100D01*
X125121015Y-27212481D01*
X125002481Y-27331015D01*
X124863100Y-27424147D01*
X124708228Y-27488297D01*
X124543816Y-27521000D01*
X124376184Y-27521000D01*
X124211772Y-27488297D01*
X124056900Y-27424147D01*
X123917519Y-27331015D01*
X123798985Y-27212481D01*
X123705853Y-27073100D01*
X123641703Y-26918228D01*
X123609000Y-26753816D01*
X123609000Y-26586184D01*
X123641703Y-26421772D01*
X123705853Y-26266900D01*
X123798985Y-26127519D01*
X123917519Y-26008985D01*
X124056900Y-25915853D01*
X124211772Y-25851703D01*
X124376184Y-25819000D01*
X124543816Y-25819000D01*
X124708228Y-25851703D01*
G37*
G36*
X143758228Y-25256703D02*
G01*
X143913100Y-25320853D01*
X144052481Y-25413985D01*
X144171015Y-25532519D01*
X144264147Y-25671900D01*
X144328297Y-25826772D01*
X144361000Y-25991184D01*
X144361000Y-26158816D01*
X144328297Y-26323228D01*
X144264147Y-26478100D01*
X144171015Y-26617481D01*
X144052481Y-26736015D01*
X143913100Y-26829147D01*
X143758228Y-26893297D01*
X143593816Y-26926000D01*
X143426184Y-26926000D01*
X143261772Y-26893297D01*
X143106900Y-26829147D01*
X142967519Y-26736015D01*
X142848985Y-26617481D01*
X142755853Y-26478100D01*
X142691703Y-26323228D01*
X142659000Y-26158816D01*
X142659000Y-25991184D01*
X142691703Y-25826772D01*
X142755853Y-25671900D01*
X142848985Y-25532519D01*
X142967519Y-25413985D01*
X143106900Y-25320853D01*
X143261772Y-25256703D01*
X143426184Y-25224000D01*
X143593816Y-25224000D01*
X143758228Y-25256703D01*
G37*
M02*
