M48
; DRILL file {KiCad 5.1.5-52549c5~86~ubuntu18.04.1} date Wed Apr  1 00:41:16 2020
; FORMAT={-:-/ absolute / inch / decimal}
; #@! TF.CreationDate,2020-04-01T00:41:16+05:30
; #@! TF.GenerationSoftware,Kicad,Pcbnew,5.1.5-52549c5~86~ubuntu18.04.1
; #@! TF.FileFunction,Plated,1,2,PTH
FMAT,2
INCH
T1C0.0157
T2C0.0315
T3C0.0394
T4C0.0433
T5C0.0472
T6C0.0984
%
G90
G05
T1
X2.25Y-2.175
X2.7Y-2.125
X3.55Y-2.325
X3.575Y-2.375
X3.7Y-2.075
X3.725Y-1.75
X3.725Y-2.275
X3.775Y-2.325
X3.775Y-2.375
X3.925Y-3.575
X4.075Y-3.325
X4.1Y-2.275
X4.1Y-2.65
X4.15Y-2.8
X4.15Y-3.275
X4.175Y-2.35
X4.175Y-2.475
X4.25Y-1.7
X4.25Y-2.4
X4.35Y-3.0
X4.45Y-3.05
X4.45Y-3.35
X4.5Y-2.45
X4.5Y-2.85
X4.5Y-3.55
X4.55Y-3.45
X4.6Y-2.45
X4.65Y-2.9
X4.8Y-3.65
X4.85Y-3.55
X4.85Y-3.7
X4.9Y-2.625
X4.9Y-2.8
X4.9Y-3.55
X4.95Y-3.55
X4.95Y-3.7
X5.05Y-2.4
X5.05Y-2.5
X5.05Y-3.55
X5.05Y-3.7
X5.125Y-3.55
X5.125Y-3.7
X5.2Y-3.775
X5.25Y-1.825
X5.25Y-2.15
X5.25Y-3.75
X5.45Y-3.0
X5.45Y-3.4
X5.475Y-2.65
X5.475Y-2.875
X5.525Y-3.125
X5.625Y-1.6
X5.65Y-2.6
X5.65Y-2.875
X5.775Y-3.55
X5.8Y-3.625
X5.8Y-3.825
X6.025Y-2.55
X6.025Y-2.775
X6.025Y-3.525
X6.075Y-3.675
X6.1Y-2.35
X6.4Y-2.825
X6.4Y-2.975
T2
X4.1Y-1.1516
X4.1Y-1.25
X1.65Y-1.4
X1.75Y-1.5
X1.85Y-1.4
X2.5Y-1.5
X2.5Y-1.5984
X4.35Y-1.3
X4.45Y-1.4
X4.55Y-1.3
X2.85Y-1.5
X2.85Y-1.5984
X4.9Y-1.05
X4.9Y-1.15
X4.9Y-1.25
X4.9Y-1.35
X4.9Y-1.45
X4.9Y-1.55
X4.9Y-1.65
X4.9Y-1.75
X5.4Y-1.05
X5.4Y-1.15
X5.4Y-1.25
X5.4Y-1.35
X5.4Y-1.45
X5.4Y-1.55
X5.4Y-1.65
X5.4Y-1.75
X3.65Y-1.45
X3.65Y-1.5484
X2.2Y-1.5
X2.2Y-1.5984
X5.65Y-1.0266
X5.65Y-1.125
X3.85Y-1.1516
X3.85Y-1.25
X4.75Y-2.1
X4.75Y-2.2
X4.75Y-2.3
X4.75Y-2.4
X4.75Y-2.5
X4.75Y-2.6
X4.75Y-2.7
X4.75Y-2.8
X4.75Y-2.9
X4.75Y-3.0
X4.75Y-3.1
X4.75Y-3.2
X4.75Y-3.3
X4.75Y-3.4
X4.75Y-3.5
X5.35Y-2.1
X5.35Y-2.2
X5.35Y-2.3
X5.35Y-2.4
X5.35Y-2.5
X5.35Y-2.6
X5.35Y-2.7
X5.35Y-2.8
X5.35Y-2.9
X5.35Y-3.0
X5.35Y-3.1
X5.35Y-3.2
X5.35Y-3.3
X5.35Y-3.4
X5.35Y-3.5
X3.85Y-1.4
X3.85Y-1.7
X3.95Y-1.4
X3.95Y-1.7
X4.05Y-1.4
X4.05Y-1.7
X4.15Y-1.4
X4.15Y-1.7
T3
X6.3Y-1.325
X6.3Y-1.425
X6.3Y-1.525
X6.3Y-1.625
X6.275Y-3.0
X6.275Y-3.1
X6.275Y-3.2
X6.275Y-3.3
X6.275Y-3.4
X6.275Y-2.4
X6.275Y-2.5
X6.275Y-2.6
X6.275Y-2.7
X6.275Y-2.8
X4.35Y-2.2
X4.35Y-2.3
X4.35Y-2.4
X4.35Y-2.5
X4.35Y-2.6
X4.35Y-2.7
X4.35Y-2.8
X4.35Y-2.9
X4.35Y-3.0
X4.35Y-3.1
X4.35Y-3.2
X4.35Y-3.3
X4.35Y-3.4
X4.35Y-3.5
X3.375Y-1.4
X3.475Y-1.4
T4
X5.675Y-2.1
X5.675Y-2.2
X5.675Y-2.3
X1.925Y-3.45
X1.925Y-3.6272
X2.1809Y-3.45
X2.1809Y-3.6272
X5.65Y-3.525
X5.65Y-3.625
X5.65Y-3.725
X3.575Y-3.425
X3.575Y-3.6022
X3.8309Y-3.425
X3.8309Y-3.6022
X2.5Y-1.3
X2.6Y-1.3
X2.7Y-1.3
X1.1Y-3.45
X1.1Y-3.6272
X1.3559Y-3.45
X1.3559Y-3.6272
X2.725Y-3.45
X2.725Y-3.6272
X2.9809Y-3.45
X2.9809Y-3.6272
T5
X1.2Y-1.925
X1.3Y-1.925
X1.4Y-1.925
X1.5Y-1.925
X1.6Y-1.925
X1.7Y-1.925
X1.8Y-1.925
X1.9Y-1.925
X2.0Y-1.925
X2.1Y-1.925
X2.2Y-1.925
X2.3Y-1.925
X2.4Y-1.925
X2.5Y-1.925
X2.6Y-1.925
X2.7Y-1.925
T6
X0.9835Y-1.925
X0.9835Y-3.1455
X3.9362Y-3.1455
X3.9362Y-1.925
T3
G00X1.1Y-1.0606
M15
G01X1.1Y-1.1394
M16
G05
G00X1.1787Y-1.285
M15
G01X1.2575Y-1.285
M16
G05
G00X1.3362Y-1.0606
M15
G01X1.3362Y-1.1394
M16
G05
G00X6.4087Y-3.7
M15
G01X6.322Y-3.7
M16
G05
G00X6.4587Y-2.075
M15
G01X6.372Y-2.075
M16
G05
T5
G00X6.5425Y-3.7472
M15
G01X6.5425Y-3.6528
M16
G05
G00X6.5925Y-2.1222
M15
G01X6.5925Y-2.0278
M16
G05
T0
M30
