G04 #@! TF.GenerationSoftware,KiCad,Pcbnew,5.1.5-52549c5~86~ubuntu18.04.1*
G04 #@! TF.CreationDate,2020-04-01T00:41:12+05:30*
G04 #@! TF.ProjectId,osvent_controller,6f737665-6e74-45f6-936f-6e74726f6c6c,rev?*
G04 #@! TF.SameCoordinates,Original*
G04 #@! TF.FileFunction,Paste,Top*
G04 #@! TF.FilePolarity,Positive*
%FSLAX46Y46*%
G04 Gerber Fmt 4.6, Leading zero omitted, Abs format (unit mm)*
G04 Created by KiCad (PCBNEW 5.1.5-52549c5~86~ubuntu18.04.1) date 2020-04-01 00:41:12*
%MOMM*%
%LPD*%
G04 APERTURE LIST*
%ADD10C,0.100000*%
%ADD11R,0.900000X0.800000*%
%ADD12R,0.800000X0.900000*%
%ADD13R,0.900000X1.200000*%
G04 APERTURE END LIST*
D10*
G36*
X151604505Y-68251204D02*
G01*
X151628773Y-68254804D01*
X151652572Y-68260765D01*
X151675671Y-68269030D01*
X151697850Y-68279520D01*
X151718893Y-68292132D01*
X151738599Y-68306747D01*
X151756777Y-68323223D01*
X151773253Y-68341401D01*
X151787868Y-68361107D01*
X151800480Y-68382150D01*
X151810970Y-68404329D01*
X151819235Y-68427428D01*
X151825196Y-68451227D01*
X151828796Y-68475495D01*
X151830000Y-68499999D01*
X151830000Y-69150001D01*
X151828796Y-69174505D01*
X151825196Y-69198773D01*
X151819235Y-69222572D01*
X151810970Y-69245671D01*
X151800480Y-69267850D01*
X151787868Y-69288893D01*
X151773253Y-69308599D01*
X151756777Y-69326777D01*
X151738599Y-69343253D01*
X151718893Y-69357868D01*
X151697850Y-69370480D01*
X151675671Y-69380970D01*
X151652572Y-69389235D01*
X151628773Y-69395196D01*
X151604505Y-69398796D01*
X151580001Y-69400000D01*
X150679999Y-69400000D01*
X150655495Y-69398796D01*
X150631227Y-69395196D01*
X150607428Y-69389235D01*
X150584329Y-69380970D01*
X150562150Y-69370480D01*
X150541107Y-69357868D01*
X150521401Y-69343253D01*
X150503223Y-69326777D01*
X150486747Y-69308599D01*
X150472132Y-69288893D01*
X150459520Y-69267850D01*
X150449030Y-69245671D01*
X150440765Y-69222572D01*
X150434804Y-69198773D01*
X150431204Y-69174505D01*
X150430000Y-69150001D01*
X150430000Y-68499999D01*
X150431204Y-68475495D01*
X150434804Y-68451227D01*
X150440765Y-68427428D01*
X150449030Y-68404329D01*
X150459520Y-68382150D01*
X150472132Y-68361107D01*
X150486747Y-68341401D01*
X150503223Y-68323223D01*
X150521401Y-68306747D01*
X150541107Y-68292132D01*
X150562150Y-68279520D01*
X150584329Y-68269030D01*
X150607428Y-68260765D01*
X150631227Y-68254804D01*
X150655495Y-68251204D01*
X150679999Y-68250000D01*
X151580001Y-68250000D01*
X151604505Y-68251204D01*
G37*
G36*
X151604505Y-70301204D02*
G01*
X151628773Y-70304804D01*
X151652572Y-70310765D01*
X151675671Y-70319030D01*
X151697850Y-70329520D01*
X151718893Y-70342132D01*
X151738599Y-70356747D01*
X151756777Y-70373223D01*
X151773253Y-70391401D01*
X151787868Y-70411107D01*
X151800480Y-70432150D01*
X151810970Y-70454329D01*
X151819235Y-70477428D01*
X151825196Y-70501227D01*
X151828796Y-70525495D01*
X151830000Y-70549999D01*
X151830000Y-71200001D01*
X151828796Y-71224505D01*
X151825196Y-71248773D01*
X151819235Y-71272572D01*
X151810970Y-71295671D01*
X151800480Y-71317850D01*
X151787868Y-71338893D01*
X151773253Y-71358599D01*
X151756777Y-71376777D01*
X151738599Y-71393253D01*
X151718893Y-71407868D01*
X151697850Y-71420480D01*
X151675671Y-71430970D01*
X151652572Y-71439235D01*
X151628773Y-71445196D01*
X151604505Y-71448796D01*
X151580001Y-71450000D01*
X150679999Y-71450000D01*
X150655495Y-71448796D01*
X150631227Y-71445196D01*
X150607428Y-71439235D01*
X150584329Y-71430970D01*
X150562150Y-71420480D01*
X150541107Y-71407868D01*
X150521401Y-71393253D01*
X150503223Y-71376777D01*
X150486747Y-71358599D01*
X150472132Y-71338893D01*
X150459520Y-71317850D01*
X150449030Y-71295671D01*
X150440765Y-71272572D01*
X150434804Y-71248773D01*
X150431204Y-71224505D01*
X150430000Y-71200001D01*
X150430000Y-70549999D01*
X150431204Y-70525495D01*
X150434804Y-70501227D01*
X150440765Y-70477428D01*
X150449030Y-70454329D01*
X150459520Y-70432150D01*
X150472132Y-70411107D01*
X150486747Y-70391401D01*
X150503223Y-70373223D01*
X150521401Y-70356747D01*
X150541107Y-70342132D01*
X150562150Y-70329520D01*
X150584329Y-70319030D01*
X150607428Y-70310765D01*
X150631227Y-70304804D01*
X150655495Y-70301204D01*
X150679999Y-70300000D01*
X151580001Y-70300000D01*
X151604505Y-70301204D01*
G37*
G36*
X151604505Y-61901204D02*
G01*
X151628773Y-61904804D01*
X151652572Y-61910765D01*
X151675671Y-61919030D01*
X151697850Y-61929520D01*
X151718893Y-61942132D01*
X151738599Y-61956747D01*
X151756777Y-61973223D01*
X151773253Y-61991401D01*
X151787868Y-62011107D01*
X151800480Y-62032150D01*
X151810970Y-62054329D01*
X151819235Y-62077428D01*
X151825196Y-62101227D01*
X151828796Y-62125495D01*
X151830000Y-62149999D01*
X151830000Y-62800001D01*
X151828796Y-62824505D01*
X151825196Y-62848773D01*
X151819235Y-62872572D01*
X151810970Y-62895671D01*
X151800480Y-62917850D01*
X151787868Y-62938893D01*
X151773253Y-62958599D01*
X151756777Y-62976777D01*
X151738599Y-62993253D01*
X151718893Y-63007868D01*
X151697850Y-63020480D01*
X151675671Y-63030970D01*
X151652572Y-63039235D01*
X151628773Y-63045196D01*
X151604505Y-63048796D01*
X151580001Y-63050000D01*
X150679999Y-63050000D01*
X150655495Y-63048796D01*
X150631227Y-63045196D01*
X150607428Y-63039235D01*
X150584329Y-63030970D01*
X150562150Y-63020480D01*
X150541107Y-63007868D01*
X150521401Y-62993253D01*
X150503223Y-62976777D01*
X150486747Y-62958599D01*
X150472132Y-62938893D01*
X150459520Y-62917850D01*
X150449030Y-62895671D01*
X150440765Y-62872572D01*
X150434804Y-62848773D01*
X150431204Y-62824505D01*
X150430000Y-62800001D01*
X150430000Y-62149999D01*
X150431204Y-62125495D01*
X150434804Y-62101227D01*
X150440765Y-62077428D01*
X150449030Y-62054329D01*
X150459520Y-62032150D01*
X150472132Y-62011107D01*
X150486747Y-61991401D01*
X150503223Y-61973223D01*
X150521401Y-61956747D01*
X150541107Y-61942132D01*
X150562150Y-61929520D01*
X150584329Y-61919030D01*
X150607428Y-61910765D01*
X150631227Y-61904804D01*
X150655495Y-61901204D01*
X150679999Y-61900000D01*
X151580001Y-61900000D01*
X151604505Y-61901204D01*
G37*
G36*
X151604505Y-63951204D02*
G01*
X151628773Y-63954804D01*
X151652572Y-63960765D01*
X151675671Y-63969030D01*
X151697850Y-63979520D01*
X151718893Y-63992132D01*
X151738599Y-64006747D01*
X151756777Y-64023223D01*
X151773253Y-64041401D01*
X151787868Y-64061107D01*
X151800480Y-64082150D01*
X151810970Y-64104329D01*
X151819235Y-64127428D01*
X151825196Y-64151227D01*
X151828796Y-64175495D01*
X151830000Y-64199999D01*
X151830000Y-64850001D01*
X151828796Y-64874505D01*
X151825196Y-64898773D01*
X151819235Y-64922572D01*
X151810970Y-64945671D01*
X151800480Y-64967850D01*
X151787868Y-64988893D01*
X151773253Y-65008599D01*
X151756777Y-65026777D01*
X151738599Y-65043253D01*
X151718893Y-65057868D01*
X151697850Y-65070480D01*
X151675671Y-65080970D01*
X151652572Y-65089235D01*
X151628773Y-65095196D01*
X151604505Y-65098796D01*
X151580001Y-65100000D01*
X150679999Y-65100000D01*
X150655495Y-65098796D01*
X150631227Y-65095196D01*
X150607428Y-65089235D01*
X150584329Y-65080970D01*
X150562150Y-65070480D01*
X150541107Y-65057868D01*
X150521401Y-65043253D01*
X150503223Y-65026777D01*
X150486747Y-65008599D01*
X150472132Y-64988893D01*
X150459520Y-64967850D01*
X150449030Y-64945671D01*
X150440765Y-64922572D01*
X150434804Y-64898773D01*
X150431204Y-64874505D01*
X150430000Y-64850001D01*
X150430000Y-64199999D01*
X150431204Y-64175495D01*
X150434804Y-64151227D01*
X150440765Y-64127428D01*
X150449030Y-64104329D01*
X150459520Y-64082150D01*
X150472132Y-64061107D01*
X150486747Y-64041401D01*
X150503223Y-64023223D01*
X150521401Y-64006747D01*
X150541107Y-63992132D01*
X150562150Y-63979520D01*
X150584329Y-63969030D01*
X150607428Y-63960765D01*
X150631227Y-63954804D01*
X150655495Y-63951204D01*
X150679999Y-63950000D01*
X151580001Y-63950000D01*
X151604505Y-63951204D01*
G37*
G36*
X155414505Y-68496204D02*
G01*
X155438773Y-68499804D01*
X155462572Y-68505765D01*
X155485671Y-68514030D01*
X155507850Y-68524520D01*
X155528893Y-68537132D01*
X155548599Y-68551747D01*
X155566777Y-68568223D01*
X155583253Y-68586401D01*
X155597868Y-68606107D01*
X155610480Y-68627150D01*
X155620970Y-68649329D01*
X155629235Y-68672428D01*
X155635196Y-68696227D01*
X155638796Y-68720495D01*
X155640000Y-68744999D01*
X155640000Y-69395001D01*
X155638796Y-69419505D01*
X155635196Y-69443773D01*
X155629235Y-69467572D01*
X155620970Y-69490671D01*
X155610480Y-69512850D01*
X155597868Y-69533893D01*
X155583253Y-69553599D01*
X155566777Y-69571777D01*
X155548599Y-69588253D01*
X155528893Y-69602868D01*
X155507850Y-69615480D01*
X155485671Y-69625970D01*
X155462572Y-69634235D01*
X155438773Y-69640196D01*
X155414505Y-69643796D01*
X155390001Y-69645000D01*
X154489999Y-69645000D01*
X154465495Y-69643796D01*
X154441227Y-69640196D01*
X154417428Y-69634235D01*
X154394329Y-69625970D01*
X154372150Y-69615480D01*
X154351107Y-69602868D01*
X154331401Y-69588253D01*
X154313223Y-69571777D01*
X154296747Y-69553599D01*
X154282132Y-69533893D01*
X154269520Y-69512850D01*
X154259030Y-69490671D01*
X154250765Y-69467572D01*
X154244804Y-69443773D01*
X154241204Y-69419505D01*
X154240000Y-69395001D01*
X154240000Y-68744999D01*
X154241204Y-68720495D01*
X154244804Y-68696227D01*
X154250765Y-68672428D01*
X154259030Y-68649329D01*
X154269520Y-68627150D01*
X154282132Y-68606107D01*
X154296747Y-68586401D01*
X154313223Y-68568223D01*
X154331401Y-68551747D01*
X154351107Y-68537132D01*
X154372150Y-68524520D01*
X154394329Y-68514030D01*
X154417428Y-68505765D01*
X154441227Y-68499804D01*
X154465495Y-68496204D01*
X154489999Y-68495000D01*
X155390001Y-68495000D01*
X155414505Y-68496204D01*
G37*
G36*
X155414505Y-70546204D02*
G01*
X155438773Y-70549804D01*
X155462572Y-70555765D01*
X155485671Y-70564030D01*
X155507850Y-70574520D01*
X155528893Y-70587132D01*
X155548599Y-70601747D01*
X155566777Y-70618223D01*
X155583253Y-70636401D01*
X155597868Y-70656107D01*
X155610480Y-70677150D01*
X155620970Y-70699329D01*
X155629235Y-70722428D01*
X155635196Y-70746227D01*
X155638796Y-70770495D01*
X155640000Y-70794999D01*
X155640000Y-71445001D01*
X155638796Y-71469505D01*
X155635196Y-71493773D01*
X155629235Y-71517572D01*
X155620970Y-71540671D01*
X155610480Y-71562850D01*
X155597868Y-71583893D01*
X155583253Y-71603599D01*
X155566777Y-71621777D01*
X155548599Y-71638253D01*
X155528893Y-71652868D01*
X155507850Y-71665480D01*
X155485671Y-71675970D01*
X155462572Y-71684235D01*
X155438773Y-71690196D01*
X155414505Y-71693796D01*
X155390001Y-71695000D01*
X154489999Y-71695000D01*
X154465495Y-71693796D01*
X154441227Y-71690196D01*
X154417428Y-71684235D01*
X154394329Y-71675970D01*
X154372150Y-71665480D01*
X154351107Y-71652868D01*
X154331401Y-71638253D01*
X154313223Y-71621777D01*
X154296747Y-71603599D01*
X154282132Y-71583893D01*
X154269520Y-71562850D01*
X154259030Y-71540671D01*
X154250765Y-71517572D01*
X154244804Y-71493773D01*
X154241204Y-71469505D01*
X154240000Y-71445001D01*
X154240000Y-70794999D01*
X154241204Y-70770495D01*
X154244804Y-70746227D01*
X154250765Y-70722428D01*
X154259030Y-70699329D01*
X154269520Y-70677150D01*
X154282132Y-70656107D01*
X154296747Y-70636401D01*
X154313223Y-70618223D01*
X154331401Y-70601747D01*
X154351107Y-70587132D01*
X154372150Y-70574520D01*
X154394329Y-70564030D01*
X154417428Y-70555765D01*
X154441227Y-70549804D01*
X154465495Y-70546204D01*
X154489999Y-70545000D01*
X155390001Y-70545000D01*
X155414505Y-70546204D01*
G37*
G36*
X155414505Y-62146204D02*
G01*
X155438773Y-62149804D01*
X155462572Y-62155765D01*
X155485671Y-62164030D01*
X155507850Y-62174520D01*
X155528893Y-62187132D01*
X155548599Y-62201747D01*
X155566777Y-62218223D01*
X155583253Y-62236401D01*
X155597868Y-62256107D01*
X155610480Y-62277150D01*
X155620970Y-62299329D01*
X155629235Y-62322428D01*
X155635196Y-62346227D01*
X155638796Y-62370495D01*
X155640000Y-62394999D01*
X155640000Y-63045001D01*
X155638796Y-63069505D01*
X155635196Y-63093773D01*
X155629235Y-63117572D01*
X155620970Y-63140671D01*
X155610480Y-63162850D01*
X155597868Y-63183893D01*
X155583253Y-63203599D01*
X155566777Y-63221777D01*
X155548599Y-63238253D01*
X155528893Y-63252868D01*
X155507850Y-63265480D01*
X155485671Y-63275970D01*
X155462572Y-63284235D01*
X155438773Y-63290196D01*
X155414505Y-63293796D01*
X155390001Y-63295000D01*
X154489999Y-63295000D01*
X154465495Y-63293796D01*
X154441227Y-63290196D01*
X154417428Y-63284235D01*
X154394329Y-63275970D01*
X154372150Y-63265480D01*
X154351107Y-63252868D01*
X154331401Y-63238253D01*
X154313223Y-63221777D01*
X154296747Y-63203599D01*
X154282132Y-63183893D01*
X154269520Y-63162850D01*
X154259030Y-63140671D01*
X154250765Y-63117572D01*
X154244804Y-63093773D01*
X154241204Y-63069505D01*
X154240000Y-63045001D01*
X154240000Y-62394999D01*
X154241204Y-62370495D01*
X154244804Y-62346227D01*
X154250765Y-62322428D01*
X154259030Y-62299329D01*
X154269520Y-62277150D01*
X154282132Y-62256107D01*
X154296747Y-62236401D01*
X154313223Y-62218223D01*
X154331401Y-62201747D01*
X154351107Y-62187132D01*
X154372150Y-62174520D01*
X154394329Y-62164030D01*
X154417428Y-62155765D01*
X154441227Y-62149804D01*
X154465495Y-62146204D01*
X154489999Y-62145000D01*
X155390001Y-62145000D01*
X155414505Y-62146204D01*
G37*
G36*
X155414505Y-64196204D02*
G01*
X155438773Y-64199804D01*
X155462572Y-64205765D01*
X155485671Y-64214030D01*
X155507850Y-64224520D01*
X155528893Y-64237132D01*
X155548599Y-64251747D01*
X155566777Y-64268223D01*
X155583253Y-64286401D01*
X155597868Y-64306107D01*
X155610480Y-64327150D01*
X155620970Y-64349329D01*
X155629235Y-64372428D01*
X155635196Y-64396227D01*
X155638796Y-64420495D01*
X155640000Y-64444999D01*
X155640000Y-65095001D01*
X155638796Y-65119505D01*
X155635196Y-65143773D01*
X155629235Y-65167572D01*
X155620970Y-65190671D01*
X155610480Y-65212850D01*
X155597868Y-65233893D01*
X155583253Y-65253599D01*
X155566777Y-65271777D01*
X155548599Y-65288253D01*
X155528893Y-65302868D01*
X155507850Y-65315480D01*
X155485671Y-65325970D01*
X155462572Y-65334235D01*
X155438773Y-65340196D01*
X155414505Y-65343796D01*
X155390001Y-65345000D01*
X154489999Y-65345000D01*
X154465495Y-65343796D01*
X154441227Y-65340196D01*
X154417428Y-65334235D01*
X154394329Y-65325970D01*
X154372150Y-65315480D01*
X154351107Y-65302868D01*
X154331401Y-65288253D01*
X154313223Y-65271777D01*
X154296747Y-65253599D01*
X154282132Y-65233893D01*
X154269520Y-65212850D01*
X154259030Y-65190671D01*
X154250765Y-65167572D01*
X154244804Y-65143773D01*
X154241204Y-65119505D01*
X154240000Y-65095001D01*
X154240000Y-64444999D01*
X154241204Y-64420495D01*
X154244804Y-64396227D01*
X154250765Y-64372428D01*
X154259030Y-64349329D01*
X154269520Y-64327150D01*
X154282132Y-64306107D01*
X154296747Y-64286401D01*
X154313223Y-64268223D01*
X154331401Y-64251747D01*
X154351107Y-64237132D01*
X154372150Y-64224520D01*
X154394329Y-64214030D01*
X154417428Y-64205765D01*
X154441227Y-64199804D01*
X154465495Y-64196204D01*
X154489999Y-64195000D01*
X155390001Y-64195000D01*
X155414505Y-64196204D01*
G37*
G36*
X143984505Y-68251204D02*
G01*
X144008773Y-68254804D01*
X144032572Y-68260765D01*
X144055671Y-68269030D01*
X144077850Y-68279520D01*
X144098893Y-68292132D01*
X144118599Y-68306747D01*
X144136777Y-68323223D01*
X144153253Y-68341401D01*
X144167868Y-68361107D01*
X144180480Y-68382150D01*
X144190970Y-68404329D01*
X144199235Y-68427428D01*
X144205196Y-68451227D01*
X144208796Y-68475495D01*
X144210000Y-68499999D01*
X144210000Y-69150001D01*
X144208796Y-69174505D01*
X144205196Y-69198773D01*
X144199235Y-69222572D01*
X144190970Y-69245671D01*
X144180480Y-69267850D01*
X144167868Y-69288893D01*
X144153253Y-69308599D01*
X144136777Y-69326777D01*
X144118599Y-69343253D01*
X144098893Y-69357868D01*
X144077850Y-69370480D01*
X144055671Y-69380970D01*
X144032572Y-69389235D01*
X144008773Y-69395196D01*
X143984505Y-69398796D01*
X143960001Y-69400000D01*
X143059999Y-69400000D01*
X143035495Y-69398796D01*
X143011227Y-69395196D01*
X142987428Y-69389235D01*
X142964329Y-69380970D01*
X142942150Y-69370480D01*
X142921107Y-69357868D01*
X142901401Y-69343253D01*
X142883223Y-69326777D01*
X142866747Y-69308599D01*
X142852132Y-69288893D01*
X142839520Y-69267850D01*
X142829030Y-69245671D01*
X142820765Y-69222572D01*
X142814804Y-69198773D01*
X142811204Y-69174505D01*
X142810000Y-69150001D01*
X142810000Y-68499999D01*
X142811204Y-68475495D01*
X142814804Y-68451227D01*
X142820765Y-68427428D01*
X142829030Y-68404329D01*
X142839520Y-68382150D01*
X142852132Y-68361107D01*
X142866747Y-68341401D01*
X142883223Y-68323223D01*
X142901401Y-68306747D01*
X142921107Y-68292132D01*
X142942150Y-68279520D01*
X142964329Y-68269030D01*
X142987428Y-68260765D01*
X143011227Y-68254804D01*
X143035495Y-68251204D01*
X143059999Y-68250000D01*
X143960001Y-68250000D01*
X143984505Y-68251204D01*
G37*
G36*
X143984505Y-70301204D02*
G01*
X144008773Y-70304804D01*
X144032572Y-70310765D01*
X144055671Y-70319030D01*
X144077850Y-70329520D01*
X144098893Y-70342132D01*
X144118599Y-70356747D01*
X144136777Y-70373223D01*
X144153253Y-70391401D01*
X144167868Y-70411107D01*
X144180480Y-70432150D01*
X144190970Y-70454329D01*
X144199235Y-70477428D01*
X144205196Y-70501227D01*
X144208796Y-70525495D01*
X144210000Y-70549999D01*
X144210000Y-71200001D01*
X144208796Y-71224505D01*
X144205196Y-71248773D01*
X144199235Y-71272572D01*
X144190970Y-71295671D01*
X144180480Y-71317850D01*
X144167868Y-71338893D01*
X144153253Y-71358599D01*
X144136777Y-71376777D01*
X144118599Y-71393253D01*
X144098893Y-71407868D01*
X144077850Y-71420480D01*
X144055671Y-71430970D01*
X144032572Y-71439235D01*
X144008773Y-71445196D01*
X143984505Y-71448796D01*
X143960001Y-71450000D01*
X143059999Y-71450000D01*
X143035495Y-71448796D01*
X143011227Y-71445196D01*
X142987428Y-71439235D01*
X142964329Y-71430970D01*
X142942150Y-71420480D01*
X142921107Y-71407868D01*
X142901401Y-71393253D01*
X142883223Y-71376777D01*
X142866747Y-71358599D01*
X142852132Y-71338893D01*
X142839520Y-71317850D01*
X142829030Y-71295671D01*
X142820765Y-71272572D01*
X142814804Y-71248773D01*
X142811204Y-71224505D01*
X142810000Y-71200001D01*
X142810000Y-70549999D01*
X142811204Y-70525495D01*
X142814804Y-70501227D01*
X142820765Y-70477428D01*
X142829030Y-70454329D01*
X142839520Y-70432150D01*
X142852132Y-70411107D01*
X142866747Y-70391401D01*
X142883223Y-70373223D01*
X142901401Y-70356747D01*
X142921107Y-70342132D01*
X142942150Y-70329520D01*
X142964329Y-70319030D01*
X142987428Y-70310765D01*
X143011227Y-70304804D01*
X143035495Y-70301204D01*
X143059999Y-70300000D01*
X143960001Y-70300000D01*
X143984505Y-70301204D01*
G37*
G36*
X143984505Y-61901204D02*
G01*
X144008773Y-61904804D01*
X144032572Y-61910765D01*
X144055671Y-61919030D01*
X144077850Y-61929520D01*
X144098893Y-61942132D01*
X144118599Y-61956747D01*
X144136777Y-61973223D01*
X144153253Y-61991401D01*
X144167868Y-62011107D01*
X144180480Y-62032150D01*
X144190970Y-62054329D01*
X144199235Y-62077428D01*
X144205196Y-62101227D01*
X144208796Y-62125495D01*
X144210000Y-62149999D01*
X144210000Y-62800001D01*
X144208796Y-62824505D01*
X144205196Y-62848773D01*
X144199235Y-62872572D01*
X144190970Y-62895671D01*
X144180480Y-62917850D01*
X144167868Y-62938893D01*
X144153253Y-62958599D01*
X144136777Y-62976777D01*
X144118599Y-62993253D01*
X144098893Y-63007868D01*
X144077850Y-63020480D01*
X144055671Y-63030970D01*
X144032572Y-63039235D01*
X144008773Y-63045196D01*
X143984505Y-63048796D01*
X143960001Y-63050000D01*
X143059999Y-63050000D01*
X143035495Y-63048796D01*
X143011227Y-63045196D01*
X142987428Y-63039235D01*
X142964329Y-63030970D01*
X142942150Y-63020480D01*
X142921107Y-63007868D01*
X142901401Y-62993253D01*
X142883223Y-62976777D01*
X142866747Y-62958599D01*
X142852132Y-62938893D01*
X142839520Y-62917850D01*
X142829030Y-62895671D01*
X142820765Y-62872572D01*
X142814804Y-62848773D01*
X142811204Y-62824505D01*
X142810000Y-62800001D01*
X142810000Y-62149999D01*
X142811204Y-62125495D01*
X142814804Y-62101227D01*
X142820765Y-62077428D01*
X142829030Y-62054329D01*
X142839520Y-62032150D01*
X142852132Y-62011107D01*
X142866747Y-61991401D01*
X142883223Y-61973223D01*
X142901401Y-61956747D01*
X142921107Y-61942132D01*
X142942150Y-61929520D01*
X142964329Y-61919030D01*
X142987428Y-61910765D01*
X143011227Y-61904804D01*
X143035495Y-61901204D01*
X143059999Y-61900000D01*
X143960001Y-61900000D01*
X143984505Y-61901204D01*
G37*
G36*
X143984505Y-63951204D02*
G01*
X144008773Y-63954804D01*
X144032572Y-63960765D01*
X144055671Y-63969030D01*
X144077850Y-63979520D01*
X144098893Y-63992132D01*
X144118599Y-64006747D01*
X144136777Y-64023223D01*
X144153253Y-64041401D01*
X144167868Y-64061107D01*
X144180480Y-64082150D01*
X144190970Y-64104329D01*
X144199235Y-64127428D01*
X144205196Y-64151227D01*
X144208796Y-64175495D01*
X144210000Y-64199999D01*
X144210000Y-64850001D01*
X144208796Y-64874505D01*
X144205196Y-64898773D01*
X144199235Y-64922572D01*
X144190970Y-64945671D01*
X144180480Y-64967850D01*
X144167868Y-64988893D01*
X144153253Y-65008599D01*
X144136777Y-65026777D01*
X144118599Y-65043253D01*
X144098893Y-65057868D01*
X144077850Y-65070480D01*
X144055671Y-65080970D01*
X144032572Y-65089235D01*
X144008773Y-65095196D01*
X143984505Y-65098796D01*
X143960001Y-65100000D01*
X143059999Y-65100000D01*
X143035495Y-65098796D01*
X143011227Y-65095196D01*
X142987428Y-65089235D01*
X142964329Y-65080970D01*
X142942150Y-65070480D01*
X142921107Y-65057868D01*
X142901401Y-65043253D01*
X142883223Y-65026777D01*
X142866747Y-65008599D01*
X142852132Y-64988893D01*
X142839520Y-64967850D01*
X142829030Y-64945671D01*
X142820765Y-64922572D01*
X142814804Y-64898773D01*
X142811204Y-64874505D01*
X142810000Y-64850001D01*
X142810000Y-64199999D01*
X142811204Y-64175495D01*
X142814804Y-64151227D01*
X142820765Y-64127428D01*
X142829030Y-64104329D01*
X142839520Y-64082150D01*
X142852132Y-64061107D01*
X142866747Y-64041401D01*
X142883223Y-64023223D01*
X142901401Y-64006747D01*
X142921107Y-63992132D01*
X142942150Y-63979520D01*
X142964329Y-63969030D01*
X142987428Y-63960765D01*
X143011227Y-63954804D01*
X143035495Y-63951204D01*
X143059999Y-63950000D01*
X143960001Y-63950000D01*
X143984505Y-63951204D01*
G37*
D11*
X146320000Y-69850000D03*
X148320000Y-68900000D03*
X148320000Y-70800000D03*
X146320000Y-63500000D03*
X148320000Y-62550000D03*
X148320000Y-64450000D03*
D12*
X142875000Y-81645000D03*
X141925000Y-79645000D03*
X143825000Y-79645000D03*
D10*
G36*
X142834505Y-46291204D02*
G01*
X142858773Y-46294804D01*
X142882572Y-46300765D01*
X142905671Y-46309030D01*
X142927850Y-46319520D01*
X142948893Y-46332132D01*
X142968599Y-46346747D01*
X142986777Y-46363223D01*
X143003253Y-46381401D01*
X143017868Y-46401107D01*
X143030480Y-46422150D01*
X143040970Y-46444329D01*
X143049235Y-46467428D01*
X143055196Y-46491227D01*
X143058796Y-46515495D01*
X143060000Y-46539999D01*
X143060000Y-47440001D01*
X143058796Y-47464505D01*
X143055196Y-47488773D01*
X143049235Y-47512572D01*
X143040970Y-47535671D01*
X143030480Y-47557850D01*
X143017868Y-47578893D01*
X143003253Y-47598599D01*
X142986777Y-47616777D01*
X142968599Y-47633253D01*
X142948893Y-47647868D01*
X142927850Y-47660480D01*
X142905671Y-47670970D01*
X142882572Y-47679235D01*
X142858773Y-47685196D01*
X142834505Y-47688796D01*
X142810001Y-47690000D01*
X142159999Y-47690000D01*
X142135495Y-47688796D01*
X142111227Y-47685196D01*
X142087428Y-47679235D01*
X142064329Y-47670970D01*
X142042150Y-47660480D01*
X142021107Y-47647868D01*
X142001401Y-47633253D01*
X141983223Y-47616777D01*
X141966747Y-47598599D01*
X141952132Y-47578893D01*
X141939520Y-47557850D01*
X141929030Y-47535671D01*
X141920765Y-47512572D01*
X141914804Y-47488773D01*
X141911204Y-47464505D01*
X141910000Y-47440001D01*
X141910000Y-46539999D01*
X141911204Y-46515495D01*
X141914804Y-46491227D01*
X141920765Y-46467428D01*
X141929030Y-46444329D01*
X141939520Y-46422150D01*
X141952132Y-46401107D01*
X141966747Y-46381401D01*
X141983223Y-46363223D01*
X142001401Y-46346747D01*
X142021107Y-46332132D01*
X142042150Y-46319520D01*
X142064329Y-46309030D01*
X142087428Y-46300765D01*
X142111227Y-46294804D01*
X142135495Y-46291204D01*
X142159999Y-46290000D01*
X142810001Y-46290000D01*
X142834505Y-46291204D01*
G37*
G36*
X144884505Y-46291204D02*
G01*
X144908773Y-46294804D01*
X144932572Y-46300765D01*
X144955671Y-46309030D01*
X144977850Y-46319520D01*
X144998893Y-46332132D01*
X145018599Y-46346747D01*
X145036777Y-46363223D01*
X145053253Y-46381401D01*
X145067868Y-46401107D01*
X145080480Y-46422150D01*
X145090970Y-46444329D01*
X145099235Y-46467428D01*
X145105196Y-46491227D01*
X145108796Y-46515495D01*
X145110000Y-46539999D01*
X145110000Y-47440001D01*
X145108796Y-47464505D01*
X145105196Y-47488773D01*
X145099235Y-47512572D01*
X145090970Y-47535671D01*
X145080480Y-47557850D01*
X145067868Y-47578893D01*
X145053253Y-47598599D01*
X145036777Y-47616777D01*
X145018599Y-47633253D01*
X144998893Y-47647868D01*
X144977850Y-47660480D01*
X144955671Y-47670970D01*
X144932572Y-47679235D01*
X144908773Y-47685196D01*
X144884505Y-47688796D01*
X144860001Y-47690000D01*
X144209999Y-47690000D01*
X144185495Y-47688796D01*
X144161227Y-47685196D01*
X144137428Y-47679235D01*
X144114329Y-47670970D01*
X144092150Y-47660480D01*
X144071107Y-47647868D01*
X144051401Y-47633253D01*
X144033223Y-47616777D01*
X144016747Y-47598599D01*
X144002132Y-47578893D01*
X143989520Y-47557850D01*
X143979030Y-47535671D01*
X143970765Y-47512572D01*
X143964804Y-47488773D01*
X143961204Y-47464505D01*
X143960000Y-47440001D01*
X143960000Y-46539999D01*
X143961204Y-46515495D01*
X143964804Y-46491227D01*
X143970765Y-46467428D01*
X143979030Y-46444329D01*
X143989520Y-46422150D01*
X144002132Y-46401107D01*
X144016747Y-46381401D01*
X144033223Y-46363223D01*
X144051401Y-46346747D01*
X144071107Y-46332132D01*
X144092150Y-46319520D01*
X144114329Y-46309030D01*
X144137428Y-46300765D01*
X144161227Y-46294804D01*
X144185495Y-46291204D01*
X144209999Y-46290000D01*
X144860001Y-46290000D01*
X144884505Y-46291204D01*
G37*
D13*
X153415000Y-59690000D03*
X150115000Y-59690000D03*
D10*
G36*
X142199505Y-75746204D02*
G01*
X142223773Y-75749804D01*
X142247572Y-75755765D01*
X142270671Y-75764030D01*
X142292850Y-75774520D01*
X142313893Y-75787132D01*
X142333599Y-75801747D01*
X142351777Y-75818223D01*
X142368253Y-75836401D01*
X142382868Y-75856107D01*
X142395480Y-75877150D01*
X142405970Y-75899329D01*
X142414235Y-75922428D01*
X142420196Y-75946227D01*
X142423796Y-75970495D01*
X142425000Y-75994999D01*
X142425000Y-76895001D01*
X142423796Y-76919505D01*
X142420196Y-76943773D01*
X142414235Y-76967572D01*
X142405970Y-76990671D01*
X142395480Y-77012850D01*
X142382868Y-77033893D01*
X142368253Y-77053599D01*
X142351777Y-77071777D01*
X142333599Y-77088253D01*
X142313893Y-77102868D01*
X142292850Y-77115480D01*
X142270671Y-77125970D01*
X142247572Y-77134235D01*
X142223773Y-77140196D01*
X142199505Y-77143796D01*
X142175001Y-77145000D01*
X141524999Y-77145000D01*
X141500495Y-77143796D01*
X141476227Y-77140196D01*
X141452428Y-77134235D01*
X141429329Y-77125970D01*
X141407150Y-77115480D01*
X141386107Y-77102868D01*
X141366401Y-77088253D01*
X141348223Y-77071777D01*
X141331747Y-77053599D01*
X141317132Y-77033893D01*
X141304520Y-77012850D01*
X141294030Y-76990671D01*
X141285765Y-76967572D01*
X141279804Y-76943773D01*
X141276204Y-76919505D01*
X141275000Y-76895001D01*
X141275000Y-75994999D01*
X141276204Y-75970495D01*
X141279804Y-75946227D01*
X141285765Y-75922428D01*
X141294030Y-75899329D01*
X141304520Y-75877150D01*
X141317132Y-75856107D01*
X141331747Y-75836401D01*
X141348223Y-75818223D01*
X141366401Y-75801747D01*
X141386107Y-75787132D01*
X141407150Y-75774520D01*
X141429329Y-75764030D01*
X141452428Y-75755765D01*
X141476227Y-75749804D01*
X141500495Y-75746204D01*
X141524999Y-75745000D01*
X142175001Y-75745000D01*
X142199505Y-75746204D01*
G37*
G36*
X144249505Y-75746204D02*
G01*
X144273773Y-75749804D01*
X144297572Y-75755765D01*
X144320671Y-75764030D01*
X144342850Y-75774520D01*
X144363893Y-75787132D01*
X144383599Y-75801747D01*
X144401777Y-75818223D01*
X144418253Y-75836401D01*
X144432868Y-75856107D01*
X144445480Y-75877150D01*
X144455970Y-75899329D01*
X144464235Y-75922428D01*
X144470196Y-75946227D01*
X144473796Y-75970495D01*
X144475000Y-75994999D01*
X144475000Y-76895001D01*
X144473796Y-76919505D01*
X144470196Y-76943773D01*
X144464235Y-76967572D01*
X144455970Y-76990671D01*
X144445480Y-77012850D01*
X144432868Y-77033893D01*
X144418253Y-77053599D01*
X144401777Y-77071777D01*
X144383599Y-77088253D01*
X144363893Y-77102868D01*
X144342850Y-77115480D01*
X144320671Y-77125970D01*
X144297572Y-77134235D01*
X144273773Y-77140196D01*
X144249505Y-77143796D01*
X144225001Y-77145000D01*
X143574999Y-77145000D01*
X143550495Y-77143796D01*
X143526227Y-77140196D01*
X143502428Y-77134235D01*
X143479329Y-77125970D01*
X143457150Y-77115480D01*
X143436107Y-77102868D01*
X143416401Y-77088253D01*
X143398223Y-77071777D01*
X143381747Y-77053599D01*
X143367132Y-77033893D01*
X143354520Y-77012850D01*
X143344030Y-76990671D01*
X143335765Y-76967572D01*
X143329804Y-76943773D01*
X143326204Y-76919505D01*
X143325000Y-76895001D01*
X143325000Y-75994999D01*
X143326204Y-75970495D01*
X143329804Y-75946227D01*
X143335765Y-75922428D01*
X143344030Y-75899329D01*
X143354520Y-75877150D01*
X143367132Y-75856107D01*
X143381747Y-75836401D01*
X143398223Y-75818223D01*
X143416401Y-75801747D01*
X143436107Y-75787132D01*
X143457150Y-75774520D01*
X143479329Y-75764030D01*
X143502428Y-75755765D01*
X143526227Y-75749804D01*
X143550495Y-75746204D01*
X143574999Y-75745000D01*
X144225001Y-75745000D01*
X144249505Y-75746204D01*
G37*
G36*
X144494505Y-84391204D02*
G01*
X144518773Y-84394804D01*
X144542572Y-84400765D01*
X144565671Y-84409030D01*
X144587850Y-84419520D01*
X144608893Y-84432132D01*
X144628599Y-84446747D01*
X144646777Y-84463223D01*
X144663253Y-84481401D01*
X144677868Y-84501107D01*
X144690480Y-84522150D01*
X144700970Y-84544329D01*
X144709235Y-84567428D01*
X144715196Y-84591227D01*
X144718796Y-84615495D01*
X144720000Y-84639999D01*
X144720000Y-85540001D01*
X144718796Y-85564505D01*
X144715196Y-85588773D01*
X144709235Y-85612572D01*
X144700970Y-85635671D01*
X144690480Y-85657850D01*
X144677868Y-85678893D01*
X144663253Y-85698599D01*
X144646777Y-85716777D01*
X144628599Y-85733253D01*
X144608893Y-85747868D01*
X144587850Y-85760480D01*
X144565671Y-85770970D01*
X144542572Y-85779235D01*
X144518773Y-85785196D01*
X144494505Y-85788796D01*
X144470001Y-85790000D01*
X143819999Y-85790000D01*
X143795495Y-85788796D01*
X143771227Y-85785196D01*
X143747428Y-85779235D01*
X143724329Y-85770970D01*
X143702150Y-85760480D01*
X143681107Y-85747868D01*
X143661401Y-85733253D01*
X143643223Y-85716777D01*
X143626747Y-85698599D01*
X143612132Y-85678893D01*
X143599520Y-85657850D01*
X143589030Y-85635671D01*
X143580765Y-85612572D01*
X143574804Y-85588773D01*
X143571204Y-85564505D01*
X143570000Y-85540001D01*
X143570000Y-84639999D01*
X143571204Y-84615495D01*
X143574804Y-84591227D01*
X143580765Y-84567428D01*
X143589030Y-84544329D01*
X143599520Y-84522150D01*
X143612132Y-84501107D01*
X143626747Y-84481401D01*
X143643223Y-84463223D01*
X143661401Y-84446747D01*
X143681107Y-84432132D01*
X143702150Y-84419520D01*
X143724329Y-84409030D01*
X143747428Y-84400765D01*
X143771227Y-84394804D01*
X143795495Y-84391204D01*
X143819999Y-84390000D01*
X144470001Y-84390000D01*
X144494505Y-84391204D01*
G37*
G36*
X142444505Y-84391204D02*
G01*
X142468773Y-84394804D01*
X142492572Y-84400765D01*
X142515671Y-84409030D01*
X142537850Y-84419520D01*
X142558893Y-84432132D01*
X142578599Y-84446747D01*
X142596777Y-84463223D01*
X142613253Y-84481401D01*
X142627868Y-84501107D01*
X142640480Y-84522150D01*
X142650970Y-84544329D01*
X142659235Y-84567428D01*
X142665196Y-84591227D01*
X142668796Y-84615495D01*
X142670000Y-84639999D01*
X142670000Y-85540001D01*
X142668796Y-85564505D01*
X142665196Y-85588773D01*
X142659235Y-85612572D01*
X142650970Y-85635671D01*
X142640480Y-85657850D01*
X142627868Y-85678893D01*
X142613253Y-85698599D01*
X142596777Y-85716777D01*
X142578599Y-85733253D01*
X142558893Y-85747868D01*
X142537850Y-85760480D01*
X142515671Y-85770970D01*
X142492572Y-85779235D01*
X142468773Y-85785196D01*
X142444505Y-85788796D01*
X142420001Y-85790000D01*
X141769999Y-85790000D01*
X141745495Y-85788796D01*
X141721227Y-85785196D01*
X141697428Y-85779235D01*
X141674329Y-85770970D01*
X141652150Y-85760480D01*
X141631107Y-85747868D01*
X141611401Y-85733253D01*
X141593223Y-85716777D01*
X141576747Y-85698599D01*
X141562132Y-85678893D01*
X141549520Y-85657850D01*
X141539030Y-85635671D01*
X141530765Y-85612572D01*
X141524804Y-85588773D01*
X141521204Y-85564505D01*
X141520000Y-85540001D01*
X141520000Y-84639999D01*
X141521204Y-84615495D01*
X141524804Y-84591227D01*
X141530765Y-84567428D01*
X141539030Y-84544329D01*
X141549520Y-84522150D01*
X141562132Y-84501107D01*
X141576747Y-84481401D01*
X141593223Y-84463223D01*
X141611401Y-84446747D01*
X141631107Y-84432132D01*
X141652150Y-84419520D01*
X141674329Y-84409030D01*
X141697428Y-84400765D01*
X141721227Y-84394804D01*
X141745495Y-84391204D01*
X141769999Y-84390000D01*
X142420001Y-84390000D01*
X142444505Y-84391204D01*
G37*
G36*
X143469505Y-37401204D02*
G01*
X143493773Y-37404804D01*
X143517572Y-37410765D01*
X143540671Y-37419030D01*
X143562850Y-37429520D01*
X143583893Y-37442132D01*
X143603599Y-37456747D01*
X143621777Y-37473223D01*
X143638253Y-37491401D01*
X143652868Y-37511107D01*
X143665480Y-37532150D01*
X143675970Y-37554329D01*
X143684235Y-37577428D01*
X143690196Y-37601227D01*
X143693796Y-37625495D01*
X143695000Y-37649999D01*
X143695000Y-38550001D01*
X143693796Y-38574505D01*
X143690196Y-38598773D01*
X143684235Y-38622572D01*
X143675970Y-38645671D01*
X143665480Y-38667850D01*
X143652868Y-38688893D01*
X143638253Y-38708599D01*
X143621777Y-38726777D01*
X143603599Y-38743253D01*
X143583893Y-38757868D01*
X143562850Y-38770480D01*
X143540671Y-38780970D01*
X143517572Y-38789235D01*
X143493773Y-38795196D01*
X143469505Y-38798796D01*
X143445001Y-38800000D01*
X142794999Y-38800000D01*
X142770495Y-38798796D01*
X142746227Y-38795196D01*
X142722428Y-38789235D01*
X142699329Y-38780970D01*
X142677150Y-38770480D01*
X142656107Y-38757868D01*
X142636401Y-38743253D01*
X142618223Y-38726777D01*
X142601747Y-38708599D01*
X142587132Y-38688893D01*
X142574520Y-38667850D01*
X142564030Y-38645671D01*
X142555765Y-38622572D01*
X142549804Y-38598773D01*
X142546204Y-38574505D01*
X142545000Y-38550001D01*
X142545000Y-37649999D01*
X142546204Y-37625495D01*
X142549804Y-37601227D01*
X142555765Y-37577428D01*
X142564030Y-37554329D01*
X142574520Y-37532150D01*
X142587132Y-37511107D01*
X142601747Y-37491401D01*
X142618223Y-37473223D01*
X142636401Y-37456747D01*
X142656107Y-37442132D01*
X142677150Y-37429520D01*
X142699329Y-37419030D01*
X142722428Y-37410765D01*
X142746227Y-37404804D01*
X142770495Y-37401204D01*
X142794999Y-37400000D01*
X143445001Y-37400000D01*
X143469505Y-37401204D01*
G37*
G36*
X145519505Y-37401204D02*
G01*
X145543773Y-37404804D01*
X145567572Y-37410765D01*
X145590671Y-37419030D01*
X145612850Y-37429520D01*
X145633893Y-37442132D01*
X145653599Y-37456747D01*
X145671777Y-37473223D01*
X145688253Y-37491401D01*
X145702868Y-37511107D01*
X145715480Y-37532150D01*
X145725970Y-37554329D01*
X145734235Y-37577428D01*
X145740196Y-37601227D01*
X145743796Y-37625495D01*
X145745000Y-37649999D01*
X145745000Y-38550001D01*
X145743796Y-38574505D01*
X145740196Y-38598773D01*
X145734235Y-38622572D01*
X145725970Y-38645671D01*
X145715480Y-38667850D01*
X145702868Y-38688893D01*
X145688253Y-38708599D01*
X145671777Y-38726777D01*
X145653599Y-38743253D01*
X145633893Y-38757868D01*
X145612850Y-38770480D01*
X145590671Y-38780970D01*
X145567572Y-38789235D01*
X145543773Y-38795196D01*
X145519505Y-38798796D01*
X145495001Y-38800000D01*
X144844999Y-38800000D01*
X144820495Y-38798796D01*
X144796227Y-38795196D01*
X144772428Y-38789235D01*
X144749329Y-38780970D01*
X144727150Y-38770480D01*
X144706107Y-38757868D01*
X144686401Y-38743253D01*
X144668223Y-38726777D01*
X144651747Y-38708599D01*
X144637132Y-38688893D01*
X144624520Y-38667850D01*
X144614030Y-38645671D01*
X144605765Y-38622572D01*
X144599804Y-38598773D01*
X144596204Y-38574505D01*
X144595000Y-38550001D01*
X144595000Y-37649999D01*
X144596204Y-37625495D01*
X144599804Y-37601227D01*
X144605765Y-37577428D01*
X144614030Y-37554329D01*
X144624520Y-37532150D01*
X144637132Y-37511107D01*
X144651747Y-37491401D01*
X144668223Y-37473223D01*
X144686401Y-37456747D01*
X144706107Y-37442132D01*
X144727150Y-37429520D01*
X144749329Y-37419030D01*
X144772428Y-37410765D01*
X144796227Y-37404804D01*
X144820495Y-37401204D01*
X144844999Y-37400000D01*
X145495001Y-37400000D01*
X145519505Y-37401204D01*
G37*
D12*
X144145000Y-44180000D03*
X143195000Y-42180000D03*
X145095000Y-42180000D03*
D13*
X154560000Y-91440000D03*
X157860000Y-91440000D03*
X57530000Y-33020000D03*
X54230000Y-33020000D03*
D10*
G36*
X101804505Y-85026204D02*
G01*
X101828773Y-85029804D01*
X101852572Y-85035765D01*
X101875671Y-85044030D01*
X101897850Y-85054520D01*
X101918893Y-85067132D01*
X101938599Y-85081747D01*
X101956777Y-85098223D01*
X101973253Y-85116401D01*
X101987868Y-85136107D01*
X102000480Y-85157150D01*
X102010970Y-85179329D01*
X102019235Y-85202428D01*
X102025196Y-85226227D01*
X102028796Y-85250495D01*
X102030000Y-85274999D01*
X102030000Y-86175001D01*
X102028796Y-86199505D01*
X102025196Y-86223773D01*
X102019235Y-86247572D01*
X102010970Y-86270671D01*
X102000480Y-86292850D01*
X101987868Y-86313893D01*
X101973253Y-86333599D01*
X101956777Y-86351777D01*
X101938599Y-86368253D01*
X101918893Y-86382868D01*
X101897850Y-86395480D01*
X101875671Y-86405970D01*
X101852572Y-86414235D01*
X101828773Y-86420196D01*
X101804505Y-86423796D01*
X101780001Y-86425000D01*
X101129999Y-86425000D01*
X101105495Y-86423796D01*
X101081227Y-86420196D01*
X101057428Y-86414235D01*
X101034329Y-86405970D01*
X101012150Y-86395480D01*
X100991107Y-86382868D01*
X100971401Y-86368253D01*
X100953223Y-86351777D01*
X100936747Y-86333599D01*
X100922132Y-86313893D01*
X100909520Y-86292850D01*
X100899030Y-86270671D01*
X100890765Y-86247572D01*
X100884804Y-86223773D01*
X100881204Y-86199505D01*
X100880000Y-86175001D01*
X100880000Y-85274999D01*
X100881204Y-85250495D01*
X100884804Y-85226227D01*
X100890765Y-85202428D01*
X100899030Y-85179329D01*
X100909520Y-85157150D01*
X100922132Y-85136107D01*
X100936747Y-85116401D01*
X100953223Y-85098223D01*
X100971401Y-85081747D01*
X100991107Y-85067132D01*
X101012150Y-85054520D01*
X101034329Y-85044030D01*
X101057428Y-85035765D01*
X101081227Y-85029804D01*
X101105495Y-85026204D01*
X101129999Y-85025000D01*
X101780001Y-85025000D01*
X101804505Y-85026204D01*
G37*
G36*
X103854505Y-85026204D02*
G01*
X103878773Y-85029804D01*
X103902572Y-85035765D01*
X103925671Y-85044030D01*
X103947850Y-85054520D01*
X103968893Y-85067132D01*
X103988599Y-85081747D01*
X104006777Y-85098223D01*
X104023253Y-85116401D01*
X104037868Y-85136107D01*
X104050480Y-85157150D01*
X104060970Y-85179329D01*
X104069235Y-85202428D01*
X104075196Y-85226227D01*
X104078796Y-85250495D01*
X104080000Y-85274999D01*
X104080000Y-86175001D01*
X104078796Y-86199505D01*
X104075196Y-86223773D01*
X104069235Y-86247572D01*
X104060970Y-86270671D01*
X104050480Y-86292850D01*
X104037868Y-86313893D01*
X104023253Y-86333599D01*
X104006777Y-86351777D01*
X103988599Y-86368253D01*
X103968893Y-86382868D01*
X103947850Y-86395480D01*
X103925671Y-86405970D01*
X103902572Y-86414235D01*
X103878773Y-86420196D01*
X103854505Y-86423796D01*
X103830001Y-86425000D01*
X103179999Y-86425000D01*
X103155495Y-86423796D01*
X103131227Y-86420196D01*
X103107428Y-86414235D01*
X103084329Y-86405970D01*
X103062150Y-86395480D01*
X103041107Y-86382868D01*
X103021401Y-86368253D01*
X103003223Y-86351777D01*
X102986747Y-86333599D01*
X102972132Y-86313893D01*
X102959520Y-86292850D01*
X102949030Y-86270671D01*
X102940765Y-86247572D01*
X102934804Y-86223773D01*
X102931204Y-86199505D01*
X102930000Y-86175001D01*
X102930000Y-85274999D01*
X102931204Y-85250495D01*
X102934804Y-85226227D01*
X102940765Y-85202428D01*
X102949030Y-85179329D01*
X102959520Y-85157150D01*
X102972132Y-85136107D01*
X102986747Y-85116401D01*
X103003223Y-85098223D01*
X103021401Y-85081747D01*
X103041107Y-85067132D01*
X103062150Y-85054520D01*
X103084329Y-85044030D01*
X103107428Y-85035765D01*
X103131227Y-85029804D01*
X103155495Y-85026204D01*
X103179999Y-85025000D01*
X103830001Y-85025000D01*
X103854505Y-85026204D01*
G37*
G36*
X103609505Y-87566204D02*
G01*
X103633773Y-87569804D01*
X103657572Y-87575765D01*
X103680671Y-87584030D01*
X103702850Y-87594520D01*
X103723893Y-87607132D01*
X103743599Y-87621747D01*
X103761777Y-87638223D01*
X103778253Y-87656401D01*
X103792868Y-87676107D01*
X103805480Y-87697150D01*
X103815970Y-87719329D01*
X103824235Y-87742428D01*
X103830196Y-87766227D01*
X103833796Y-87790495D01*
X103835000Y-87814999D01*
X103835000Y-88715001D01*
X103833796Y-88739505D01*
X103830196Y-88763773D01*
X103824235Y-88787572D01*
X103815970Y-88810671D01*
X103805480Y-88832850D01*
X103792868Y-88853893D01*
X103778253Y-88873599D01*
X103761777Y-88891777D01*
X103743599Y-88908253D01*
X103723893Y-88922868D01*
X103702850Y-88935480D01*
X103680671Y-88945970D01*
X103657572Y-88954235D01*
X103633773Y-88960196D01*
X103609505Y-88963796D01*
X103585001Y-88965000D01*
X102934999Y-88965000D01*
X102910495Y-88963796D01*
X102886227Y-88960196D01*
X102862428Y-88954235D01*
X102839329Y-88945970D01*
X102817150Y-88935480D01*
X102796107Y-88922868D01*
X102776401Y-88908253D01*
X102758223Y-88891777D01*
X102741747Y-88873599D01*
X102727132Y-88853893D01*
X102714520Y-88832850D01*
X102704030Y-88810671D01*
X102695765Y-88787572D01*
X102689804Y-88763773D01*
X102686204Y-88739505D01*
X102685000Y-88715001D01*
X102685000Y-87814999D01*
X102686204Y-87790495D01*
X102689804Y-87766227D01*
X102695765Y-87742428D01*
X102704030Y-87719329D01*
X102714520Y-87697150D01*
X102727132Y-87676107D01*
X102741747Y-87656401D01*
X102758223Y-87638223D01*
X102776401Y-87621747D01*
X102796107Y-87607132D01*
X102817150Y-87594520D01*
X102839329Y-87584030D01*
X102862428Y-87575765D01*
X102886227Y-87569804D01*
X102910495Y-87566204D01*
X102934999Y-87565000D01*
X103585001Y-87565000D01*
X103609505Y-87566204D01*
G37*
G36*
X101559505Y-87566204D02*
G01*
X101583773Y-87569804D01*
X101607572Y-87575765D01*
X101630671Y-87584030D01*
X101652850Y-87594520D01*
X101673893Y-87607132D01*
X101693599Y-87621747D01*
X101711777Y-87638223D01*
X101728253Y-87656401D01*
X101742868Y-87676107D01*
X101755480Y-87697150D01*
X101765970Y-87719329D01*
X101774235Y-87742428D01*
X101780196Y-87766227D01*
X101783796Y-87790495D01*
X101785000Y-87814999D01*
X101785000Y-88715001D01*
X101783796Y-88739505D01*
X101780196Y-88763773D01*
X101774235Y-88787572D01*
X101765970Y-88810671D01*
X101755480Y-88832850D01*
X101742868Y-88853893D01*
X101728253Y-88873599D01*
X101711777Y-88891777D01*
X101693599Y-88908253D01*
X101673893Y-88922868D01*
X101652850Y-88935480D01*
X101630671Y-88945970D01*
X101607572Y-88954235D01*
X101583773Y-88960196D01*
X101559505Y-88963796D01*
X101535001Y-88965000D01*
X100884999Y-88965000D01*
X100860495Y-88963796D01*
X100836227Y-88960196D01*
X100812428Y-88954235D01*
X100789329Y-88945970D01*
X100767150Y-88935480D01*
X100746107Y-88922868D01*
X100726401Y-88908253D01*
X100708223Y-88891777D01*
X100691747Y-88873599D01*
X100677132Y-88853893D01*
X100664520Y-88832850D01*
X100654030Y-88810671D01*
X100645765Y-88787572D01*
X100639804Y-88763773D01*
X100636204Y-88739505D01*
X100635000Y-88715001D01*
X100635000Y-87814999D01*
X100636204Y-87790495D01*
X100639804Y-87766227D01*
X100645765Y-87742428D01*
X100654030Y-87719329D01*
X100664520Y-87697150D01*
X100677132Y-87676107D01*
X100691747Y-87656401D01*
X100708223Y-87638223D01*
X100726401Y-87621747D01*
X100746107Y-87607132D01*
X100767150Y-87594520D01*
X100789329Y-87584030D01*
X100812428Y-87575765D01*
X100836227Y-87569804D01*
X100860495Y-87566204D01*
X100884999Y-87565000D01*
X101535001Y-87565000D01*
X101559505Y-87566204D01*
G37*
G36*
X93184505Y-43876204D02*
G01*
X93208773Y-43879804D01*
X93232572Y-43885765D01*
X93255671Y-43894030D01*
X93277850Y-43904520D01*
X93298893Y-43917132D01*
X93318599Y-43931747D01*
X93336777Y-43948223D01*
X93353253Y-43966401D01*
X93367868Y-43986107D01*
X93380480Y-44007150D01*
X93390970Y-44029329D01*
X93399235Y-44052428D01*
X93405196Y-44076227D01*
X93408796Y-44100495D01*
X93410000Y-44124999D01*
X93410000Y-44775001D01*
X93408796Y-44799505D01*
X93405196Y-44823773D01*
X93399235Y-44847572D01*
X93390970Y-44870671D01*
X93380480Y-44892850D01*
X93367868Y-44913893D01*
X93353253Y-44933599D01*
X93336777Y-44951777D01*
X93318599Y-44968253D01*
X93298893Y-44982868D01*
X93277850Y-44995480D01*
X93255671Y-45005970D01*
X93232572Y-45014235D01*
X93208773Y-45020196D01*
X93184505Y-45023796D01*
X93160001Y-45025000D01*
X92259999Y-45025000D01*
X92235495Y-45023796D01*
X92211227Y-45020196D01*
X92187428Y-45014235D01*
X92164329Y-45005970D01*
X92142150Y-44995480D01*
X92121107Y-44982868D01*
X92101401Y-44968253D01*
X92083223Y-44951777D01*
X92066747Y-44933599D01*
X92052132Y-44913893D01*
X92039520Y-44892850D01*
X92029030Y-44870671D01*
X92020765Y-44847572D01*
X92014804Y-44823773D01*
X92011204Y-44799505D01*
X92010000Y-44775001D01*
X92010000Y-44124999D01*
X92011204Y-44100495D01*
X92014804Y-44076227D01*
X92020765Y-44052428D01*
X92029030Y-44029329D01*
X92039520Y-44007150D01*
X92052132Y-43986107D01*
X92066747Y-43966401D01*
X92083223Y-43948223D01*
X92101401Y-43931747D01*
X92121107Y-43917132D01*
X92142150Y-43904520D01*
X92164329Y-43894030D01*
X92187428Y-43885765D01*
X92211227Y-43879804D01*
X92235495Y-43876204D01*
X92259999Y-43875000D01*
X93160001Y-43875000D01*
X93184505Y-43876204D01*
G37*
G36*
X93184505Y-41826204D02*
G01*
X93208773Y-41829804D01*
X93232572Y-41835765D01*
X93255671Y-41844030D01*
X93277850Y-41854520D01*
X93298893Y-41867132D01*
X93318599Y-41881747D01*
X93336777Y-41898223D01*
X93353253Y-41916401D01*
X93367868Y-41936107D01*
X93380480Y-41957150D01*
X93390970Y-41979329D01*
X93399235Y-42002428D01*
X93405196Y-42026227D01*
X93408796Y-42050495D01*
X93410000Y-42074999D01*
X93410000Y-42725001D01*
X93408796Y-42749505D01*
X93405196Y-42773773D01*
X93399235Y-42797572D01*
X93390970Y-42820671D01*
X93380480Y-42842850D01*
X93367868Y-42863893D01*
X93353253Y-42883599D01*
X93336777Y-42901777D01*
X93318599Y-42918253D01*
X93298893Y-42932868D01*
X93277850Y-42945480D01*
X93255671Y-42955970D01*
X93232572Y-42964235D01*
X93208773Y-42970196D01*
X93184505Y-42973796D01*
X93160001Y-42975000D01*
X92259999Y-42975000D01*
X92235495Y-42973796D01*
X92211227Y-42970196D01*
X92187428Y-42964235D01*
X92164329Y-42955970D01*
X92142150Y-42945480D01*
X92121107Y-42932868D01*
X92101401Y-42918253D01*
X92083223Y-42901777D01*
X92066747Y-42883599D01*
X92052132Y-42863893D01*
X92039520Y-42842850D01*
X92029030Y-42820671D01*
X92020765Y-42797572D01*
X92014804Y-42773773D01*
X92011204Y-42749505D01*
X92010000Y-42725001D01*
X92010000Y-42074999D01*
X92011204Y-42050495D01*
X92014804Y-42026227D01*
X92020765Y-42002428D01*
X92029030Y-41979329D01*
X92039520Y-41957150D01*
X92052132Y-41936107D01*
X92066747Y-41916401D01*
X92083223Y-41898223D01*
X92101401Y-41881747D01*
X92121107Y-41867132D01*
X92142150Y-41854520D01*
X92164329Y-41844030D01*
X92187428Y-41835765D01*
X92211227Y-41829804D01*
X92235495Y-41826204D01*
X92259999Y-41825000D01*
X93160001Y-41825000D01*
X93184505Y-41826204D01*
G37*
G36*
X119854505Y-30151204D02*
G01*
X119878773Y-30154804D01*
X119902572Y-30160765D01*
X119925671Y-30169030D01*
X119947850Y-30179520D01*
X119968893Y-30192132D01*
X119988599Y-30206747D01*
X120006777Y-30223223D01*
X120023253Y-30241401D01*
X120037868Y-30261107D01*
X120050480Y-30282150D01*
X120060970Y-30304329D01*
X120069235Y-30327428D01*
X120075196Y-30351227D01*
X120078796Y-30375495D01*
X120080000Y-30399999D01*
X120080000Y-31050001D01*
X120078796Y-31074505D01*
X120075196Y-31098773D01*
X120069235Y-31122572D01*
X120060970Y-31145671D01*
X120050480Y-31167850D01*
X120037868Y-31188893D01*
X120023253Y-31208599D01*
X120006777Y-31226777D01*
X119988599Y-31243253D01*
X119968893Y-31257868D01*
X119947850Y-31270480D01*
X119925671Y-31280970D01*
X119902572Y-31289235D01*
X119878773Y-31295196D01*
X119854505Y-31298796D01*
X119830001Y-31300000D01*
X118929999Y-31300000D01*
X118905495Y-31298796D01*
X118881227Y-31295196D01*
X118857428Y-31289235D01*
X118834329Y-31280970D01*
X118812150Y-31270480D01*
X118791107Y-31257868D01*
X118771401Y-31243253D01*
X118753223Y-31226777D01*
X118736747Y-31208599D01*
X118722132Y-31188893D01*
X118709520Y-31167850D01*
X118699030Y-31145671D01*
X118690765Y-31122572D01*
X118684804Y-31098773D01*
X118681204Y-31074505D01*
X118680000Y-31050001D01*
X118680000Y-30399999D01*
X118681204Y-30375495D01*
X118684804Y-30351227D01*
X118690765Y-30327428D01*
X118699030Y-30304329D01*
X118709520Y-30282150D01*
X118722132Y-30261107D01*
X118736747Y-30241401D01*
X118753223Y-30223223D01*
X118771401Y-30206747D01*
X118791107Y-30192132D01*
X118812150Y-30179520D01*
X118834329Y-30169030D01*
X118857428Y-30160765D01*
X118881227Y-30154804D01*
X118905495Y-30151204D01*
X118929999Y-30150000D01*
X119830001Y-30150000D01*
X119854505Y-30151204D01*
G37*
G36*
X119854505Y-32201204D02*
G01*
X119878773Y-32204804D01*
X119902572Y-32210765D01*
X119925671Y-32219030D01*
X119947850Y-32229520D01*
X119968893Y-32242132D01*
X119988599Y-32256747D01*
X120006777Y-32273223D01*
X120023253Y-32291401D01*
X120037868Y-32311107D01*
X120050480Y-32332150D01*
X120060970Y-32354329D01*
X120069235Y-32377428D01*
X120075196Y-32401227D01*
X120078796Y-32425495D01*
X120080000Y-32449999D01*
X120080000Y-33100001D01*
X120078796Y-33124505D01*
X120075196Y-33148773D01*
X120069235Y-33172572D01*
X120060970Y-33195671D01*
X120050480Y-33217850D01*
X120037868Y-33238893D01*
X120023253Y-33258599D01*
X120006777Y-33276777D01*
X119988599Y-33293253D01*
X119968893Y-33307868D01*
X119947850Y-33320480D01*
X119925671Y-33330970D01*
X119902572Y-33339235D01*
X119878773Y-33345196D01*
X119854505Y-33348796D01*
X119830001Y-33350000D01*
X118929999Y-33350000D01*
X118905495Y-33348796D01*
X118881227Y-33345196D01*
X118857428Y-33339235D01*
X118834329Y-33330970D01*
X118812150Y-33320480D01*
X118791107Y-33307868D01*
X118771401Y-33293253D01*
X118753223Y-33276777D01*
X118736747Y-33258599D01*
X118722132Y-33238893D01*
X118709520Y-33217850D01*
X118699030Y-33195671D01*
X118690765Y-33172572D01*
X118684804Y-33148773D01*
X118681204Y-33124505D01*
X118680000Y-33100001D01*
X118680000Y-32449999D01*
X118681204Y-32425495D01*
X118684804Y-32401227D01*
X118690765Y-32377428D01*
X118699030Y-32354329D01*
X118709520Y-32332150D01*
X118722132Y-32311107D01*
X118736747Y-32291401D01*
X118753223Y-32273223D01*
X118771401Y-32256747D01*
X118791107Y-32242132D01*
X118812150Y-32229520D01*
X118834329Y-32219030D01*
X118857428Y-32210765D01*
X118881227Y-32204804D01*
X118905495Y-32201204D01*
X118929999Y-32200000D01*
X119830001Y-32200000D01*
X119854505Y-32201204D01*
G37*
G36*
X109814505Y-38671204D02*
G01*
X109838773Y-38674804D01*
X109862572Y-38680765D01*
X109885671Y-38689030D01*
X109907850Y-38699520D01*
X109928893Y-38712132D01*
X109948599Y-38726747D01*
X109966777Y-38743223D01*
X109983253Y-38761401D01*
X109997868Y-38781107D01*
X110010480Y-38802150D01*
X110020970Y-38824329D01*
X110029235Y-38847428D01*
X110035196Y-38871227D01*
X110038796Y-38895495D01*
X110040000Y-38919999D01*
X110040000Y-39820001D01*
X110038796Y-39844505D01*
X110035196Y-39868773D01*
X110029235Y-39892572D01*
X110020970Y-39915671D01*
X110010480Y-39937850D01*
X109997868Y-39958893D01*
X109983253Y-39978599D01*
X109966777Y-39996777D01*
X109948599Y-40013253D01*
X109928893Y-40027868D01*
X109907850Y-40040480D01*
X109885671Y-40050970D01*
X109862572Y-40059235D01*
X109838773Y-40065196D01*
X109814505Y-40068796D01*
X109790001Y-40070000D01*
X109139999Y-40070000D01*
X109115495Y-40068796D01*
X109091227Y-40065196D01*
X109067428Y-40059235D01*
X109044329Y-40050970D01*
X109022150Y-40040480D01*
X109001107Y-40027868D01*
X108981401Y-40013253D01*
X108963223Y-39996777D01*
X108946747Y-39978599D01*
X108932132Y-39958893D01*
X108919520Y-39937850D01*
X108909030Y-39915671D01*
X108900765Y-39892572D01*
X108894804Y-39868773D01*
X108891204Y-39844505D01*
X108890000Y-39820001D01*
X108890000Y-38919999D01*
X108891204Y-38895495D01*
X108894804Y-38871227D01*
X108900765Y-38847428D01*
X108909030Y-38824329D01*
X108919520Y-38802150D01*
X108932132Y-38781107D01*
X108946747Y-38761401D01*
X108963223Y-38743223D01*
X108981401Y-38726747D01*
X109001107Y-38712132D01*
X109022150Y-38699520D01*
X109044329Y-38689030D01*
X109067428Y-38680765D01*
X109091227Y-38674804D01*
X109115495Y-38671204D01*
X109139999Y-38670000D01*
X109790001Y-38670000D01*
X109814505Y-38671204D01*
G37*
G36*
X111864505Y-38671204D02*
G01*
X111888773Y-38674804D01*
X111912572Y-38680765D01*
X111935671Y-38689030D01*
X111957850Y-38699520D01*
X111978893Y-38712132D01*
X111998599Y-38726747D01*
X112016777Y-38743223D01*
X112033253Y-38761401D01*
X112047868Y-38781107D01*
X112060480Y-38802150D01*
X112070970Y-38824329D01*
X112079235Y-38847428D01*
X112085196Y-38871227D01*
X112088796Y-38895495D01*
X112090000Y-38919999D01*
X112090000Y-39820001D01*
X112088796Y-39844505D01*
X112085196Y-39868773D01*
X112079235Y-39892572D01*
X112070970Y-39915671D01*
X112060480Y-39937850D01*
X112047868Y-39958893D01*
X112033253Y-39978599D01*
X112016777Y-39996777D01*
X111998599Y-40013253D01*
X111978893Y-40027868D01*
X111957850Y-40040480D01*
X111935671Y-40050970D01*
X111912572Y-40059235D01*
X111888773Y-40065196D01*
X111864505Y-40068796D01*
X111840001Y-40070000D01*
X111189999Y-40070000D01*
X111165495Y-40068796D01*
X111141227Y-40065196D01*
X111117428Y-40059235D01*
X111094329Y-40050970D01*
X111072150Y-40040480D01*
X111051107Y-40027868D01*
X111031401Y-40013253D01*
X111013223Y-39996777D01*
X110996747Y-39978599D01*
X110982132Y-39958893D01*
X110969520Y-39937850D01*
X110959030Y-39915671D01*
X110950765Y-39892572D01*
X110944804Y-39868773D01*
X110941204Y-39844505D01*
X110940000Y-39820001D01*
X110940000Y-38919999D01*
X110941204Y-38895495D01*
X110944804Y-38871227D01*
X110950765Y-38847428D01*
X110959030Y-38824329D01*
X110969520Y-38802150D01*
X110982132Y-38781107D01*
X110996747Y-38761401D01*
X111013223Y-38743223D01*
X111031401Y-38726747D01*
X111051107Y-38712132D01*
X111072150Y-38699520D01*
X111094329Y-38689030D01*
X111117428Y-38680765D01*
X111141227Y-38674804D01*
X111165495Y-38671204D01*
X111189999Y-38670000D01*
X111840001Y-38670000D01*
X111864505Y-38671204D01*
G37*
G36*
X114894505Y-38671204D02*
G01*
X114918773Y-38674804D01*
X114942572Y-38680765D01*
X114965671Y-38689030D01*
X114987850Y-38699520D01*
X115008893Y-38712132D01*
X115028599Y-38726747D01*
X115046777Y-38743223D01*
X115063253Y-38761401D01*
X115077868Y-38781107D01*
X115090480Y-38802150D01*
X115100970Y-38824329D01*
X115109235Y-38847428D01*
X115115196Y-38871227D01*
X115118796Y-38895495D01*
X115120000Y-38919999D01*
X115120000Y-39820001D01*
X115118796Y-39844505D01*
X115115196Y-39868773D01*
X115109235Y-39892572D01*
X115100970Y-39915671D01*
X115090480Y-39937850D01*
X115077868Y-39958893D01*
X115063253Y-39978599D01*
X115046777Y-39996777D01*
X115028599Y-40013253D01*
X115008893Y-40027868D01*
X114987850Y-40040480D01*
X114965671Y-40050970D01*
X114942572Y-40059235D01*
X114918773Y-40065196D01*
X114894505Y-40068796D01*
X114870001Y-40070000D01*
X114219999Y-40070000D01*
X114195495Y-40068796D01*
X114171227Y-40065196D01*
X114147428Y-40059235D01*
X114124329Y-40050970D01*
X114102150Y-40040480D01*
X114081107Y-40027868D01*
X114061401Y-40013253D01*
X114043223Y-39996777D01*
X114026747Y-39978599D01*
X114012132Y-39958893D01*
X113999520Y-39937850D01*
X113989030Y-39915671D01*
X113980765Y-39892572D01*
X113974804Y-39868773D01*
X113971204Y-39844505D01*
X113970000Y-39820001D01*
X113970000Y-38919999D01*
X113971204Y-38895495D01*
X113974804Y-38871227D01*
X113980765Y-38847428D01*
X113989030Y-38824329D01*
X113999520Y-38802150D01*
X114012132Y-38781107D01*
X114026747Y-38761401D01*
X114043223Y-38743223D01*
X114061401Y-38726747D01*
X114081107Y-38712132D01*
X114102150Y-38699520D01*
X114124329Y-38689030D01*
X114147428Y-38680765D01*
X114171227Y-38674804D01*
X114195495Y-38671204D01*
X114219999Y-38670000D01*
X114870001Y-38670000D01*
X114894505Y-38671204D01*
G37*
G36*
X116944505Y-38671204D02*
G01*
X116968773Y-38674804D01*
X116992572Y-38680765D01*
X117015671Y-38689030D01*
X117037850Y-38699520D01*
X117058893Y-38712132D01*
X117078599Y-38726747D01*
X117096777Y-38743223D01*
X117113253Y-38761401D01*
X117127868Y-38781107D01*
X117140480Y-38802150D01*
X117150970Y-38824329D01*
X117159235Y-38847428D01*
X117165196Y-38871227D01*
X117168796Y-38895495D01*
X117170000Y-38919999D01*
X117170000Y-39820001D01*
X117168796Y-39844505D01*
X117165196Y-39868773D01*
X117159235Y-39892572D01*
X117150970Y-39915671D01*
X117140480Y-39937850D01*
X117127868Y-39958893D01*
X117113253Y-39978599D01*
X117096777Y-39996777D01*
X117078599Y-40013253D01*
X117058893Y-40027868D01*
X117037850Y-40040480D01*
X117015671Y-40050970D01*
X116992572Y-40059235D01*
X116968773Y-40065196D01*
X116944505Y-40068796D01*
X116920001Y-40070000D01*
X116269999Y-40070000D01*
X116245495Y-40068796D01*
X116221227Y-40065196D01*
X116197428Y-40059235D01*
X116174329Y-40050970D01*
X116152150Y-40040480D01*
X116131107Y-40027868D01*
X116111401Y-40013253D01*
X116093223Y-39996777D01*
X116076747Y-39978599D01*
X116062132Y-39958893D01*
X116049520Y-39937850D01*
X116039030Y-39915671D01*
X116030765Y-39892572D01*
X116024804Y-39868773D01*
X116021204Y-39844505D01*
X116020000Y-39820001D01*
X116020000Y-38919999D01*
X116021204Y-38895495D01*
X116024804Y-38871227D01*
X116030765Y-38847428D01*
X116039030Y-38824329D01*
X116049520Y-38802150D01*
X116062132Y-38781107D01*
X116076747Y-38761401D01*
X116093223Y-38743223D01*
X116111401Y-38726747D01*
X116131107Y-38712132D01*
X116152150Y-38699520D01*
X116174329Y-38689030D01*
X116197428Y-38680765D01*
X116221227Y-38674804D01*
X116245495Y-38671204D01*
X116269999Y-38670000D01*
X116920001Y-38670000D01*
X116944505Y-38671204D01*
G37*
G36*
X103609505Y-90106204D02*
G01*
X103633773Y-90109804D01*
X103657572Y-90115765D01*
X103680671Y-90124030D01*
X103702850Y-90134520D01*
X103723893Y-90147132D01*
X103743599Y-90161747D01*
X103761777Y-90178223D01*
X103778253Y-90196401D01*
X103792868Y-90216107D01*
X103805480Y-90237150D01*
X103815970Y-90259329D01*
X103824235Y-90282428D01*
X103830196Y-90306227D01*
X103833796Y-90330495D01*
X103835000Y-90354999D01*
X103835000Y-91255001D01*
X103833796Y-91279505D01*
X103830196Y-91303773D01*
X103824235Y-91327572D01*
X103815970Y-91350671D01*
X103805480Y-91372850D01*
X103792868Y-91393893D01*
X103778253Y-91413599D01*
X103761777Y-91431777D01*
X103743599Y-91448253D01*
X103723893Y-91462868D01*
X103702850Y-91475480D01*
X103680671Y-91485970D01*
X103657572Y-91494235D01*
X103633773Y-91500196D01*
X103609505Y-91503796D01*
X103585001Y-91505000D01*
X102934999Y-91505000D01*
X102910495Y-91503796D01*
X102886227Y-91500196D01*
X102862428Y-91494235D01*
X102839329Y-91485970D01*
X102817150Y-91475480D01*
X102796107Y-91462868D01*
X102776401Y-91448253D01*
X102758223Y-91431777D01*
X102741747Y-91413599D01*
X102727132Y-91393893D01*
X102714520Y-91372850D01*
X102704030Y-91350671D01*
X102695765Y-91327572D01*
X102689804Y-91303773D01*
X102686204Y-91279505D01*
X102685000Y-91255001D01*
X102685000Y-90354999D01*
X102686204Y-90330495D01*
X102689804Y-90306227D01*
X102695765Y-90282428D01*
X102704030Y-90259329D01*
X102714520Y-90237150D01*
X102727132Y-90216107D01*
X102741747Y-90196401D01*
X102758223Y-90178223D01*
X102776401Y-90161747D01*
X102796107Y-90147132D01*
X102817150Y-90134520D01*
X102839329Y-90124030D01*
X102862428Y-90115765D01*
X102886227Y-90109804D01*
X102910495Y-90106204D01*
X102934999Y-90105000D01*
X103585001Y-90105000D01*
X103609505Y-90106204D01*
G37*
G36*
X101559505Y-90106204D02*
G01*
X101583773Y-90109804D01*
X101607572Y-90115765D01*
X101630671Y-90124030D01*
X101652850Y-90134520D01*
X101673893Y-90147132D01*
X101693599Y-90161747D01*
X101711777Y-90178223D01*
X101728253Y-90196401D01*
X101742868Y-90216107D01*
X101755480Y-90237150D01*
X101765970Y-90259329D01*
X101774235Y-90282428D01*
X101780196Y-90306227D01*
X101783796Y-90330495D01*
X101785000Y-90354999D01*
X101785000Y-91255001D01*
X101783796Y-91279505D01*
X101780196Y-91303773D01*
X101774235Y-91327572D01*
X101765970Y-91350671D01*
X101755480Y-91372850D01*
X101742868Y-91393893D01*
X101728253Y-91413599D01*
X101711777Y-91431777D01*
X101693599Y-91448253D01*
X101673893Y-91462868D01*
X101652850Y-91475480D01*
X101630671Y-91485970D01*
X101607572Y-91494235D01*
X101583773Y-91500196D01*
X101559505Y-91503796D01*
X101535001Y-91505000D01*
X100884999Y-91505000D01*
X100860495Y-91503796D01*
X100836227Y-91500196D01*
X100812428Y-91494235D01*
X100789329Y-91485970D01*
X100767150Y-91475480D01*
X100746107Y-91462868D01*
X100726401Y-91448253D01*
X100708223Y-91431777D01*
X100691747Y-91413599D01*
X100677132Y-91393893D01*
X100664520Y-91372850D01*
X100654030Y-91350671D01*
X100645765Y-91327572D01*
X100639804Y-91303773D01*
X100636204Y-91279505D01*
X100635000Y-91255001D01*
X100635000Y-90354999D01*
X100636204Y-90330495D01*
X100639804Y-90306227D01*
X100645765Y-90282428D01*
X100654030Y-90259329D01*
X100664520Y-90237150D01*
X100677132Y-90216107D01*
X100691747Y-90196401D01*
X100708223Y-90178223D01*
X100726401Y-90161747D01*
X100746107Y-90147132D01*
X100767150Y-90134520D01*
X100789329Y-90124030D01*
X100812428Y-90115765D01*
X100836227Y-90109804D01*
X100860495Y-90106204D01*
X100884999Y-90105000D01*
X101535001Y-90105000D01*
X101559505Y-90106204D01*
G37*
G36*
X109569505Y-42481204D02*
G01*
X109593773Y-42484804D01*
X109617572Y-42490765D01*
X109640671Y-42499030D01*
X109662850Y-42509520D01*
X109683893Y-42522132D01*
X109703599Y-42536747D01*
X109721777Y-42553223D01*
X109738253Y-42571401D01*
X109752868Y-42591107D01*
X109765480Y-42612150D01*
X109775970Y-42634329D01*
X109784235Y-42657428D01*
X109790196Y-42681227D01*
X109793796Y-42705495D01*
X109795000Y-42729999D01*
X109795000Y-43630001D01*
X109793796Y-43654505D01*
X109790196Y-43678773D01*
X109784235Y-43702572D01*
X109775970Y-43725671D01*
X109765480Y-43747850D01*
X109752868Y-43768893D01*
X109738253Y-43788599D01*
X109721777Y-43806777D01*
X109703599Y-43823253D01*
X109683893Y-43837868D01*
X109662850Y-43850480D01*
X109640671Y-43860970D01*
X109617572Y-43869235D01*
X109593773Y-43875196D01*
X109569505Y-43878796D01*
X109545001Y-43880000D01*
X108894999Y-43880000D01*
X108870495Y-43878796D01*
X108846227Y-43875196D01*
X108822428Y-43869235D01*
X108799329Y-43860970D01*
X108777150Y-43850480D01*
X108756107Y-43837868D01*
X108736401Y-43823253D01*
X108718223Y-43806777D01*
X108701747Y-43788599D01*
X108687132Y-43768893D01*
X108674520Y-43747850D01*
X108664030Y-43725671D01*
X108655765Y-43702572D01*
X108649804Y-43678773D01*
X108646204Y-43654505D01*
X108645000Y-43630001D01*
X108645000Y-42729999D01*
X108646204Y-42705495D01*
X108649804Y-42681227D01*
X108655765Y-42657428D01*
X108664030Y-42634329D01*
X108674520Y-42612150D01*
X108687132Y-42591107D01*
X108701747Y-42571401D01*
X108718223Y-42553223D01*
X108736401Y-42536747D01*
X108756107Y-42522132D01*
X108777150Y-42509520D01*
X108799329Y-42499030D01*
X108822428Y-42490765D01*
X108846227Y-42484804D01*
X108870495Y-42481204D01*
X108894999Y-42480000D01*
X109545001Y-42480000D01*
X109569505Y-42481204D01*
G37*
G36*
X111619505Y-42481204D02*
G01*
X111643773Y-42484804D01*
X111667572Y-42490765D01*
X111690671Y-42499030D01*
X111712850Y-42509520D01*
X111733893Y-42522132D01*
X111753599Y-42536747D01*
X111771777Y-42553223D01*
X111788253Y-42571401D01*
X111802868Y-42591107D01*
X111815480Y-42612150D01*
X111825970Y-42634329D01*
X111834235Y-42657428D01*
X111840196Y-42681227D01*
X111843796Y-42705495D01*
X111845000Y-42729999D01*
X111845000Y-43630001D01*
X111843796Y-43654505D01*
X111840196Y-43678773D01*
X111834235Y-43702572D01*
X111825970Y-43725671D01*
X111815480Y-43747850D01*
X111802868Y-43768893D01*
X111788253Y-43788599D01*
X111771777Y-43806777D01*
X111753599Y-43823253D01*
X111733893Y-43837868D01*
X111712850Y-43850480D01*
X111690671Y-43860970D01*
X111667572Y-43869235D01*
X111643773Y-43875196D01*
X111619505Y-43878796D01*
X111595001Y-43880000D01*
X110944999Y-43880000D01*
X110920495Y-43878796D01*
X110896227Y-43875196D01*
X110872428Y-43869235D01*
X110849329Y-43860970D01*
X110827150Y-43850480D01*
X110806107Y-43837868D01*
X110786401Y-43823253D01*
X110768223Y-43806777D01*
X110751747Y-43788599D01*
X110737132Y-43768893D01*
X110724520Y-43747850D01*
X110714030Y-43725671D01*
X110705765Y-43702572D01*
X110699804Y-43678773D01*
X110696204Y-43654505D01*
X110695000Y-43630001D01*
X110695000Y-42729999D01*
X110696204Y-42705495D01*
X110699804Y-42681227D01*
X110705765Y-42657428D01*
X110714030Y-42634329D01*
X110724520Y-42612150D01*
X110737132Y-42591107D01*
X110751747Y-42571401D01*
X110768223Y-42553223D01*
X110786401Y-42536747D01*
X110806107Y-42522132D01*
X110827150Y-42509520D01*
X110849329Y-42499030D01*
X110872428Y-42490765D01*
X110896227Y-42484804D01*
X110920495Y-42481204D01*
X110944999Y-42480000D01*
X111595001Y-42480000D01*
X111619505Y-42481204D01*
G37*
G36*
X115139505Y-42481204D02*
G01*
X115163773Y-42484804D01*
X115187572Y-42490765D01*
X115210671Y-42499030D01*
X115232850Y-42509520D01*
X115253893Y-42522132D01*
X115273599Y-42536747D01*
X115291777Y-42553223D01*
X115308253Y-42571401D01*
X115322868Y-42591107D01*
X115335480Y-42612150D01*
X115345970Y-42634329D01*
X115354235Y-42657428D01*
X115360196Y-42681227D01*
X115363796Y-42705495D01*
X115365000Y-42729999D01*
X115365000Y-43630001D01*
X115363796Y-43654505D01*
X115360196Y-43678773D01*
X115354235Y-43702572D01*
X115345970Y-43725671D01*
X115335480Y-43747850D01*
X115322868Y-43768893D01*
X115308253Y-43788599D01*
X115291777Y-43806777D01*
X115273599Y-43823253D01*
X115253893Y-43837868D01*
X115232850Y-43850480D01*
X115210671Y-43860970D01*
X115187572Y-43869235D01*
X115163773Y-43875196D01*
X115139505Y-43878796D01*
X115115001Y-43880000D01*
X114464999Y-43880000D01*
X114440495Y-43878796D01*
X114416227Y-43875196D01*
X114392428Y-43869235D01*
X114369329Y-43860970D01*
X114347150Y-43850480D01*
X114326107Y-43837868D01*
X114306401Y-43823253D01*
X114288223Y-43806777D01*
X114271747Y-43788599D01*
X114257132Y-43768893D01*
X114244520Y-43747850D01*
X114234030Y-43725671D01*
X114225765Y-43702572D01*
X114219804Y-43678773D01*
X114216204Y-43654505D01*
X114215000Y-43630001D01*
X114215000Y-42729999D01*
X114216204Y-42705495D01*
X114219804Y-42681227D01*
X114225765Y-42657428D01*
X114234030Y-42634329D01*
X114244520Y-42612150D01*
X114257132Y-42591107D01*
X114271747Y-42571401D01*
X114288223Y-42553223D01*
X114306401Y-42536747D01*
X114326107Y-42522132D01*
X114347150Y-42509520D01*
X114369329Y-42499030D01*
X114392428Y-42490765D01*
X114416227Y-42484804D01*
X114440495Y-42481204D01*
X114464999Y-42480000D01*
X115115001Y-42480000D01*
X115139505Y-42481204D01*
G37*
G36*
X117189505Y-42481204D02*
G01*
X117213773Y-42484804D01*
X117237572Y-42490765D01*
X117260671Y-42499030D01*
X117282850Y-42509520D01*
X117303893Y-42522132D01*
X117323599Y-42536747D01*
X117341777Y-42553223D01*
X117358253Y-42571401D01*
X117372868Y-42591107D01*
X117385480Y-42612150D01*
X117395970Y-42634329D01*
X117404235Y-42657428D01*
X117410196Y-42681227D01*
X117413796Y-42705495D01*
X117415000Y-42729999D01*
X117415000Y-43630001D01*
X117413796Y-43654505D01*
X117410196Y-43678773D01*
X117404235Y-43702572D01*
X117395970Y-43725671D01*
X117385480Y-43747850D01*
X117372868Y-43768893D01*
X117358253Y-43788599D01*
X117341777Y-43806777D01*
X117323599Y-43823253D01*
X117303893Y-43837868D01*
X117282850Y-43850480D01*
X117260671Y-43860970D01*
X117237572Y-43869235D01*
X117213773Y-43875196D01*
X117189505Y-43878796D01*
X117165001Y-43880000D01*
X116514999Y-43880000D01*
X116490495Y-43878796D01*
X116466227Y-43875196D01*
X116442428Y-43869235D01*
X116419329Y-43860970D01*
X116397150Y-43850480D01*
X116376107Y-43837868D01*
X116356401Y-43823253D01*
X116338223Y-43806777D01*
X116321747Y-43788599D01*
X116307132Y-43768893D01*
X116294520Y-43747850D01*
X116284030Y-43725671D01*
X116275765Y-43702572D01*
X116269804Y-43678773D01*
X116266204Y-43654505D01*
X116265000Y-43630001D01*
X116265000Y-42729999D01*
X116266204Y-42705495D01*
X116269804Y-42681227D01*
X116275765Y-42657428D01*
X116284030Y-42634329D01*
X116294520Y-42612150D01*
X116307132Y-42591107D01*
X116321747Y-42571401D01*
X116338223Y-42553223D01*
X116356401Y-42536747D01*
X116376107Y-42522132D01*
X116397150Y-42509520D01*
X116419329Y-42499030D01*
X116442428Y-42490765D01*
X116466227Y-42484804D01*
X116490495Y-42481204D01*
X116514999Y-42480000D01*
X117165001Y-42480000D01*
X117189505Y-42481204D01*
G37*
M02*
